<!-- Generated by IcoMoon.io -->
<svg version="1.1" xmlns="http://www.w3.org/2000/svg" width="32" height="32" viewBox="0 0 32 32">
<path d="M14.545 11.9c0 0.083 0.042 0.215 0.090 0.291 0.069 0.111 0.076 0.422 0.042 1.385-0.028 0.686-0.062 1.309-0.069 1.385-0.028 0.125 0.014 0.139 0.339 0.159 0.374 0.021 0.464-0.062 0.277-0.249-0.062-0.062-0.104-0.416-0.132-1.004-0.028-0.506-0.069-0.984-0.097-1.074-0.042-0.125-0.028-0.152 0.097-0.152 0.083 0 0.173 0.055 0.194 0.118 0.055 0.152 1.413 2.009 1.621 2.216 0.083 0.090 0.18 0.139 0.208 0.118 0.083-0.049 0.076-0.422-0.007-0.478-0.049-0.028-0.062-0.27-0.035-0.644 0.021-0.332 0.049-0.838 0.069-1.122 0.014-0.284 0.049-0.589 0.076-0.679 0.042-0.145 0.021-0.152-0.284-0.152-0.284 0-0.319 0.014-0.277 0.118 0.076 0.173 0.159 1.773 0.104 1.842-0.028 0.028-0.277-0.249-0.554-0.616-0.748-1.004-0.956-1.226-1.254-1.385-0.111-0.055-0.187-0.132-0.166-0.166 0.028-0.042-0.021-0.069-0.097-0.069-0.104 0-0.145 0.042-0.145 0.159z"></path>
<path d="M24.381 11.983c-0.090 0.111-0.035 0.242 0.090 0.242 0.111 0 0.457 0.395 0.582 0.658 0.049 0.111 0.118 0.256 0.152 0.312 0.187 0.346 0.215 0.464 0.215 0.963 0 0.305-0.028 0.575-0.069 0.596-0.035 0.021-0.069 0.125-0.069 0.222 0 0.145 0.021 0.166 0.159 0.132 0.083-0.021 0.242-0.042 0.346-0.042 0.201 0 0.201 0 0.152-0.332-0.021-0.18-0.042-0.533-0.049-0.79-0.007-0.409 0.014-0.492 0.194-0.727 0.339-0.443 0.72-1.032 0.72-1.108 0-0.104-0.152-0.152-0.367-0.111-0.139 0.028-0.187 0.076-0.187 0.194 0 0.090-0.076 0.312-0.166 0.499-0.090 0.18-0.187 0.388-0.208 0.464-0.062 0.18-0.215 0.042-0.436-0.416-0.208-0.422-0.45-0.672-0.762-0.776-0.173-0.055-0.235-0.055-0.298 0.021z"></path>
<path d="M30.22 11.976c-0.118 0.049-0.319 0.166-0.429 0.27-0.173 0.152-0.215 0.242-0.215 0.478 0 0.388 0.215 0.686 0.672 0.921 0.513 0.27 0.644 0.416 0.644 0.693 0 0.18-0.049 0.263-0.201 0.374-0.111 0.083-0.242 0.145-0.298 0.145-0.173 0-0.471-0.166-0.506-0.284-0.035-0.104-0.229-0.194-0.395-0.201-0.083 0-0.062 0.222 0.035 0.402 0.208 0.367 0.984 0.492 1.364 0.222 0.319-0.229 0.499-0.575 0.45-0.859-0.049-0.249-0.332-0.61-0.533-0.686-0.284-0.104-0.693-0.416-0.755-0.589-0.055-0.139-0.049-0.242 0.035-0.409 0.097-0.208 0.139-0.229 0.416-0.229 0.242 0 0.319 0.028 0.353 0.125 0.042 0.139 0.339 0.312 0.409 0.242 0.069-0.076 0.042-0.326-0.049-0.45-0.083-0.104-0.222-0.159-0.616-0.222-0.090-0.007-0.256 0.014-0.381 0.055z"></path>
<path d="M20.814 12.003c-0.949 0.021-0.956 0.021-0.831 0.27 0.159 0.298 0.145 2.216-0.014 2.549-0.139 0.284-0.104 0.339 0.145 0.242 0.125-0.049 0.229-0.049 0.319 0 0.069 0.035 0.381 0.069 0.693 0.069 0.637 0 0.9-0.111 0.9-0.388 0-0.215-0.166-0.284-0.319-0.139-0.090 0.090-0.222 0.111-0.644 0.097l-0.526-0.021v-1.039l0.381 0.021c0.208 0.014 0.464 0.069 0.568 0.118 0.229 0.111 0.256 0.083 0.215-0.263-0.035-0.242-0.049-0.256-0.291-0.256-0.139 0-0.374 0.035-0.526 0.069-0.346 0.076-0.388 0.021-0.367-0.554l0.021-0.45 0.409-0.021c0.284-0.014 0.436 0.007 0.519 0.083 0.062 0.055 0.194 0.125 0.305 0.145 0.222 0.055 0.256-0.076 0.076-0.346-0.139-0.208-0.139-0.208-1.032-0.187z"></path>
<path d="M0.18 12.17c0.090 0.249 0.118 2.549 0.028 2.549-0.035 0-0.069 0.076-0.069 0.166 0 0.145 0.035 0.166 0.422 0.208 0.7 0.069 0.88 0.049 1.157-0.125 0.312-0.194 0.499-0.45 0.547-0.762 0.028-0.187-0.007-0.277-0.187-0.478-0.125-0.145-0.263-0.256-0.319-0.256-0.139 0-0.118-0.118 0.048-0.298 0.326-0.346 0.305-0.63-0.069-0.97-0.201-0.18-0.249-0.187-0.914-0.187-0.7 0-0.7 0-0.644 0.152zM1.413 12.391c0.118 0.104 0.18 0.236 0.18 0.367 0 0.332-0.436 0.644-0.762 0.54-0.118-0.035-0.139-0.104-0.139-0.402 0-0.575 0.048-0.672 0.319-0.672 0.145 0 0.291 0.062 0.402 0.166zM1.323 13.61c0.436 0 0.644 0.651 0.312 0.963-0.201 0.187-0.686 0.27-0.838 0.145s-0.145-0.949 0.007-1.115c0.083-0.097 0.145-0.111 0.242-0.062 0.069 0.042 0.194 0.069 0.277 0.069z"></path>
<path d="M5.652 12.433c-0.069 0.222-0.166 0.443-0.222 0.492-0.055 0.042-0.097 0.159-0.097 0.249 0 0.097-0.042 0.256-0.090 0.353-0.173 0.339-0.319 0.672-0.36 0.845-0.028 0.097-0.097 0.229-0.152 0.291-0.145 0.166-0.090 0.429 0.104 0.457 0.229 0.035 0.381-0.118 0.332-0.332-0.021-0.104 0.007-0.249 0.062-0.326 0.048-0.069 0.104-0.222 0.118-0.332 0.021-0.194 0.042-0.208 0.429-0.256 0.457-0.055 0.596 0 0.596 0.256 0 0.083 0.048 0.194 0.104 0.242 0.062 0.049 0.104 0.201 0.104 0.381 0 0.291 0 0.291 0.291 0.332 0.159 0.021 0.319 0.021 0.346 0.007 0.104-0.062 0.055-0.284-0.083-0.409-0.076-0.069-0.139-0.166-0.139-0.215s-0.055-0.187-0.118-0.319c-0.062-0.125-0.152-0.312-0.208-0.416-0.048-0.097-0.090-0.229-0.090-0.284 0-0.062-0.055-0.208-0.118-0.339-0.062-0.125-0.152-0.312-0.208-0.416-0.048-0.097-0.090-0.256-0.090-0.346 0-0.194-0.118-0.332-0.277-0.332-0.076 0-0.152 0.132-0.236 0.416zM5.957 12.973c0 0.069 0.048 0.194 0.111 0.277 0.159 0.236 0.069 0.416-0.208 0.416-0.284 0-0.36-0.166-0.208-0.457 0.055-0.104 0.097-0.229 0.097-0.277 0-0.042 0.048-0.083 0.104-0.083s0.104 0.055 0.104 0.125z"></path>
<path d="M9.87 12.087c-0.021 0.035 0 0.139 0.049 0.222 0.139 0.242 0.139 2.182 0.007 2.39-0.118 0.173-0.097 0.402 0.035 0.395 0.042-0.007 0.215-0.014 0.367-0.021 0.277-0.007 0.284-0.014 0.242-0.201-0.083-0.326-0.187-1.067-0.159-1.094 0.076-0.083 0.27 0.097 0.637 0.596 0.229 0.305 0.429 0.554 0.45 0.554 0.028 0 0.118 0.062 0.208 0.139 0.173 0.152 0.388 0.173 0.554 0.069 0.090-0.055 0.076-0.090-0.083-0.242-0.104-0.097-0.215-0.173-0.242-0.173-0.035 0-0.104-0.055-0.166-0.125-0.055-0.062-0.236-0.27-0.395-0.45-0.159-0.187-0.291-0.367-0.291-0.402s0.104-0.111 0.229-0.173c0.291-0.139 0.533-0.492 0.533-0.79 0-0.18-0.062-0.291-0.277-0.499l-0.284-0.263h-0.686c-0.374 0-0.707 0.028-0.727 0.069zM11.152 12.377c0.173 0.125 0.208 0.201 0.208 0.429-0.007 0.471-0.471 0.859-0.817 0.672-0.118-0.062-0.132-0.125-0.104-0.575 0.021-0.277 0.042-0.547 0.055-0.596 0.049-0.139 0.436-0.097 0.658 0.069z"></path>
<path d="M0.118 17.053c-0.083 0.076-0.055 0.201 0.090 0.367 0.097 0.111 0.118 0.187 0.076 0.27-0.035 0.062-0.076 0.644-0.083 1.288l-0.021 1.177 0.263 0.021c0.256 0.021 0.263 0.014 0.215-0.139-0.083-0.229-0.152-2.154-0.090-2.237 0.055-0.062 0.395 0.277 0.402 0.402 0 0.028 0.277 0.422 0.623 0.88s0.623 0.859 0.623 0.893c0 0.042 0.062 0.104 0.145 0.152 0.236 0.125 0.312-0.014 0.215-0.395-0.055-0.194-0.062-0.353-0.021-0.429 0.035-0.062 0.076-0.575 0.090-1.143l0.028-1.018h-0.298c-0.305 0-0.346 0.055-0.236 0.263 0.104 0.201 0.125 1.697 0.028 1.725-0.049 0.021-0.111-0.028-0.139-0.097s-0.326-0.492-0.665-0.942c-0.665-0.893-1.067-1.226-1.247-1.039z"></path>
<path d="M14.636 17.122c-0.028 0.076 0.007 0.152 0.111 0.222 0.291 0.201 0.464 0.409 0.658 0.803 0.111 0.208 0.229 0.402 0.263 0.422 0.042 0.028 0.055 0.367 0.042 0.817l-0.021 0.769 0.291 0.014c0.305 0.014 0.423-0.062 0.312-0.208-0.035-0.049-0.083-0.339-0.104-0.651-0.042-0.554-0.042-0.575 0.166-0.831 0.381-0.485 0.831-1.212 0.797-1.302-0.021-0.055-0.111-0.069-0.291-0.042-0.249 0.042-0.27 0.062-0.319 0.346-0.028 0.173-0.076 0.326-0.104 0.346-0.035 0.021-0.111 0.159-0.173 0.298-0.132 0.277-0.332 0.353-0.332 0.132 0-0.069-0.049-0.166-0.104-0.215s-0.104-0.132-0.104-0.187c0-0.159-0.395-0.623-0.637-0.741-0.277-0.139-0.395-0.139-0.45 0.007z"></path>
<path d="M20.537 17.074c-0.021 0.035-0.104 0.069-0.187 0.069-0.076 0-0.298 0.159-0.506 0.381-0.312 0.319-0.374 0.429-0.429 0.762-0.076 0.416-0.007 1.011 0.139 1.198 0.242 0.312 0.63 0.623 0.873 0.693 1.039 0.312 1.946-0.381 1.946-1.482 0-0.672-0.374-1.254-0.997-1.558-0.291-0.139-0.769-0.18-0.838-0.062zM21.486 17.676c0.263 0.277 0.471 0.776 0.471 1.129 0 0.291-0.256 0.838-0.464 0.997-0.249 0.187-0.921 0.173-1.171-0.021-0.367-0.284-0.485-0.693-0.457-1.517 0.014-0.249 0.055-0.339 0.305-0.568 0.263-0.256 0.319-0.277 0.679-0.277s0.409 0.021 0.637 0.256z"></path>
<path d="M25.039 17.122c-0.409 0.035-0.499 0.097-0.346 0.256 0.173 0.173 0.222 2.362 0.062 2.542s-0.069 0.263 0.27 0.249l0.291-0.014-0.028-0.45c-0.014-0.249-0.028-0.526-0.035-0.616-0.014-0.284 0.118-0.229 0.374 0.139 0.478 0.7 0.866 1.032 1.205 1.032 0.249 0 0.229-0.18-0.028-0.339-0.118-0.069-0.312-0.242-0.436-0.388-0.118-0.152-0.277-0.326-0.339-0.395-0.18-0.18-0.152-0.326 0.069-0.416 0.436-0.194 0.596-0.561 0.457-1.074-0.104-0.374-0.734-0.589-1.517-0.526zM25.988 17.607c0.36 0.388 0.069 1.060-0.471 1.060h-0.235v-0.575c0-0.319 0.035-0.61 0.069-0.644 0.118-0.118 0.457-0.028 0.637 0.159z"></path>
<path d="M31.231 17.122c-0.104 0.014-0.215 0.097-0.249 0.18-0.152 0.332-0.824 1.157-0.942 1.157-0.132 0-0.132-0.049 0.028-0.852 0.090-0.471 0.097-0.464-0.277-0.464-0.388 0-0.492 0.090-0.326 0.27 0.090 0.104 0.111 0.312 0.111 1.261 0 0.762-0.028 1.171-0.076 1.219-0.139 0.139-0.014 0.298 0.229 0.298 0.326 0 0.422-0.076 0.346-0.284-0.035-0.090-0.083-0.36-0.111-0.596-0.042-0.367-0.035-0.436 0.055-0.436 0.062 0 0.166 0.083 0.229 0.187 0.284 0.443 0.831 1.004 1.081 1.115 0.235 0.097 0.672 0.111 0.672 0.014 0-0.042-0.035-0.069-0.069-0.069-0.215 0-1.635-1.378-1.579-1.538 0.014-0.028 0.291-0.326 0.63-0.672 0.416-0.422 0.589-0.651 0.561-0.727-0.021-0.062-0.062-0.104-0.090-0.104-0.021 0.007-0.125 0.028-0.222 0.042z"></path>
<path d="M5.035 17.309c0.042 0.118 0.055 0.713 0.055 2.819 0 0 0.423 0.021 0.942 0.042l0.942 0.035 0.083-0.222c0.118-0.353-0.021-0.464-0.256-0.208-0.118 0.125-0.201 0.145-0.679 0.125l-0.547-0.021-0.021-0.506c-0.014-0.367 0.007-0.513 0.069-0.533 0.083-0.035 0.762 0.042 1.025 0.111 0.076 0.021 0.111-0.049 0.125-0.27l0.021-0.305-0.402 0.049c-0.416 0.042-0.616 0.055-0.762 0.042-0.104-0.007-0.111-0.831-0.007-0.956 0.118-0.145 0.769-0.111 0.977 0.049 0.312 0.249 0.54 0.118 0.367-0.215-0.076-0.159-0.104-0.166-1.039-0.173-0.942-0.007-0.956-0.007-0.893 0.139z"></path>
<path d="M8.977 17.198c-0.021 0.028 0.014 0.132 0.062 0.229 0.222 0.381 0.45 0.921 0.45 1.053 0 0.062 0.042 0.194 0.097 0.305 0.159 0.319 0.263 0.658 0.312 0.99 0.035 0.277 0.062 0.312 0.215 0.312s0.18-0.035 0.215-0.312c0.021-0.173 0.104-0.513 0.187-0.762s0.166-0.54 0.187-0.644c0.049-0.235 0.201-0.215 0.229 0.028 0.014 0.090 0.069 0.263 0.125 0.388 0.055 0.118 0.097 0.291 0.097 0.388s0.028 0.194 0.062 0.215c0.028 0.021 0.076 0.194 0.104 0.388 0.035 0.284 0.069 0.346 0.187 0.346 0.145 0 0.236-0.166 0.305-0.575 0.021-0.139 0.069-0.256 0.104-0.256 0.042 0 0.069-0.076 0.069-0.166 0-0.097 0.049-0.215 0.104-0.277 0.055-0.055 0.104-0.159 0.104-0.229s0.042-0.208 0.097-0.312c0.055-0.104 0.118-0.284 0.145-0.409s0.097-0.27 0.145-0.326c0.055-0.049 0.097-0.173 0.097-0.263 0-0.159-0.021-0.173-0.256-0.152-0.256 0.021-0.263 0.028-0.27 0.319 0 0.166-0.042 0.332-0.083 0.374-0.049 0.049-0.083 0.159-0.083 0.263-0.007 0.097-0.049 0.249-0.104 0.346s-0.097 0.305-0.104 0.464c0 0.166-0.028 0.298-0.069 0.298-0.097 0-0.256-0.27-0.312-0.519-0.028-0.118-0.090-0.326-0.145-0.471-0.055-0.139-0.097-0.367-0.097-0.506 0-0.291-0.104-0.513-0.242-0.513-0.132 0-0.215 0.173-0.27 0.589-0.021 0.187-0.104 0.457-0.18 0.603s-0.139 0.374-0.139 0.506c0 0.132-0.035 0.242-0.076 0.242-0.076 0-0.256-0.374-0.346-0.727-0.062-0.249-0.201-0.651-0.27-0.803-0.028-0.055-0.028-0.159 0.014-0.222 0.035-0.069 0.042-0.152 0.021-0.187-0.049-0.083-0.637-0.097-0.686-0.014z"></path>
</svg>
