<!-- Generated by IcoMoon.io -->
<svg version="1.1" xmlns="http://www.w3.org/2000/svg" width="32" height="32" viewBox="0 0 32 32">
<path d="M16.985 9.1c0 1.887 0.016 1.936 0.492 1.69 0.131-0.066 0.295-0.123 0.369-0.123s0.566-0.205 1.091-0.46c1.534-0.738 2.437-0.927 3.11-0.648 0.156 0.066 0.361 0.123 0.443 0.123s0.189 0.074 0.238 0.164c0.107 0.197 0.074 0.205-0.533 0.287-0.566 0.074-0.862 0.361-0.862 0.821 0 0.648 0.574 0.927 1.485 0.738 0.312-0.066 0.632-0.156 0.706-0.189 0.082-0.041 0.295-0.148 0.476-0.23s0.632-0.369 1.001-0.624c1.378-0.96 2.018-1.214 3.028-1.214 0.73 0 1.51 0.197 1.51 0.386 0 0.057-0.082 0.107-0.18 0.107-0.665 0-1.296 0.46-1.296 0.935 0.008 0.788 0.993 0.993 2.667 0.542 0.5-0.131 0.985-0.246 1.091-0.246h0.181v-3.774h-15.015v1.715z"></path>
<path d="M27.241 13.325c-0.591 0.131-1.329 0.484-1.887 0.911-1.477 1.116-3.003 1.625-3.61 1.223-0.328-0.222-0.41-0.369-0.41-0.73 0-0.509 0.435-0.862 1.058-0.862 0.443 0 0.484-0.115 0.115-0.336-0.263-0.164-0.418-0.189-1.124-0.189-0.944-0.008-1.108 0.041-2.634 0.771-0.542 0.263-1.116 0.501-1.28 0.525-0.172 0.033-0.345 0.107-0.394 0.164-0.066 0.074-0.090 0.542-0.074 1.411l0.025 1.305 14.974 0.041v-2.56l-0.468 0.057c-0.254 0.033-0.558 0.098-0.673 0.139-0.287 0.115-1.305 0.312-1.616 0.312-0.804 0-1.403-0.533-1.19-1.050 0.164-0.394 0.427-0.583 0.911-0.648 0.369-0.057 0.451-0.098 0.451-0.23s-0.098-0.172-0.574-0.254c-0.714-0.123-1.026-0.123-1.6 0z"></path>
<path d="M17.928 19.233c-0.18 0.049-0.435 0.156-0.574 0.23-0.32 0.172-0.944 0.779-0.944 0.919 0 0.057-0.074 0.172-0.172 0.263-0.14 0.131-0.18 0.131-0.238 0.033-0.049-0.066-0.082-0.23-0.082-0.353 0-0.279-0.279-0.673-0.632-0.886-0.361-0.222-2.059-0.328-2.224-0.14-0.074 0.098-0.098 0.722-0.082 2.658l0.025 2.535 0.82 0.025c1.321 0.041 1.616-0.016 2.002-0.41 0.189-0.18 0.336-0.402 0.336-0.484 0-0.189 0.205-0.205 0.345-0.025 0.254 0.312 0.599 0.599 0.878 0.738 0.164 0.074 0.361 0.172 0.435 0.205 0.246 0.123 1.444 0.082 1.879-0.057 0.443-0.148 1.223-0.796 1.403-1.165 0.057-0.115 0.156-0.23 0.222-0.246 0.090-0.033 0.107 0.107 0.082 0.689l-0.033 0.73 0.459 0.025c0.304 0.016 0.484-0.008 0.533-0.082 0.041-0.066 0.057-0.73 0.033-1.584-0.025-0.812-0.016-1.51 0.008-1.543 0.082-0.098 0.402 0.090 0.402 0.23 0 0.066 0.164 0.361 0.369 0.665 0.205 0.295 0.369 0.55 0.369 0.574 0 0.016 0.164 0.271 0.369 0.574 0.205 0.295 0.369 0.558 0.369 0.574 0 0.025 0.098 0.172 0.222 0.328 0.205 0.271 0.23 0.287 0.673 0.263l0.459-0.025-0.008-0.755c-0.008-0.418 0-0.763 0.025-0.763 0.131 0 0.353 0.197 0.353 0.32 0 0.222 0.722 0.886 1.198 1.116 0.369 0.172 0.55 0.205 1.214 0.205 0.427 0 0.804-0.033 0.829-0.082s0.115-0.082 0.197-0.082c0.222 0 0.87-0.5 1.182-0.903 0.304-0.41 0.574-1.182 0.533-1.534l-0.025-0.23-1.633-0.025c-1.789-0.025-1.772-0.025-1.772 0.451 0 0.377 0.172 0.435 1.223 0.435 1.026 0 1.083 0.041 0.64 0.476-0.451 0.443-1.14 0.607-1.707 0.41-0.747-0.254-1.14-0.829-1.14-1.674 0-0.615 0.189-0.993 0.706-1.387 0.287-0.222 0.377-0.246 0.935-0.246 0.574 0 0.648 0.025 0.985 0.263 0.32 0.246 0.418 0.271 0.919 0.271 0.304 0 0.558-0.033 0.558-0.066 0-0.304-0.632-1.026-1.108-1.272-0.878-0.459-2.174-0.386-2.896 0.156-0.41 0.312-0.788 0.738-0.837 0.96-0.025 0.098-0.123 0.189-0.222 0.205-0.164 0.025-0.164 0-0.123-0.714l0.041-0.738-0.312-0.057c-0.172-0.033-0.41-0.025-0.525 0.016l-0.213 0.082v1.575c0.008 0.87-0.008 1.575-0.025 1.575-0.107 0-0.345-0.189-0.345-0.279 0-0.057-0.098-0.254-0.222-0.435-0.312-0.443-0.427-0.624-0.492-0.763-0.025-0.066-0.156-0.254-0.287-0.418-0.123-0.164-0.23-0.328-0.23-0.361s-0.107-0.197-0.246-0.369c-0.131-0.172-0.246-0.353-0.246-0.402 0-0.213-0.763-0.336-1.058-0.172-0.131 0.066-0.148 0.164-0.115 0.738 0.033 0.566 0.016 0.656-0.090 0.656-0.074 0-0.172-0.082-0.205-0.189-0.090-0.222-0.443-0.599-0.837-0.903-0.566-0.427-1.543-0.574-2.33-0.353zM14.95 20.455c0.041 0.082 0.057 0.279 0.025 0.435-0.041 0.222-0.107 0.304-0.353 0.41-0.213 0.090-0.353 0.098-0.476 0.041-0.156-0.066-0.181-0.148-0.172-0.583 0-0.435 0.025-0.517 0.172-0.566 0.222-0.090 0.697 0.066 0.804 0.263zM19.733 20.537c0.197 0.14 0.361 0.295 0.369 0.336 0 0.041 0.066 0.148 0.14 0.23 0.098 0.107 0.131 0.304 0.131 0.747 0 0.5-0.033 0.648-0.213 0.927-0.624 0.993-1.789 1.116-2.609 0.271-0.295-0.304-0.394-0.476-0.459-0.812-0.14-0.706 0.131-1.403 0.697-1.772 0.558-0.361 1.395-0.336 1.945 0.074zM16 21.448c0 0.205-0.098 0.377-0.213 0.377-0.164 0-0.238-0.222-0.115-0.369 0.131-0.156 0.328-0.156 0.328-0.008zM14.991 22.392c0.418 0.345 0.394 0.944-0.041 1.132-0.41 0.189-0.722 0.213-0.853 0.074-0.156-0.148-0.189-1.091-0.049-1.264 0.131-0.156 0.73-0.115 0.944 0.057z"></path>
<path d="M0 22.023v2.593h1.017c1.37 0 1.789-0.107 2.117-0.509 0.23-0.295 0.246-0.361 0.246-0.993v-0.673l-0.353-0.312-0.361-0.32 0.205-0.18c0.23-0.197 0.492-0.689 0.492-0.927-0.008-0.238-0.287-0.788-0.525-1.009-0.222-0.197-0.271-0.205-1.534-0.238l-1.305-0.025v2.593zM2.355 19.955c0.336 0.148 0.517 0.394 0.517 0.747 0 0.697-0.525 0.985-1.723 0.944l-0.697-0.025-0.025-0.771c-0.008-0.427-0.008-0.82 0.016-0.886 0.057-0.14 1.584-0.148 1.912-0.008zM2.445 22.178c0.533 0.287 0.722 0.878 0.468 1.477-0.18 0.427-0.599 0.566-1.641 0.533l-0.821-0.025-0.025-0.976c-0.008-0.542 0-1.034 0.025-1.099 0.066-0.172 1.625-0.098 1.994 0.090z"></path>
<path d="M3.791 19.52c-0.090 0.049-0.098 0.558-0.074 2.503 0.033 2.412 0.074 2.773 0.304 2.544 0.115-0.115 0.074-5.054-0.041-5.095-0.041-0.008-0.131 0.008-0.189 0.049z"></path>
<path d="M4.652 19.504c-0.074 0.066-0.074 4.808-0.008 4.98 0.041 0.115 0.345 0.131 2.568 0.131 2.552 0 2.716-0.016 2.716-0.304 0-0.082-0.181-0.107-0.689-0.107-0.935 0-0.993-0.123-0.312-0.689l0.361-0.295h1.305c1.493 0 1.411-0.041 1.419 0.763 0.008 0.377 0.041 0.509 0.156 0.583s0.164 0.066 0.222-0.033c0.049-0.074 0.074-1.108 0.057-2.585-0.016-2.191-0.033-2.462-0.148-2.486-0.156-0.033-0.656 0.459-2.158 2.117-1.058 1.165-2.453 2.626-2.503 2.626-0.263-0.008-0.279-0.14-0.263-2.355 0.016-1.945 0-2.224-0.115-2.322-0.279-0.23-0.312 0-0.295 2.24 0.016 1.904 0 2.183-0.115 2.306-0.107 0.098-0.304 0.131-0.862 0.131-0.402 0-0.779-0.025-0.853-0.049-0.115-0.041-0.131-0.328-0.131-2.33s-0.016-2.289-0.131-2.33c-0.156-0.057-0.156-0.057-0.222 0.008zM12.070 21.481c-0.016 0.673-0.057 1.255-0.107 1.305-0.057 0.074-0.394 0.107-1.14 0.107-0.985 0-1.058-0.008-1.058-0.156 0-0.082 0.057-0.205 0.139-0.263 0.148-0.123 1.575-1.764 1.756-2.018 0.115-0.164 0.328-0.279 0.394-0.213 0.025 0.016 0.033 0.574 0.016 1.239z"></path>
<path d="M30.892 23.811c-0.049 0.131-0.074 0.386-0.057 0.615 0.016 0.172 0.057 0.189 0.459 0.189 0.328 0 0.451-0.033 0.492-0.131 0.025-0.066 0.082-0.098 0.131-0.074 0.049 0.033 0.082-0.057 0.082-0.222 0-0.32-0.246-0.476-0.755-0.476-0.18 0-0.336 0.041-0.353 0.098z"></path>
</svg>
