<!-- Generated by IcoMoon.io -->
<svg version="1.1" xmlns="http://www.w3.org/2000/svg" width="32" height="32" viewBox="0 0 32 32">
<path d="M28.469 2.091c-0.997 0.155-0.107-0.672-11.509 10.624-7.387 7.317-7.099 7.051-7.787 7.125-2.853 0.293-4.395 1.499-5.493 4.277-0.613 1.547-1.285 2.128-2.875 2.491l-0.741 0.171 0.475 0.459c2.539 2.464 5.819 3.323 9.003 2.357 3.072-0.933 4.645-2.715 4.645-5.248v-0.688l1.413-1.371c7.328-7.093 15.867-15.68 16.075-16.171 0.949-2.208-0.795-4.4-3.205-4.027zM29.675 4.197c0.816 0.736 1.147 0.331-6.107 7.504-3.547 3.504-6.475 6.373-6.507 6.379-0.091 0-1.381-1.28-1.371-1.365 0.021-0.128 12.555-12.437 12.869-12.635 0.416-0.267 0.72-0.229 1.115 0.117zM14.64 20.56l-1.045 1.045-0.731-0.709-0.731-0.704 2.101-2.112 1.445 1.435-1.040 1.045zM11.477 22.267c1.099 1.099 1.307 2.192 0.635 3.328-1.275 2.176-6.491 3.403-8.384 1.973l-0.245-0.187 0.581-0.64c0.373-0.416 0.784-1.051 1.147-1.792 1.136-2.299 2.683-3.349 5.077-3.44 0.384-0.016 0.475 0.043 1.189 0.757z"></path>
</svg>
