<!-- Generated by IcoMoon.io -->
<svg version="1.1" xmlns="http://www.w3.org/2000/svg" width="32" height="32" viewBox="0 0 32 32">
<path d="M1.907 13.528c0 0.042-0.085 0.106-0.191 0.148-0.417 0.17-0.636 0.304-0.961 0.622-0.509 0.48-0.756 1.074-0.756 1.808 0 0.862 0.339 1.568 0.968 2.020 0.572 0.41 0.608 0.417 1.604 0.41 0.784 0 0.961-0.021 1.137-0.141 0.12-0.071 0.276-0.162 0.353-0.198 0.162-0.071 0.671-0.664 0.671-0.777 0-0.042-0.106-0.078-0.226-0.078-0.177 0-0.311 0.078-0.544 0.297-0.452 0.431-0.763 0.551-1.427 0.551-0.431 0-0.629-0.035-0.855-0.148-0.297-0.148-0.904-0.728-0.904-0.862 0-0.042-0.042-0.127-0.099-0.184-0.049-0.064-0.127-0.283-0.162-0.487-0.141-0.749 0.191-1.596 0.827-2.084 0.353-0.268 0.876-0.473 1.194-0.473 0.389 0 0.918 0.233 1.392 0.607 0.487 0.389 0.706 0.466 0.777 0.275 0.085-0.212-0.876-1.088-1.187-1.095-0.071 0-0.191-0.064-0.268-0.141-0.12-0.12-0.233-0.141-0.742-0.141-0.36 0-0.6 0.028-0.6 0.071z"></path>
<path d="M22.358 13.528c0.021 0.042-0.035 0.099-0.134 0.141-0.233 0.085-0.346 0.205-0.89 0.918-0.247 0.325-0.502 0.643-0.558 0.713-0.064 0.064-0.254 0.311-0.431 0.544-0.177 0.24-0.36 0.431-0.41 0.431-0.071 0.007-0.085-0.261-0.085-1.236 0.007-1.038-0.007-1.264-0.099-1.356-0.085-0.092-0.127-0.092-0.219-0.014s-0.106 0.381-0.092 2.465l0.021 2.373h0.177c0.17 0 0.177-0.014 0.212-0.636 0.028-0.565 0.064-0.678 0.268-1.010 0.141-0.219 0.29-0.367 0.36-0.367s0.219 0.134 0.332 0.297c0.113 0.17 0.219 0.318 0.24 0.339 0.106 0.099 0.494 0.629 0.494 0.671s0.155 0.226 0.516 0.608c0.064 0.078 0.198 0.134 0.297 0.134 0.212 0 0.318-0.198 0.17-0.311-0.092-0.071-1.505-1.914-1.639-2.14-0.035-0.049 0.148-0.346 0.452-0.742 0.657-0.841 1.067-1.342 1.173-1.434 0.113-0.092 0.035-0.459-0.099-0.459-0.056 0-0.078 0.035-0.056 0.071z"></path>
<path d="M9.332 13.697c-0.056 0.064-0.078 0.77-0.064 2.451 0.021 2.232 0.028 2.359 0.155 2.381 0.071 0.014 0.155 0 0.198-0.042 0.106-0.106 0.092-4.655-0.014-4.782-0.106-0.134-0.17-0.134-0.275-0.007z"></path>
<path d="M13.542 13.718c-0.028 0.021-0.049 0.184-0.049 0.353 0 0.332 0.134 0.459 0.346 0.325 0.127-0.078 0.162-0.494 0.056-0.643-0.071-0.092-0.275-0.113-0.353-0.035z"></path>
<path d="M22.902 13.754c-0.064 0.064-0.085 0.678-0.085 2.317 0 2.169 0.007 2.239 0.148 2.373 0.106 0.099 0.17 0.113 0.261 0.049 0.106-0.064 0.12-0.304 0.141-2.388 0.007-1.801-0.007-2.338-0.071-2.381-0.134-0.078-0.297-0.071-0.396 0.028z"></path>
<path d="M27.875 13.775c-0.148 0.389 0.056 0.805 0.318 0.664 0.113-0.056 0.134-0.134 0.12-0.403-0.021-0.297-0.042-0.332-0.205-0.353-0.12-0.014-0.205 0.021-0.233 0.092z"></path>
<path d="M6.252 14.919c-0.389 0.155-0.855 0.544-1.074 0.897-0.162 0.247-0.191 0.367-0.191 0.855 0 0.445 0.028 0.629 0.155 0.862 0.184 0.36 0.699 0.869 0.869 0.869 0.071 0 0.148 0.028 0.17 0.071 0.064 0.099 1.123 0.085 1.356-0.014 0.106-0.049 0.268-0.162 0.346-0.247 0.198-0.212 0.297-0.205 0.325 0.021 0.028 0.268 0.247 0.389 0.381 0.212 0.155-0.212 0.148-3.306-0.014-3.461-0.162-0.162-0.41-0.021-0.36 0.212 0.049 0.254-0.071 0.275-0.304 0.056-0.438-0.417-1.116-0.551-1.66-0.332zM7.361 15.371c0.184 0.092 0.41 0.29 0.572 0.502 0.247 0.339 0.261 0.389 0.254 0.862 0 0.452-0.028 0.537-0.233 0.819-0.403 0.558-1.060 0.77-1.653 0.523-0.276-0.113-0.65-0.431-0.65-0.551 0-0.035-0.049-0.12-0.113-0.191-0.078-0.085-0.113-0.268-0.113-0.622 0-0.459 0.021-0.516 0.261-0.834 0.466-0.615 1.081-0.798 1.674-0.509z"></path>
<path d="M15.527 14.94c-0.141 0.078-0.283 0.17-0.304 0.212-0.071 0.12-0.212 0.078-0.283-0.085-0.085-0.177-0.177-0.219-0.304-0.141-0.071 0.049-0.092 0.452-0.092 1.78 0 0.968 0.028 1.745 0.071 1.787 0.035 0.035 0.12 0.049 0.191 0.035 0.12-0.021 0.134-0.127 0.17-1.293 0.035-1.18 0.049-1.286 0.198-1.498 0.473-0.664 1.187-0.678 1.702-0.028l0.219 0.275v1.201c0 1.003 0.021 1.215 0.113 1.293 0.078 0.064 0.141 0.071 0.226 0.014 0.106-0.064 0.12-0.233 0.12-1.335 0-1.123-0.014-1.286-0.134-1.476-0.24-0.374-0.494-0.607-0.812-0.749-0.389-0.17-0.749-0.17-1.081 0.007z"></path>
<path d="M24.936 14.926c-0.17 0.064-0.473 0.283-0.671 0.473-0.593 0.6-0.763 1.377-0.424 2.013 0.099 0.177 0.191 0.367 0.212 0.424 0.049 0.127 0.544 0.494 0.834 0.615 0.261 0.113 1.187 0.12 1.441 0.007 0.318-0.141 0.629-0.396 0.834-0.692 0.353-0.509-0.042-0.6-0.516-0.113-0.424 0.438-0.721 0.565-1.194 0.516-0.374-0.042-0.749-0.247-0.996-0.544-0.148-0.184-0.304-0.586-0.24-0.65 0.028-0.028 0.77-0.064 1.639-0.071l1.589-0.021 0.021-0.283c0.085-1.116-1.413-2.105-2.529-1.674zM26.158 15.357c0.339 0.155 0.615 0.431 0.749 0.77 0.085 0.205 0.085 0.247 0 0.304-0.056 0.035-0.664 0.064-1.356 0.064-1.349 0-1.392-0.014-1.257-0.36 0.099-0.261 0.473-0.643 0.77-0.784 0.346-0.162 0.728-0.162 1.095 0.007z"></path>
<path d="M29.951 14.926c-0.134 0.064-0.276 0.162-0.304 0.205-0.085 0.134-0.247 0.113-0.332-0.056-0.049-0.092-0.134-0.134-0.233-0.12-0.155 0.021-0.155 0.035-0.177 1.646-0.007 0.89 0 1.695 0.021 1.787 0.042 0.17 0.24 0.205 0.374 0.071 0.056-0.056 0.085-0.445 0.085-1.264 0-1.356 0.071-1.575 0.572-1.83 0.516-0.268 1.017-0.113 1.37 0.41 0.17 0.247 0.177 0.304 0.177 1.427 0 1.243 0.028 1.342 0.332 1.342h0.162v-1.413c0-1.038-0.021-1.406-0.085-1.392-0.042 0.007-0.12-0.056-0.162-0.148-0.233-0.438-0.819-0.798-1.3-0.784-0.141 0-0.367 0.056-0.502 0.12z"></path>
<path d="M10.017 14.919c-0.155 0.035-0.162 0.254-0.021 0.374 0.056 0.049 0.106 0.148 0.106 0.226s0.042 0.226 0.099 0.325c0.127 0.254 0.29 0.615 0.431 1.003 0.113 0.304 0.226 0.572 0.424 1.024 0.056 0.113 0.113 0.276 0.134 0.36 0.056 0.177 0.346 0.346 0.494 0.29 0.106-0.042 0.177-0.184 0.424-0.791 0.134-0.325 0.325-0.756 0.438-0.975 0.056-0.113 0.099-0.247 0.099-0.311 0-0.056 0.042-0.191 0.092-0.29 0.056-0.106 0.148-0.297 0.212-0.424 0.064-0.134 0.12-0.297 0.12-0.367s0.035-0.155 0.071-0.177c0.127-0.078 0.078-0.247-0.078-0.247-0.226 0-0.417 0.134-0.417 0.29 0 0.085-0.042 0.233-0.092 0.332-0.092 0.184-0.247 0.516-0.438 0.968-0.127 0.311-0.29 0.749-0.36 0.989-0.085 0.283-0.381 0.346-0.381 0.085 0-0.099-0.049-0.276-0.106-0.396s-0.155-0.318-0.212-0.438c-0.056-0.12-0.106-0.261-0.106-0.311s-0.056-0.198-0.12-0.332c-0.064-0.127-0.155-0.318-0.212-0.424-0.049-0.099-0.092-0.24-0.092-0.318 0-0.106-0.318-0.537-0.374-0.509-0.007 0.007-0.071 0.021-0.134 0.042z"></path>
<path d="M13.57 14.969c-0.056 0.064-0.078 0.607-0.064 1.815 0.021 1.611 0.028 1.724 0.155 1.745 0.071 0.014 0.155 0 0.198-0.042 0.035-0.035 0.064-0.791 0.064-1.78 0-1.335-0.021-1.731-0.092-1.773-0.127-0.085-0.17-0.078-0.261 0.035z"></path>
<path d="M27.952 14.976c-0.085 0.078-0.106 0.396-0.106 1.71 0 0.883 0.028 1.667 0.064 1.731 0.085 0.155 0.318 0.162 0.374 0.014 0.021-0.064 0.042-0.855 0.042-1.759 0-1.561-0.007-1.66-0.134-1.731-0.106-0.049-0.162-0.042-0.24 0.035z"></path>
</svg>
