<!-- Generated by IcoMoon.io -->
<svg version="1.1" xmlns="http://www.w3.org/2000/svg" width="32" height="32" viewBox="0 0 32 32">
<path d="M14.093 6.343c0.009 0.057-0.132 0.151-0.312 0.198-0.755 0.198-1.586 0.557-2.077 0.906-1.501 1.067-2.275 2.105-2.889 3.88-0.255 0.746-0.255 3.030 0 3.776 0.189 0.557 0.406 1.086 0.538 1.322 0.047 0.076 0.123 0.227 0.17 0.33 0.179 0.378 1.019 1.331 1.614 1.812 0.963 0.774 1.841 1.171 3.068 1.397 0.944 0.179 1.491 0.179 2.454 0.009 1.652-0.293 3.058-1.114 4.153-2.426 0.293-0.349 0.746-1.048 0.85-1.312 0.038-0.076 0.113-0.274 0.179-0.425 0.349-0.802 0.463-1.435 0.463-2.596 0-1.312-0.208-2.256-0.708-3.115-0.038-0.076-0.104-0.208-0.142-0.283-0.151-0.349-1.076-1.435-1.586-1.878-0.632-0.548-2.058-1.274-2.662-1.378-0.255-0.038-0.406-0.113-0.406-0.198 0-0.104-0.255-0.132-1.369-0.132-0.991 0-1.359 0.028-1.34 0.113zM17.567 7.74c0.378 0.151 0.906 0.434 1.18 0.614 0.472 0.33 1.444 1.293 1.576 1.567 0.038 0.076 0.151 0.255 0.255 0.415 0.104 0.151 0.208 0.349 0.245 0.425 0.028 0.076 0.094 0.245 0.151 0.378 0.179 0.444 0.359 1.463 0.359 2.077 0 0.868-0.33 2.284-0.623 2.652-0.057 0.076-0.132 0.198-0.17 0.274-0.321 0.689-1.218 1.614-2.086 2.143-0.302 0.189-1.010 0.5-1.123 0.5-0.057 0-0.274 0.066-0.481 0.142-0.236 0.085-0.755 0.132-1.369 0.132-1.444 0.009-2.501-0.359-3.681-1.265-0.5-0.387-1.274-1.274-1.444-1.652-0.038-0.076-0.104-0.208-0.142-0.283-0.746-1.293-0.859-3.398-0.255-4.767 0.076-0.16 0.151-0.349 0.179-0.425 0.255-0.67 1.397-1.945 2.181-2.426 1.086-0.67 1.992-0.887 3.502-0.821 0.897 0.028 1.161 0.085 1.746 0.321z"></path>
<path d="M15.264 9.317c-0.038 0.028-0.066 0.179-0.066 0.321 0 0.151-0.057 0.406-0.132 0.576s-0.227 0.604-0.34 0.972c-0.113 0.359-0.255 0.689-0.312 0.727-0.066 0.038-0.736 0.076-1.501 0.076-0.774 0-1.397 0.038-1.397 0.076 0 0.076 0.661 0.585 1.048 0.821 0.094 0.047 0.396 0.264 0.699 0.472 0.491 0.349 0.529 0.396 0.491 0.708-0.019 0.179-0.085 0.472-0.151 0.632-0.264 0.774-0.321 0.944-0.359 1.18-0.028 0.142-0.104 0.311-0.179 0.368-0.16 0.132-0.17 0.463-0.009 0.463 0.066 0 0.321-0.16 0.557-0.359 0.982-0.774 1.68-1.246 1.869-1.246 0.104 0 0.68 0.368 1.274 0.812 0.604 0.453 1.114 0.793 1.152 0.765 0.057-0.066-0.16-0.802-0.595-1.954-0.311-0.84-0.311-0.84 0.595-1.52 0.463-0.34 0.972-0.699 1.142-0.793 0.585-0.349 0.415-0.415-1.123-0.444-1.567-0.028-1.454 0.019-1.718-0.689-0.293-0.812-0.444-1.331-0.444-1.567 0-0.349-0.312-0.595-0.5-0.396z"></path>
<path d="M0.472 22.438c-0.387 0.142-0.472 0.406-0.472 1.652 0 0.717 0.047 1.293 0.113 1.444 0.104 0.236 0.113 0.236 1.312 0.236 1.010 0 1.208-0.028 1.255-0.151 0.104-0.274-0.038-0.321-0.878-0.321-0.604 0-0.868-0.038-0.944-0.132-0.076-0.085-0.104-0.472-0.085-1.104l0.028-0.982 0.887-0.047c0.689-0.038 0.906-0.085 0.982-0.208 0.076-0.113 0.066-0.198-0.019-0.302-0.104-0.123-0.321-0.151-1.086-0.142-0.519 0-1.019 0.028-1.095 0.057z"></path>
<path d="M4.163 22.494c-0.142 0.066-0.264 0.245-0.321 0.434-0.123 0.5-0.047 2.501 0.113 2.681 0.104 0.132 0.33 0.16 1.388 0.16 1.529 0 1.473 0.057 1.482-1.501 0-1.369-0.066-1.69-0.378-1.812-0.34-0.123-2.011-0.104-2.284 0.038zM6.117 24.061c0.019 0.632-0.009 1.019-0.085 1.104-0.132 0.16-1.048 0.179-1.322 0.038-0.16-0.094-0.179-0.208-0.179-1.019 0-0.614 0.038-0.963 0.113-1.038 0.085-0.085 0.349-0.113 0.783-0.094l0.661 0.028 0.028 0.982z"></path>
<path d="M8.061 22.485c-0.047 0.066-0.076 0.831-0.057 1.699l0.028 1.586h0.321c0.378 0 0.349 0.113 0.33-1.397-0.009-0.708 0.019-1.114 0.094-1.208 0.142-0.17 1.086-0.179 1.189-0.019 0.038 0.066 0.066 0.68 0.047 1.369l-0.028 1.255h0.774v-1.463c0-1.435-0.009-1.473-0.236-1.699-0.217-0.227-0.283-0.236-1.303-0.236-0.755 0-1.104 0.038-1.161 0.113z"></path>
<path d="M11.771 22.494c-0.028 0.066 0.019 0.293 0.094 0.491 0.076 0.208 0.17 0.529 0.217 0.708 0.038 0.179 0.123 0.453 0.179 0.614 0.057 0.151 0.189 0.538 0.283 0.85l0.189 0.566 1.284 0.057 0.123-0.359c0.066-0.198 0.16-0.491 0.208-0.642 0.038-0.16 0.123-0.415 0.179-0.566 0.396-1.133 0.557-1.69 0.519-1.765-0.085-0.132-0.67-0.085-0.793 0.066-0.066 0.085-0.151 0.302-0.189 0.5-0.047 0.189-0.123 0.472-0.17 0.632-0.057 0.151-0.179 0.538-0.283 0.85-0.094 0.311-0.217 0.566-0.255 0.566-0.076 0-0.208-0.387-0.425-1.274-0.16-0.642-0.33-1.18-0.406-1.303-0.104-0.151-0.689-0.151-0.755 0.009z"></path>
<path d="M16.293 22.57c-0.245 0.189-0.245 0.198-0.245 1.586 0 0.953 0.038 1.425 0.113 1.501s0.481 0.113 1.218 0.113c0.925 0 1.114-0.028 1.161-0.151 0.104-0.264-0.038-0.321-0.793-0.321-0.547 0-0.783-0.038-0.887-0.151-0.378-0.378-0.094-0.604 0.746-0.604 0.774 0 1.048-0.132 0.953-0.453-0.066-0.189-0.132-0.208-0.793-0.208-0.396 0-0.774-0.038-0.831-0.076-0.17-0.113-0.236-0.396-0.132-0.585 0.085-0.151 0.227-0.189 0.868-0.208 0.585-0.019 0.783-0.066 0.859-0.189 0.076-0.113 0.066-0.198-0.019-0.302-0.104-0.123-0.321-0.151-1.048-0.151-0.783 0-0.953 0.028-1.171 0.198z"></path>
<path d="M19.965 22.466c-0.047 0.085-0.094 2.511-0.057 3.209 0.009 0.047 0.16 0.094 0.34 0.094h0.33v-0.463c0-0.651 0.066-0.765 0.415-0.765 0.255 0 0.321 0.057 0.519 0.444 0.113 0.255 0.245 0.519 0.293 0.595 0.066 0.142 0.85 0.264 0.85 0.132 0-0.038-0.113-0.293-0.255-0.566l-0.245-0.491 0.293-0.302c0.274-0.274 0.302-0.349 0.302-0.878 0-0.434-0.057-0.651-0.189-0.821-0.17-0.227-0.227-0.236-1.35-0.264-0.821-0.028-1.199 0-1.246 0.076zM21.947 23.457v0.378l-0.547 0.028c-0.604 0.028-0.821-0.076-0.821-0.396 0-0.349 0.189-0.444 0.802-0.415l0.566 0.028v0.378z"></path>
<path d="M24.222 22.57c-0.227 0.179-0.245 0.255-0.245 0.878 0 0.906 0.123 1.019 1.067 1.067 0.51 0.019 0.708 0.066 0.802 0.189 0.132 0.189 0.142 0.217 0.019 0.406-0.066 0.104-0.33 0.151-1.010 0.189-0.868 0.047-0.925 0.057-0.953 0.255-0.028 0.217-0.028 0.217 1.237 0.217s1.265 0 1.369-0.236c0.189-0.406 0.142-1.123-0.085-1.407-0.179-0.227-0.255-0.245-0.84-0.245-0.68 0-0.944-0.132-0.944-0.463 0-0.302 0.208-0.387 0.963-0.387 0.642 0 0.746-0.028 0.831-0.198 0.198-0.368-0.019-0.463-1.038-0.463-0.783 0-0.953 0.028-1.171 0.198z"></path>
<path d="M28.186 22.57c-0.245 0.189-0.245 0.198-0.245 1.586 0 0.953 0.038 1.425 0.113 1.501s0.481 0.113 1.218 0.113c0.925 0 1.114-0.028 1.161-0.151 0.104-0.264-0.038-0.321-0.793-0.321-0.651 0-0.765-0.028-0.887-0.208-0.104-0.142-0.113-0.245-0.047-0.378 0.076-0.142 0.208-0.17 0.774-0.17 0.793 0 1.067-0.132 0.972-0.453-0.066-0.189-0.132-0.208-0.793-0.208-0.396 0-0.783-0.038-0.85-0.085-0.076-0.047-0.113-0.208-0.094-0.396l0.028-0.321 0.793-0.047c0.604-0.038 0.812-0.085 0.887-0.208 0.076-0.113 0.066-0.198-0.019-0.302-0.104-0.123-0.321-0.151-1.048-0.151-0.783 0-0.953 0.028-1.171 0.198z"></path>
<path d="M31.254 22.872c-0.113 0.142-0.047 0.255 0.151 0.255 0.066 0 0.123-0.085 0.123-0.189 0-0.217-0.123-0.245-0.274-0.066z"></path>
</svg>
