<!-- Generated by IcoMoon.io -->
<svg version="1.1" xmlns="http://www.w3.org/2000/svg" width="32" height="32" viewBox="0 0 32 32">
<path d="M13.013 1.493c0 1.701 0.16 1.477-1.227 1.717-9.909 1.691-14.997 13.701-9.408 22.203 6.085 9.259 20.133 8.523 24.992-1.312l0.357-0.725 0.933 0.261c1.413 0.395 1.301 0.427 1.808-0.533 3.136-6.021 1.248-14.235-4.357-18.917-3.392-2.837-7.125-4.176-11.632-4.187h-1.467v1.493zM18.336 2.405c4.779 1.211 8.779 4.672 10.576 9.157 1.264 3.163 1.259 6.837-0.005 9.349-0.379 0.741-0.315 0.731-1.547 0.304-0.528-0.181-3.141-1.072-5.813-1.984-2.667-0.907-5.237-1.787-5.707-1.947l-0.853-0.293-0.053-14.997 1.147 0.064c0.672 0.043 1.605 0.181 2.256 0.347zM13.013 11.717v6.704l4.293 1.499c2.363 0.827 5.2 1.819 6.309 2.203s2.037 0.725 2.064 0.747c0.027 0.027-0.144 0.405-0.373 0.837-3.413 6.4-12.299 8.251-18.261 3.808-7.451-5.552-6.416-16.805 1.947-21.216 1.067-0.56 3.088-1.227 3.888-1.275 0.107-0.011 0.133 1.397 0.133 6.693z"></path>
</svg>
