<!-- Generated by IcoMoon.io -->
<svg version="1.1" xmlns="http://www.w3.org/2000/svg" width="32" height="32" viewBox="0 0 32 32">
<path d="M10.933 4.747c-1.92 0.853-4.053 2.667-5.973 5.067-1.707 2.080-2.987 8.907-1.813 9.6 0.213 0.16 0.587 0.96 0.747 1.76 0.373 1.76 3.253 4.96 6.187 6.827 1.707 1.067 2.88 1.333 5.387 1.333 4.96 0 9.227-3.040 11.893-8.48 1.067-2.133 1.173-6.507 0.267-8.213-1.973-3.52-3.52-5.333-6.027-7.040-2.4-1.547-3.307-1.867-5.707-1.813-1.547 0-3.787 0.48-4.96 0.96zM20.693 7.787c0.64 0.427 1.173 0.96 1.173 1.227 0 0.64-3.36 2.72-4.373 2.72-0.907 0-3.733-4.16-3.307-4.853s4.96-0.053 6.507 0.907zM12.64 9.333c2.027 3.2 1.867 3.68-1.44 4.053-1.6 0.213-3.307 0.533-3.787 0.693-0.587 0.267-1.013 0.053-1.227-0.48-0.48-1.227 3.413-5.973 5.013-6.080 0.16 0 0.8 0.8 1.44 1.813zM24.213 11.52c0.48 0.427 0.853 1.653 0.853 2.667 0 1.813 0 1.813-2.24 1.707-1.28-0.053-2.613 0-2.987 0.16-0.427 0.107-0.96-0.32-1.227-1.013-0.373-1.013-0.267-1.28 0.747-1.653 0.64-0.267 1.653-0.96 2.187-1.6 1.227-1.333 1.6-1.387 2.667-0.267zM16.267 15.413c0.267 0.533-2.4 2.72-3.36 2.72-0.32 0-1.493 1.067-2.667 2.4l-2.080 2.347-1.173-1.173c-0.693-0.8-1.12-1.92-1.12-3.2v-1.973h2.56c1.387-0.053 3.093-0.373 3.84-0.8 1.547-0.853 3.52-1.013 4-0.32zM24.907 18.987c0.16 0.48 0.053 1.28-0.267 1.76-0.373 0.48-0.853 1.387-1.173 2.027-0.267 0.693-0.96 1.227-1.493 1.227-0.8 0-1.173-0.587-1.547-2.667-0.32-1.44-0.427-2.773-0.267-2.933s1.227-0.267 2.347-0.267c1.44 0 2.187 0.267 2.4 0.853zM17.76 20.373c0.427 0.96 0.907 2.56 1.013 3.573 0.16 1.653 0 1.867-1.387 2.24-2.027 0.587-6.080 0-7.040-0.96-0.8-0.853-1.013-1.76-0.32-1.76 0.213 0 1.12-0.64 1.973-1.493 1.707-1.547 4.053-3.253 4.587-3.253 0.213-0.053 0.747 0.747 1.173 1.653z"></path>
</svg>
