<!-- Generated by IcoMoon.io -->
<svg version="1.1" xmlns="http://www.w3.org/2000/svg" width="32" height="32" viewBox="0 0 32 32">
<path d="M12.853 5.12c-0.747 0.96-1.12 2.187-1.12 3.787 0 2.027-0.16 2.4-1.387 2.827-1.067 0.427-1.333 0.853-1.173 2.027 0.107 0.853 0.64 1.653 1.333 1.973 1.6 0.693 1.653 0.907 1.173 6.347-0.267 2.613-0.32 4.96-0.16 5.173 0.16 0.267 1.493 0.48 2.933 0.48h2.72l-0.373-4.96c-0.533-7.093-0.64-6.667 1.6-7.093 1.707-0.32 1.867-0.48 1.867-2.133 0-1.707-0.107-1.813-1.867-1.813-3.36 0-3.147-3.307 0.213-3.627 1.547-0.16 1.653-0.32 1.653-2.293v-2.080h-3.147c-2.773 0-3.307 0.16-4.267 1.387z"></path>
</svg>
