<!-- Generated by IcoMoon.io -->
<svg version="1.1" xmlns="http://www.w3.org/2000/svg" width="32" height="32" viewBox="0 0 32 32">
<path d="M6.432 0.040c0 0.043-0.087 0.075-0.214 0.075-0.093 0-0.353 0.069-0.503 0.133-0.052 0.023-0.116 0.040-0.139 0.040-0.040 0-0.564 0.246-0.691 0.327-0.477 0.298-1.038 0.859-1.335 1.335-0.084 0.13-0.327 0.65-0.327 0.694 0 0.026-0.014 0.072-0.032 0.104-0.040 0.081-0.107 0.318-0.147 0.546-0.052 0.272-0.052 25.195 0 25.467 0.040 0.228 0.107 0.465 0.147 0.546 0.017 0.032 0.032 0.078 0.032 0.104 0 0.043 0.243 0.564 0.327 0.694 0.298 0.477 0.859 1.038 1.335 1.335 0.13 0.084 0.65 0.327 0.694 0.327 0.026 0 0.072 0.014 0.104 0.032 0.081 0.040 0.318 0.107 0.546 0.147 0.272 0.052 19.212 0.052 19.483 0 0.228-0.040 0.465-0.107 0.546-0.147 0.032-0.017 0.078-0.032 0.104-0.032 0.043 0 0.564-0.243 0.694-0.327 0.477-0.298 1.038-0.859 1.335-1.335 0.081-0.127 0.327-0.65 0.327-0.691 0-0.023 0.017-0.087 0.040-0.139 0.064-0.15 0.133-0.41 0.133-0.503 0-0.127 0.032-0.214 0.075-0.214 0.035 0 0.040-1.882 0.040-12.531s-0.006-12.531-0.040-12.531c-0.043 0-0.075-0.087-0.075-0.214 0-0.092-0.069-0.353-0.133-0.503-0.023-0.052-0.040-0.116-0.040-0.139 0-0.040-0.246-0.564-0.327-0.691-0.298-0.477-0.859-1.038-1.335-1.335-0.127-0.081-0.65-0.327-0.691-0.327-0.023 0-0.087-0.017-0.139-0.040-0.15-0.064-0.41-0.133-0.503-0.133-0.127 0-0.214-0.032-0.214-0.075 0-0.035-1.437-0.040-9.539-0.040s-9.539 0.006-9.539 0.040zM25.351 2.067c0.064 0.023 0.145 0.043 0.179 0.043 0.101 0 0.439 0.173 0.668 0.341 0.124 0.095 0.263 0.234 0.358 0.358 0.168 0.228 0.341 0.567 0.341 0.668 0 0.035 0.020 0.116 0.043 0.179 0.035 0.101 0.040 1.775 0.043 12.361 0 10.814-0.006 12.259-0.043 12.369-0.023 0.067-0.043 0.156-0.043 0.194 0 0.040-0.017 0.107-0.040 0.147-0.020 0.043-0.064 0.13-0.093 0.194-0.104 0.223-0.361 0.532-0.569 0.685-0.225 0.168-0.564 0.341-0.665 0.341-0.035 0-0.116 0.020-0.179 0.043-0.173 0.061-18.587 0.061-18.761 0-0.064-0.023-0.147-0.043-0.182-0.043-0.038 0-0.104-0.017-0.145-0.040-0.043-0.020-0.13-0.064-0.194-0.093-0.335-0.156-0.737-0.558-0.893-0.893-0.029-0.064-0.072-0.15-0.093-0.194-0.023-0.040-0.040-0.107-0.040-0.147 0-0.038-0.020-0.127-0.043-0.194-0.038-0.11-0.043-1.555-0.043-12.369 0.003-10.586 0.009-12.259 0.043-12.361 0.023-0.064 0.043-0.145 0.043-0.179 0-0.101 0.173-0.439 0.341-0.665 0.153-0.208 0.463-0.465 0.685-0.569 0.064-0.029 0.15-0.072 0.194-0.092 0.040-0.023 0.107-0.040 0.145-0.040 0.035 0 0.119-0.020 0.182-0.043 0.173-0.061 18.587-0.061 18.761 0z"></path>
<path d="M8.872 4.035c-0.017 0.009-0.133 0.032-0.26 0.052-0.367 0.064-0.546 0.142-0.867 0.379-0.124 0.093-0.26 0.231-0.35 0.35-0.228 0.315-0.318 0.515-0.361 0.821-0.014 0.104-0.040 0.234-0.055 0.289-0.017 0.064-0.023 2.295-0.017 6.157 0.012 6.229 0.014 6.368 0.121 6.568 0.023 0.040 0.043 0.095 0.043 0.121 0 0.061 0.197 0.384 0.335 0.555 0.101 0.124 0.376 0.353 0.474 0.396 0.023 0.012 0.095 0.052 0.159 0.093 0.064 0.038 0.142 0.069 0.173 0.072 0.032 0 0.098 0.023 0.145 0.052 0.081 0.046 0.506 0.049 7.559 0.049s7.478-0.003 7.559-0.049c0.049-0.029 0.113-0.052 0.145-0.052 0.032-0.003 0.11-0.035 0.173-0.072 0.064-0.040 0.136-0.081 0.159-0.093 0.098-0.043 0.373-0.272 0.474-0.396 0.139-0.171 0.335-0.494 0.335-0.555 0-0.026 0.020-0.081 0.043-0.121 0.11-0.202 0.113-0.321 0.11-6.611 0-6.305 0-6.423-0.113-6.64-0.023-0.043-0.040-0.098-0.040-0.121 0-0.026-0.040-0.113-0.093-0.197-0.332-0.549-0.778-0.882-1.309-0.98-0.078-0.017-0.208-0.040-0.283-0.055-0.139-0.029-14.193-0.038-14.26-0.012zM22.258 6.073c0.309 0.11 0.549 0.335 0.671 0.633 0.049 0.124 0.052 0.396 0.058 5.261 0.009 4.628 0.006 5.145-0.038 5.29-0.023 0.087-0.058 0.179-0.072 0.202s-0.038 0.069-0.052 0.101c-0.069 0.153-0.358 0.361-0.613 0.445-0.147 0.046-12.335 0.046-12.482 0-0.254-0.084-0.543-0.292-0.613-0.445-0.014-0.032-0.038-0.078-0.052-0.101s-0.049-0.116-0.072-0.202c-0.043-0.145-0.046-0.662-0.038-5.29 0.006-4.845 0.009-5.137 0.058-5.258 0.119-0.295 0.358-0.526 0.656-0.633 0.156-0.058 0.249-0.058 6.287-0.061l6.131-0.003 0.171 0.061z"></path>
<path d="M9.545 22.14c-0.194 0.095-0.252 0.142-0.384 0.327-0.15 0.205-0.185 0.382-0.185 0.965 0 0.295-0.012 0.529-0.029 0.564-0.029 0.052-0.066 0.055-0.621 0.055-0.575 0-0.595 0.003-0.749 0.075-0.289 0.136-0.503 0.376-0.552 0.619-0.009 0.055-0.035 0.142-0.052 0.194-0.038 0.107 0.032 0.405 0.133 0.572 0.139 0.234 0.286 0.356 0.543 0.448 0.133 0.049 0.231 0.058 0.705 0.058 0.39 0 0.564 0.012 0.587 0.035s0.035 0.194 0.035 0.572c0 0.546 0.020 0.674 0.133 0.893 0.058 0.116 0.249 0.312 0.338 0.35 0.035 0.017 0.084 0.040 0.107 0.055 0.058 0.035 0.353 0.119 0.419 0.119s0.361-0.084 0.419-0.119c0.023-0.014 0.069-0.038 0.101-0.055 0.084-0.040 0.168-0.116 0.263-0.246 0.179-0.237 0.185-0.272 0.185-0.937v-0.61l0.075-0.029c0.040-0.017 0.304-0.029 0.584-0.029 0.312-0.003 0.561-0.017 0.642-0.038 0.185-0.052 0.384-0.188 0.497-0.338 0.168-0.225 0.197-0.321 0.197-0.627 0-0.257-0.006-0.292-0.090-0.436-0.11-0.194-0.283-0.358-0.483-0.454-0.147-0.069-0.171-0.072-0.743-0.072-0.497 0-0.595-0.006-0.633-0.046-0.040-0.038-0.046-0.139-0.046-0.656l-0.003-0.613-0.078-0.133c-0.104-0.176-0.171-0.254-0.309-0.358-0.202-0.153-0.309-0.188-0.587-0.188-0.214 0.003-0.275 0.014-0.419 0.084z"></path>
<path d="M18.573 22.128c-0.072 0.038-0.15 0.078-0.173 0.090-0.058 0.026-0.231 0.214-0.263 0.286-0.014 0.032-0.038 0.078-0.052 0.101-0.049 0.084-0.119 0.332-0.119 0.422 0 0.049 0.026 0.173 0.058 0.275 0.197 0.619 0.85 0.89 1.425 0.595 0.165-0.084 0.39-0.356 0.454-0.541 0.061-0.171 0.078-0.515 0.032-0.601-0.017-0.026-0.058-0.113-0.095-0.191-0.075-0.162-0.338-0.41-0.46-0.436-0.046-0.012-0.090-0.032-0.098-0.046-0.012-0.014-0.145-0.026-0.298-0.023-0.237 0-0.301 0.012-0.41 0.069z"></path>
<path d="M23.649 22.099c-0.032 0.023-0.075 0.043-0.095 0.043-0.064 0-0.283 0.179-0.373 0.304-0.127 0.176-0.165 0.295-0.176 0.564-0.012 0.205-0.003 0.269 0.052 0.39 0.078 0.179 0.315 0.431 0.471 0.503 0.353 0.159 0.552 0.159 0.905-0.003 0.121-0.055 0.384-0.295 0.384-0.35 0-0.017 0.017-0.052 0.038-0.075 0.020-0.026 0.061-0.145 0.087-0.263 0.046-0.205 0.046-0.228-0.003-0.413-0.029-0.107-0.069-0.211-0.087-0.228-0.020-0.020-0.035-0.049-0.035-0.069 0-0.067-0.24-0.272-0.422-0.358-0.162-0.075-0.217-0.087-0.439-0.087-0.176 0.003-0.269 0.014-0.306 0.043z"></path>
<path d="M17.706 26.074c-0.023 0.017-0.090 0.040-0.145 0.058-0.11 0.029-0.462 0.353-0.462 0.425 0 0.020-0.023 0.072-0.049 0.116-0.038 0.058-0.049 0.136-0.046 0.353 0.003 0.335 0.055 0.474 0.26 0.685 0.159 0.162 0.26 0.217 0.532 0.286 0.179 0.046 0.199 0.046 0.376-0.003 0.332-0.093 0.48-0.199 0.682-0.506 0.075-0.113 0.078-0.136 0.078-0.462 0-0.28-0.009-0.35-0.049-0.396-0.026-0.029-0.049-0.067-0.049-0.084 0-0.078-0.272-0.33-0.451-0.413-0.156-0.072-0.22-0.087-0.41-0.087-0.121 0-0.243 0.014-0.266 0.029z"></path>
<path d="M22.666 26.089c-0.043 0.023-0.093 0.043-0.11 0.043-0.043 0-0.324 0.223-0.37 0.295-0.13 0.205-0.202 0.422-0.202 0.616 0 0.127 0.055 0.324 0.133 0.474 0.058 0.116 0.249 0.312 0.338 0.35 0.035 0.017 0.084 0.040 0.107 0.055 0.058 0.035 0.353 0.119 0.419 0.119s0.361-0.084 0.419-0.119c0.023-0.014 0.069-0.038 0.101-0.055 0.084-0.040 0.168-0.116 0.263-0.246 0.153-0.202 0.185-0.304 0.185-0.587 0-0.225-0.012-0.283-0.075-0.413-0.113-0.223-0.28-0.387-0.491-0.489-0.156-0.072-0.22-0.087-0.41-0.087-0.142 0-0.252 0.017-0.306 0.043z"></path>
</svg>
