<!-- Generated by IcoMoon.io -->
<svg version="1.1" xmlns="http://www.w3.org/2000/svg" width="32" height="32" viewBox="0 0 32 32">
<path d="M9.547 5.173c-2.773 0.32-5.28 3.147-5.28 5.973 0 1.76 0.32 2.347 1.973 3.733 1.12 0.907 2.4 1.653 2.933 1.653 1.173 0 1.493 0.587 1.12 2.027-0.213 0.96-0.693 1.173-2.293 1.173-2.453 0-5.333 2.56-5.333 4.8 0 2.72 3.147 4.64 5.333 3.2 0.693-0.48 0.587-0.747-0.64-1.653-0.853-0.587-1.493-1.387-1.493-1.76 0-1.067 3.893-4.053 5.28-4.053 0.96 0 3.787 2.773 3.787 3.68 0 0.533-0.48 1.387-1.067 1.92-0.8 0.747-0.907 1.12-0.48 1.707 1.547 1.867 4.213-0.693 4.213-4 0-1.867-0.32-2.613-1.867-4.16-1.813-1.76-2.56-4.48-1.28-4.48 0.267 0 0.907-0.853 1.333-1.92 0.64-1.547 0.693-2.187 0.107-3.733-0.587-1.6-0.533-1.867 0.373-2.56 0.587-0.427 0.96-0.853 0.8-1.013-0.427-0.373-5.493-0.747-7.52-0.533zM12.533 8.907c1.6 2.4 1.653 3.2 0.32 4.8s-2.507 1.547-4.053-0.267c-1.493-1.653-1.707-3.627-0.48-5.333 1.173-1.707 2.667-1.44 4.213 0.8z"></path>
<path d="M20.267 6.667c0 0.96-0.373 1.493-1.28 1.867-1.973 0.747-2.080 1.493-0.32 2.4 1.227 0.64 1.6 1.173 1.6 2.4 0 1.44 0.16 1.6 1.6 1.6s1.6-0.16 1.6-1.547c0-1.333 0.213-1.6 1.493-1.76 1.12-0.107 1.493-0.48 1.6-1.6 0.16-1.227-0.053-1.44-1.333-1.6-1.173-0.107-1.547-0.48-1.653-1.653-0.16-1.227-0.427-1.44-1.76-1.44-1.28 0-1.547 0.213-1.547 1.333z"></path>
</svg>
