<!-- Generated by IcoMoon.io -->
<svg version="1.1" xmlns="http://www.w3.org/2000/svg" width="32" height="32" viewBox="0 0 32 32">
<path d="M4.48 4.96l-1.44 1.28-0.427 18.133 1.387 1.653 1.44 1.707h18.347l2.88-2.987-0.053-9.067c-0.053-8.96-0.053-9.013-1.44-10.507l-1.387-1.44h-8.907c-8.587 0-9.013 0.053-10.4 1.227zM23.2 9.067c0 1.653-0.16 1.867-1.493 2.027-1.813 0.213-3.040-0.693-3.040-2.293s0.48-1.92 2.667-1.76c1.76 0.16 1.867 0.267 1.867 2.027zM17.867 12.267c1.973 1.6 1.28 6.56-1.013 7.253-3.573 1.173-6.4-0.533-6.4-3.84 0-2.72 2.293-4.693 4.907-4.32 0.96 0.213 2.133 0.587 2.507 0.907zM7.467 16.16c0 0.96 0.48 2.4 1.013 3.253 3.947 5.973 12.427 4 13.387-3.147 0.48-3.893 1.333-2.027 1.333 3.040v4.96h-17.067l-0.16-4.48c-0.107-2.453 0-4.853 0.107-5.227 0.48-1.28 1.387-0.213 1.387 1.6z"></path>
</svg>
