<!-- Generated by IcoMoon.io -->
<svg version="1.1" xmlns="http://www.w3.org/2000/svg" width="32" height="32" viewBox="0 0 32 32">
<path d="M0.088 8.572c0.059 0.206 0.763 3.405 1.527 7.134 0.793 3.699 1.439 6.782 1.439 6.811 0.029 0 1.028-0.294 2.231-0.705 1.908-0.646 2.554-0.734 4.844-0.587 1.527 0.088 3.347 0.411 4.345 0.763l1.673 0.587 1.703-0.616c2.437-0.91 7.193-0.91 9.424 0 0.881 0.352 1.644 0.587 1.703 0.558 0.117-0.147 3.024-13.446 3.024-13.886 0-0.352-2.76-0.411-16.029-0.411-12.712 0-16 0.088-15.883 0.352zM23.486 12.154c0 0.382-0.235 0.881-0.499 1.086-0.44 0.352-0.47 0.352-0.294-0.117 0.088-0.264 0.059-0.499-0.088-0.499-0.176 0-0.294-0.264-0.294-0.587 0-0.382 0.206-0.587 0.587-0.587 0.411 0 0.587 0.206 0.587 0.705zM13.446 13.094c0.352 0.411 0.646 0.998 0.646 1.321 0 0.499-0.206 0.558-1.761 0.558-1.82 0-2.231 0.323-1.145 0.91 0.44 0.235 0.705 0.235 0.939 0 0.382-0.382 1.967-0.44 1.967-0.088 0 0.147-0.264 0.499-0.587 0.793-0.91 0.822-3.347 0.763-4.198-0.088-0.822-0.822-0.851-2.701-0.088-3.552 1.028-1.116 3.171-1.057 4.228 0.147zM27.802 12.653c0.763 0.646 0.411 0.91-0.939 0.734-1.732-0.264-1.732 0.235 0 0.675 1.556 0.382 2.055 1.409 1.174 2.378-0.675 0.763-3.229 0.822-4.022 0.088-0.763-0.675-0.646-0.969 0.352-0.969 0.499 0 0.881 0.117 0.881 0.294 0 0.147 0.264 0.294 0.587 0.294 0.998 0 0.646-0.558-0.587-0.881-1.468-0.382-1.996-1.233-1.35-2.202 0.675-1.028 2.877-1.233 3.905-0.411zM5.872 14.092v1.761h1.321c1.116 0 1.321 0.088 1.321 0.587 0 0.528-0.206 0.587-2.349 0.587h-2.349v-4.697h2.055v1.761zM16.352 13.71l0.587 1.409 0.616-1.409c0.499-1.116 0.763-1.38 1.35-1.38h0.734l-0.998 2.231c-0.558 1.233-1.028 2.29-1.028 2.349s-0.382 0.117-0.851 0.117c-0.763 0-0.939-0.206-1.996-2.349l-1.145-2.349h1.086c0.998 0 1.116 0.088 1.644 1.38zM21.725 14.679v2.349h-1.761v-4.697h1.761v2.349z"></path>
<path d="M10.774 13.651c-0.147 0.323 0 0.44 0.558 0.44 0.47 0 0.705-0.147 0.646-0.382-0.206-0.528-1.028-0.587-1.204-0.059z"></path>
<path d="M27.185 22.987c0.088 0.294 0.264 0.44 0.352 0.352s0-0.323-0.206-0.528c-0.294-0.264-0.323-0.235-0.147 0.176z"></path>
</svg>
