<!-- Generated by IcoMoon.io -->
<svg version="1.1" xmlns="http://www.w3.org/2000/svg" width="32" height="32" viewBox="0 0 32 32">
<path d="M6.453 1.136c-5.051 1.077-7.888 6.917-5.675 11.685 0.64 1.387 1.205 2.176 3.68 5.125 1.333 1.6 4.112 4.923 6.171 7.387 3.728 4.469 4.875 5.707 5.275 5.707 0.608 0 1.168-0.565 4.208-4.213 2.411-2.891 5.653-6.768 8.219-9.824 2.912-3.467 3.493-4.619 3.632-7.189 0.261-4.965-3.728-9.136-8.437-8.816-2.251 0.149-4.075 1.008-6.501 3.045l-1.035 0.875-0.8-0.747c-2.763-2.581-5.845-3.653-8.736-3.035zM9.611 3.104c1.659 0.533 3.211 1.611 5.136 3.547l1.259 1.259 1.2-1.205c3.691-3.707 6.619-4.677 9.504-3.152 3.211 1.701 4.256 6.379 2.192 9.792-0.395 0.651-1.947 2.56-5.984 7.355-0.571 0.672-2.341 2.779-3.936 4.688-1.595 1.904-2.917 3.483-2.933 3.504-0.075 0.080-11.888-14.080-12.491-14.971-1.755-2.592-2.021-5.237-0.773-7.728 1.296-2.592 4.245-3.925 6.827-3.088z"></path>
</svg>
