<!-- Generated by IcoMoon.io -->
<svg version="1.1" xmlns="http://www.w3.org/2000/svg" width="32" height="32" viewBox="0 0 32 32">
<path d="M5.312 10.002c-0.057 0.036-0.121 0.171-0.121 0.249 0 0.039-0.025 0.092-0.057 0.117-0.032 0.028-0.16 0.203-0.281 0.391-0.124 0.188-0.242 0.356-0.263 0.366-0.021 0.014-0.078 0.1-0.128 0.192-0.046 0.092-0.124 0.203-0.174 0.249-0.046 0.043-0.1 0.128-0.11 0.188-0.014 0.057-0.060 0.149-0.11 0.206-0.046 0.057-0.114 0.174-0.153 0.263-0.039 0.085-0.089 0.171-0.11 0.185-0.025 0.014-0.082 0.11-0.128 0.213-0.043 0.103-0.1 0.199-0.121 0.213-0.021 0.011-0.089 0.117-0.153 0.235-0.228 0.427-0.267 0.494-0.377 0.658-0.060 0.092-0.11 0.185-0.11 0.206s-0.046 0.096-0.1 0.164c-0.057 0.068-0.121 0.181-0.146 0.249-0.021 0.068-0.078 0.164-0.124 0.213-0.043 0.050-0.103 0.146-0.128 0.213s-0.075 0.156-0.11 0.196c-0.036 0.039-0.096 0.146-0.132 0.235-0.039 0.092-0.089 0.178-0.11 0.192-0.021 0.011-0.089 0.114-0.149 0.224s-0.171 0.306-0.245 0.434c-0.075 0.128-0.178 0.306-0.228 0.398s-0.107 0.174-0.128 0.188c-0.021 0.014-0.082 0.124-0.139 0.245-0.057 0.124-0.121 0.238-0.142 0.252-0.025 0.014-0.082 0.11-0.124 0.213-0.046 0.103-0.103 0.196-0.124 0.21s-0.068 0.096-0.11 0.185c-0.039 0.089-0.11 0.21-0.16 0.27-0.050 0.057-0.089 0.124-0.089 0.146 0 0.025-0.039 0.1-0.085 0.171-0.046 0.068-0.107 0.192-0.132 0.277s-0.082 0.178-0.128 0.206c-0.068 0.043-0.082 0.085-0.082 0.22v0.171l0.185 0.050c0.142 0.036 0.462 0.050 1.291 0.050l1.106 0.004 0.142 0.156c0.078 0.089 0.206 0.231 0.284 0.32 0.398 0.452 1.774 1.913 1.863 1.977 0.171 0.117 0.462 0.398 0.462 0.441 0 0.018 0.050 0.036 0.11 0.036 0.085 0 0.146-0.043 0.302-0.213 0.107-0.114 0.228-0.22 0.263-0.231 0.060-0.018 0.484-0.459 1.404-1.458 0.196-0.21 0.444-0.484 0.555-0.601 0.11-0.121 0.242-0.263 0.288-0.32l0.089-0.103 1.244-0.004c1.173-0.004 1.252-0.007 1.323-0.071 0.114-0.103 0.103-0.324-0.025-0.444-0.057-0.050-0.139-0.164-0.181-0.252-0.128-0.26-0.245-0.466-0.299-0.53-0.028-0.032-0.096-0.146-0.149-0.252s-0.124-0.228-0.16-0.267c-0.036-0.039-0.075-0.11-0.089-0.16s-0.068-0.146-0.121-0.213c-0.053-0.068-0.117-0.181-0.146-0.249-0.025-0.068-0.075-0.156-0.107-0.196-0.036-0.039-0.089-0.128-0.124-0.196s-0.082-0.149-0.107-0.178c-0.025-0.028-0.092-0.142-0.153-0.249-0.192-0.366-0.302-0.551-0.366-0.622-0.036-0.039-0.089-0.135-0.124-0.213-0.032-0.078-0.092-0.192-0.139-0.249-0.043-0.060-0.089-0.142-0.103-0.188-0.014-0.043-0.064-0.124-0.11-0.181-0.050-0.057-0.121-0.178-0.16-0.27s-0.114-0.217-0.16-0.274c-0.050-0.057-0.089-0.124-0.089-0.149s-0.057-0.124-0.124-0.22c-0.068-0.096-0.124-0.192-0.124-0.213s-0.046-0.103-0.103-0.181c-0.057-0.078-0.114-0.174-0.124-0.217-0.014-0.043-0.064-0.124-0.114-0.181-0.046-0.057-0.11-0.164-0.142-0.235-0.028-0.071-0.1-0.196-0.156-0.274-0.060-0.082-0.107-0.167-0.107-0.192s-0.039-0.092-0.089-0.149c-0.046-0.057-0.121-0.181-0.16-0.274-0.039-0.096-0.117-0.22-0.171-0.284s-0.124-0.16-0.16-0.217c-0.032-0.057-0.132-0.199-0.22-0.316-0.085-0.117-0.185-0.263-0.217-0.32-0.032-0.060-0.096-0.146-0.139-0.196-0.046-0.050-0.1-0.156-0.121-0.238-0.025-0.085-0.071-0.167-0.11-0.188-0.078-0.043-0.249-0.046-0.306-0.007zM5.632 10.788c0.050 0.078 0.124 0.178 0.171 0.228 0.146 0.156 0.309 0.373 0.352 0.462 0.021 0.050 0.078 0.107 0.124 0.128s0.128 0.124 0.185 0.242c0.284 0.572 0.58 1.127 0.626 1.18 0.032 0.036 0.075 0.114 0.096 0.178s0.092 0.192 0.153 0.288c0.192 0.295 0.444 0.729 0.565 0.978 0.050 0.096 0.121 0.206 0.16 0.245 0.043 0.036 0.092 0.124 0.117 0.196 0.021 0.071 0.071 0.16 0.107 0.199s0.089 0.135 0.121 0.213c0.036 0.078 0.089 0.174 0.124 0.213 0.039 0.039 0.092 0.135 0.124 0.21 0.032 0.078 0.103 0.196 0.16 0.267 0.053 0.071 0.11 0.167 0.124 0.217s0.053 0.121 0.089 0.16c0.060 0.068 0.114 0.16 0.388 0.665 0.060 0.11 0.124 0.213 0.146 0.224 0.021 0.014 0.078 0.107 0.128 0.206 0.121 0.256 0.302 0.562 0.398 0.683 0.043 0.053 0.078 0.117 0.078 0.146 0 0.025 0.071 0.128 0.16 0.235 0.135 0.156 0.16 0.21 0.153 0.309-0.014 0.171-0.089 0.206-0.313 0.149-0.124-0.032-0.384-0.043-0.885-0.036-0.519 0.011-0.718 0.004-0.757-0.028-0.103-0.089-0.238-0.388-0.281-0.633-0.021-0.139-0.085-0.363-0.139-0.498-0.057-0.139-0.11-0.32-0.124-0.405s-0.071-0.263-0.128-0.395c-0.053-0.128-0.11-0.324-0.124-0.43-0.014-0.103-0.060-0.267-0.11-0.359-0.046-0.096-0.103-0.27-0.128-0.391-0.028-0.124-0.078-0.277-0.11-0.341-0.036-0.068-0.1-0.284-0.146-0.487-0.043-0.199-0.107-0.402-0.139-0.452-0.028-0.046-0.078-0.196-0.107-0.334-0.028-0.142-0.085-0.309-0.121-0.373-0.039-0.068-0.1-0.242-0.132-0.388-0.036-0.146-0.092-0.324-0.124-0.391-0.036-0.068-0.096-0.235-0.139-0.373-0.043-0.135-0.103-0.288-0.135-0.338s-0.092-0.203-0.135-0.338c-0.060-0.196-0.092-0.249-0.146-0.249-0.11 0-0.11 0.327 0 0.658 0.050 0.146 0.114 0.391 0.146 0.544 0.028 0.156 0.089 0.345 0.128 0.42 0.039 0.078 0.085 0.228 0.107 0.334 0.018 0.107 0.075 0.277 0.121 0.38s0.11 0.313 0.142 0.469c0.032 0.153 0.089 0.348 0.128 0.437 0.039 0.085 0.089 0.245 0.11 0.359 0.021 0.11 0.075 0.267 0.121 0.345 0.043 0.078 0.1 0.245 0.121 0.373s0.082 0.334 0.132 0.459c0.050 0.121 0.11 0.324 0.135 0.448 0.028 0.121 0.085 0.302 0.135 0.395 0.046 0.096 0.096 0.26 0.11 0.366s0.064 0.277 0.11 0.373c0.046 0.1 0.096 0.245 0.11 0.324 0.028 0.167 0.092 0.306 0.171 0.37 0.032 0.028 0.057 0.096 0.057 0.156 0 0.089-0.046 0.153-0.228 0.324-0.124 0.121-0.469 0.48-0.768 0.804s-0.633 0.683-0.743 0.8c-0.11 0.117-0.277 0.313-0.37 0.434-0.199 0.26-0.416 0.402-0.612 0.402-0.117 0-0.16-0.025-0.334-0.206-0.11-0.114-0.309-0.331-0.444-0.487-0.327-0.377-1.060-1.159-1.49-1.596-0.398-0.402-0.437-0.484-0.292-0.654 0.057-0.068 0.124-0.217 0.156-0.356 0.036-0.132 0.092-0.292 0.124-0.359 0.036-0.064 0.078-0.22 0.096-0.341 0.014-0.121 0.068-0.288 0.114-0.377 0.050-0.085 0.107-0.256 0.128-0.38 0.025-0.124 0.075-0.299 0.114-0.391s0.103-0.302 0.142-0.469c0.039-0.167 0.103-0.359 0.142-0.427 0.043-0.068 0.089-0.217 0.107-0.331 0.021-0.117 0.068-0.274 0.103-0.345 0.039-0.075 0.103-0.284 0.142-0.469 0.043-0.181 0.107-0.395 0.146-0.469s0.089-0.228 0.11-0.338c0.018-0.107 0.068-0.26 0.107-0.334 0.039-0.078 0.092-0.252 0.121-0.395 0.028-0.139 0.096-0.38 0.146-0.537 0.057-0.171 0.096-0.37 0.096-0.498 0.004-0.192-0.004-0.213-0.075-0.224-0.064-0.011-0.085 0.014-0.117 0.142-0.021 0.085-0.092 0.274-0.156 0.42-0.068 0.146-0.149 0.356-0.181 0.462-0.036 0.107-0.092 0.252-0.124 0.32s-0.089 0.242-0.121 0.388c-0.032 0.146-0.089 0.313-0.124 0.373-0.039 0.060-0.092 0.228-0.124 0.366-0.028 0.139-0.075 0.292-0.107 0.338-0.028 0.046-0.078 0.21-0.11 0.366s-0.1 0.388-0.149 0.512c-0.050 0.124-0.114 0.324-0.142 0.444-0.025 0.117-0.082 0.27-0.117 0.334-0.039 0.064-0.085 0.22-0.107 0.352-0.021 0.128-0.078 0.324-0.124 0.437s-0.114 0.324-0.146 0.466c-0.032 0.146-0.089 0.324-0.128 0.398-0.036 0.075-0.092 0.267-0.117 0.423-0.050 0.277-0.164 0.533-0.288 0.636-0.046 0.039-0.224 0.050-0.828 0.053-0.423 0-0.828 0.014-0.903 0.028-0.156 0.036-0.238-0.014-0.238-0.146 0-0.117 0.092-0.284 0.181-0.331 0.039-0.021 0.103-0.114 0.142-0.203s0.107-0.206 0.156-0.263c0.046-0.057 0.096-0.139 0.11-0.181 0.014-0.046 0.060-0.132 0.103-0.188 0.046-0.060 0.107-0.171 0.139-0.249 0.036-0.078 0.089-0.174 0.124-0.213 0.064-0.075 0.21-0.32 0.334-0.569 0.039-0.078 0.1-0.174 0.135-0.213s0.089-0.135 0.121-0.21c0.032-0.078 0.103-0.196 0.16-0.267s0.114-0.171 0.124-0.224c0.014-0.050 0.057-0.128 0.092-0.167 0.078-0.082 0.224-0.338 0.37-0.644 0.053-0.107 0.121-0.224 0.153-0.263 0.071-0.075 0.252-0.388 0.377-0.651 0.050-0.1 0.107-0.192 0.128-0.206 0.018-0.011 0.071-0.089 0.11-0.171 0.043-0.082 0.103-0.181 0.139-0.22s0.082-0.128 0.103-0.199c0.021-0.071 0.082-0.181 0.128-0.249 0.078-0.103 0.22-0.37 0.59-1.106 0.050-0.1 0.132-0.217 0.178-0.256 0.050-0.043 0.117-0.124 0.156-0.181 0.060-0.096 0.274-0.37 0.409-0.516 0.028-0.032 0.082-0.11 0.114-0.171 0.089-0.167 0.213-0.156 0.327 0.025z"></path>
<path d="M5.44 11.78c-0.149 0.121-0.156 0.43-0.16 5.074 0 4.74-0.007 4.551 0.196 4.551s0.196 0.174 0.196-4.409c0-4.146-0.021-5.173-0.107-5.244-0.032-0.025-0.068-0.018-0.124 0.028z"></path>
<path d="M20.48 12.533c-0.085 0.085-0.089 0.135-0.014 0.242 0.043 0.064 0.089 0.078 0.245 0.078 0.213 0 0.302-0.057 0.302-0.196 0-0.117-0.128-0.196-0.309-0.196-0.107 0-0.174 0.021-0.224 0.071z"></path>
<path d="M14.492 13.077c-0.060 0.043-0.064 0.092-0.046 0.491 0.011 0.242 0.028 0.473 0.039 0.512 0.046 0.146-0.025 0.178-0.356 0.167-0.398-0.014-0.441 0.004-0.441 0.149 0 0.185 0.064 0.213 0.402 0.185 0.395-0.032 0.441 0 0.384 0.26-0.025 0.117-0.039 0.647-0.039 1.44v1.252l0.142 0.292c0.117 0.245 0.167 0.309 0.309 0.398 0.156 0.1 0.188 0.107 0.53 0.107 0.384 0 0.476-0.036 0.476-0.178 0-0.124-0.135-0.178-0.452-0.178h-0.295l-0.16-0.22c-0.132-0.181-0.16-0.249-0.164-0.384 0-0.089 0-0.64 0.004-1.227 0.004-0.86-0.007-1.102-0.050-1.241-0.096-0.313-0.025-0.356 0.533-0.32 0.455 0.028 0.548 0 0.548-0.16s-0.075-0.192-0.402-0.185c-0.16 0-0.32 0.014-0.356 0.025-0.103 0.032-0.306-0.018-0.341-0.085-0.021-0.039-0.014-0.128 0.018-0.256 0.032-0.121 0.050-0.309 0.043-0.491-0.007-0.245-0.021-0.306-0.078-0.348-0.089-0.064-0.167-0.064-0.249-0.004z"></path>
<path d="M17.404 14.276c-0.043 0.014-0.096 0.053-0.121 0.082-0.025 0.032-0.1 0.075-0.164 0.096-0.21 0.068-0.658 0.629-0.658 0.825 0 0.171 0.224 0.267 0.366 0.16 0.032-0.021 0.096-0.153 0.139-0.292 0.075-0.228 0.096-0.252 0.249-0.338 0.089-0.050 0.203-0.117 0.249-0.149 0.064-0.046 0.178-0.064 0.533-0.071 0.448-0.011 0.452-0.011 0.551 0.085 0.053 0.053 0.142 0.107 0.199 0.117 0.092 0.025 0.238 0.167 0.238 0.238 0 0.018 0.028 0.075 0.068 0.128 0.043 0.060 0.082 0.217 0.107 0.412 0.060 0.455 0.11 0.43-0.86 0.42-0.732-0.011-0.8-0.004-0.914 0.060-0.068 0.039-0.164 0.089-0.213 0.11-0.050 0.025-0.146 0.068-0.213 0.103-0.071 0.032-0.217 0.156-0.331 0.274-0.185 0.199-0.21 0.238-0.242 0.444-0.039 0.249-0.018 0.558 0.057 0.725 0.064 0.142 0.274 0.348 0.516 0.498l0.192 0.124h0.537c0.533 0 0.533 0 0.693-0.107 0.085-0.057 0.203-0.114 0.256-0.124 0.057-0.014 0.156-0.096 0.245-0.199 0.078-0.096 0.167-0.174 0.196-0.174 0.085 0 0.128 0.139 0.103 0.324-0.028 0.213 0.014 0.281 0.181 0.281 0.117 0 0.228-0.075 0.228-0.153 0-0.025-0.028-0.114-0.060-0.203-0.050-0.139-0.053-0.313-0.046-1.244 0.018-1.5 0.014-1.547-0.075-1.728-0.121-0.256-0.366-0.498-0.644-0.636l-0.252-0.124-0.519 0.004c-0.284 0-0.551 0.014-0.59 0.032zM19.125 16.37c0.057 0.057 0.064 0.107 0.050 0.398-0.014 0.281-0.036 0.363-0.117 0.508-0.096 0.171-0.462 0.484-0.565 0.484-0.025 0-0.139 0.050-0.245 0.114-0.188 0.107-0.217 0.114-0.594 0.114l-0.398 0.004-0.146-0.124c-0.082-0.068-0.188-0.156-0.238-0.196-0.107-0.085-0.178-0.405-0.142-0.626 0.028-0.156 0.295-0.448 0.444-0.48 0.050-0.014 0.153-0.064 0.228-0.117 0.135-0.089 0.164-0.092 0.782-0.114 0.356-0.011 0.697-0.021 0.761-0.025 0.071-0.004 0.139 0.018 0.181 0.060z"></path>
<path d="M20.615 14.279c-0.121 0.046-0.146 0.124-0.103 0.32 0.025 0.096 0.039 0.949 0.039 2.165 0 1.877-0.004 2.023-0.068 2.204-0.075 0.22-0.274 0.441-0.448 0.498-0.075 0.025-0.192 0.025-0.356 0.004-0.309-0.046-0.391-0.011-0.359 0.149 0.043 0.203 0.096 0.22 0.633 0.21l0.274-0.007 0.252-0.22c0.142-0.124 0.274-0.263 0.292-0.313 0.021-0.050 0.075-0.196 0.121-0.324l0.082-0.238 0.004-2.197c0.004-2.062 0-2.201-0.057-2.244-0.075-0.053-0.171-0.057-0.306-0.007z"></path>
<path d="M22.933 14.265c-0.028 0.011-0.103 0.060-0.164 0.107-0.060 0.043-0.128 0.082-0.153 0.082-0.057 0-0.466 0.391-0.466 0.444 0 0.025-0.046 0.103-0.107 0.178-0.057 0.075-0.107 0.164-0.107 0.199 0 0.171 0.284 0.277 0.405 0.153 0.032-0.028 0.082-0.146 0.114-0.256 0.071-0.245 0.096-0.281 0.256-0.345 0.064-0.028 0.164-0.089 0.22-0.135 0.085-0.075 0.149-0.089 0.48-0.103 0.42-0.025 0.54-0.004 0.654 0.11 0.043 0.043 0.124 0.085 0.185 0.1 0.064 0.011 0.132 0.060 0.164 0.114 0.032 0.050 0.089 0.139 0.128 0.196 0.039 0.060 0.082 0.199 0.096 0.338 0.014 0.128 0.039 0.274 0.050 0.324 0.014 0.057 0.004 0.117-0.028 0.16-0.050 0.068-0.085 0.071-0.864 0.060-0.672-0.007-0.825 0-0.9 0.043-0.050 0.032-0.192 0.103-0.32 0.164-0.334 0.16-0.626 0.48-0.676 0.747-0.021 0.107-0.046 0.217-0.057 0.242-0.007 0.025 0.011 0.164 0.043 0.302 0.068 0.295 0.199 0.469 0.516 0.69l0.192 0.135 0.551 0.011c0.437 0.007 0.569-0.004 0.64-0.043 0.050-0.032 0.185-0.103 0.302-0.16 0.128-0.060 0.26-0.164 0.331-0.249 0.064-0.082 0.139-0.146 0.167-0.146 0.085 0 0.128 0.132 0.103 0.32-0.028 0.21 0.018 0.284 0.164 0.284 0.228 0 0.256-0.075 0.164-0.434-0.036-0.146-0.043-0.473-0.032-1.451l0.011-1.259-0.092-0.188c-0.114-0.238-0.366-0.494-0.619-0.633-0.192-0.103-0.21-0.107-0.747-0.114-0.302-0.004-0.576 0-0.604 0.014zM24.644 16.377c0.050 0.050 0.064 0.092 0.046 0.149-0.014 0.043-0.028 0.199-0.028 0.345-0.004 0.231-0.018 0.288-0.11 0.427-0.057 0.089-0.128 0.174-0.153 0.188-0.025 0.018-0.103 0.078-0.167 0.139-0.068 0.057-0.181 0.121-0.252 0.142-0.075 0.018-0.174 0.064-0.224 0.103-0.121 0.089-0.462 0.149-0.757 0.132-0.21-0.011-0.256-0.025-0.356-0.124-0.064-0.060-0.167-0.135-0.228-0.167-0.092-0.043-0.121-0.089-0.156-0.235-0.025-0.103-0.036-0.274-0.028-0.38 0.014-0.181 0.032-0.213 0.178-0.352 0.089-0.085 0.21-0.164 0.263-0.178 0.057-0.011 0.167-0.064 0.242-0.117 0.135-0.089 0.164-0.092 0.782-0.114 0.356-0.011 0.697-0.021 0.761-0.025 0.075-0.004 0.139 0.018 0.188 0.068z"></path>
<path d="M26.169 14.286c-0.117 0.060-0.128 0.178-0.039 0.437 0.057 0.16 0.068 0.231 0.043 0.331-0.043 0.156-0.071 0.928-0.082 2.204-0.007 0.917-0.004 0.974 0.060 1.020 0.075 0.057 0.224 0.064 0.299 0.018 0.039-0.025 0.050-0.288 0.053-1.468l0.004-1.44 0.128-0.21c0.092-0.146 0.178-0.238 0.288-0.299 0.089-0.050 0.206-0.132 0.267-0.181 0.085-0.071 0.164-0.096 0.352-0.114 0.135-0.011 0.309-0.007 0.391 0.007 0.249 0.046 0.676 0.398 0.761 0.626 0.028 0.075 0.039 0.544 0.032 1.575-0.011 1.632-0.025 1.554 0.228 1.522 0.224-0.025 0.249-0.068 0.224-0.377-0.011-0.146-0.021-0.715-0.025-1.262-0.004-1.191 0.025-1.412 0.203-1.518 0.064-0.036 0.132-0.114 0.153-0.174 0.025-0.075 0.082-0.124 0.199-0.174 0.089-0.039 0.171-0.092 0.181-0.124 0.032-0.082 0.252-0.124 0.558-0.11 0.22 0.011 0.292 0.028 0.377 0.096 0.053 0.046 0.153 0.114 0.213 0.146 0.064 0.036 0.135 0.114 0.167 0.178 0.028 0.064 0.085 0.164 0.132 0.217 0.078 0.1 0.078 0.107 0.085 1.557 0.004 1.070 0.018 1.472 0.046 1.511 0.053 0.060 0.228 0.068 0.274 0.004 0.021-0.025 0.025-0.654 0.014-1.589l-0.021-1.547-0.103-0.188c-0.121-0.217-0.448-0.551-0.626-0.636-0.096-0.046-0.238-0.064-0.604-0.075l-0.48-0.011-0.192 0.117c-0.324 0.199-0.498 0.377-0.54 0.548-0.032 0.124-0.057 0.156-0.117 0.156-0.107 0-0.228-0.121-0.306-0.306-0.043-0.096-0.117-0.188-0.203-0.242-0.075-0.050-0.181-0.128-0.235-0.171-0.096-0.078-0.135-0.082-0.626-0.082h-0.526l-0.149 0.124c-0.082 0.068-0.21 0.185-0.284 0.26-0.199 0.203-0.27 0.174-0.27-0.11s-0.085-0.356-0.302-0.245z"></path>
</svg>
