<!-- Generated by IcoMoon.io -->
<svg version="1.1" xmlns="http://www.w3.org/2000/svg" width="32" height="32" viewBox="0 0 32 32">
<path d="M21.642 13.557c0 0.070-0.124 0.131-0.325 0.162-0.294 0.054-0.572 0.17-1.028 0.448-0.247 0.155-0.889 0.835-0.889 0.958 0 0.054-0.054 0.193-0.124 0.294-0.201 0.309-0.093 0.425 0.379 0.425 0.402 0 0.417-0.008 0.564-0.294 0.178-0.348 0.572-0.727 0.989-0.958 0.263-0.131 0.448-0.17 1.059-0.17 0.626-0.008 0.796 0.023 1.136 0.178 0.224 0.108 0.402 0.216 0.402 0.255 0 0.031 0.085 0.062 0.193 0.062 0.224 0 0.657-0.286 0.657-0.433 0-0.201-0.827-0.672-1.353-0.773-0.155-0.023-0.271-0.093-0.271-0.155 0-0.085-0.155-0.108-0.696-0.108-0.549 0-0.696 0.023-0.696 0.108z"></path>
<path d="M28.058 13.557c0 0.062-0.108 0.131-0.247 0.162-0.441 0.093-1.252 0.618-1.515 0.982-0.356 0.487-0.425 0.696-0.425 1.329 0 0.541 0.031 0.688 0.209 1.013 0.124 0.216 0.309 0.487 0.417 0.611 0.425 0.456 1.299 0.897 1.785 0.897 0.147 0 0.162-0.046 0.162-0.379 0-0.379-0.070-0.471-0.356-0.471-0.216 0-0.881-0.495-1.098-0.812-0.17-0.255-0.209-0.394-0.209-0.812s0.039-0.557 0.209-0.812c0.325-0.479 0.889-0.812 1.484-0.866 1.074-0.1 1.832 0.185 2.303 0.866 0.294 0.425 0.309 1.136 0.031 1.569-0.286 0.441-0.742 0.781-1.214 0.897-0.232 0.054-0.317 0.263-0.247 0.595 0.062 0.332 0.278 0.309 1.183-0.108 0.417-0.193 1.059-0.819 1.175-1.136 0.039-0.131 0.124-0.232 0.186-0.232 0.085 0 0.108-0.162 0.108-0.788 0-0.433-0.023-0.758-0.054-0.734-0.077 0.077-0.255-0.1-0.255-0.255 0-0.070-0.186-0.325-0.41-0.564-0.394-0.41-0.703-0.595-1.291-0.788-0.147-0.046-0.263-0.131-0.247-0.178 0.008-0.070-0.224-0.093-0.835-0.093-0.68 0-0.85 0.023-0.85 0.108z"></path>
<path d="M0 16.077v2.396l0.193 0.046c0.1 0.023 0.286 0.015 0.402-0.023l0.216-0.077v-1.5c0-1.26 0.023-1.5 0.116-1.5 0.062 0 0.124 0.070 0.147 0.155 0.015 0.085 0.124 0.278 0.247 0.433s0.224 0.301 0.224 0.325c0 0.015 0.193 0.325 0.433 0.68s0.464 0.727 0.502 0.827c0.077 0.201 0.363 0.232 0.433 0.031 0.031-0.070 0.093-0.162 0.155-0.193 0.139-0.085 0.131-0.402-0.015-0.518-0.062-0.054-0.116-0.124-0.116-0.155s-0.263-0.448-0.58-0.928c-0.317-0.479-0.58-0.881-0.58-0.904s-0.1-0.17-0.232-0.332c-0.131-0.162-0.232-0.317-0.232-0.34s-0.124-0.216-0.278-0.433c-0.271-0.371-0.294-0.386-0.657-0.386h-0.379v2.396z"></path>
<path d="M4.669 13.735c-0.093 0.070-0.804 1.090-0.804 1.159 0 0.023-0.1 0.17-0.232 0.332-0.124 0.162-0.232 0.317-0.232 0.356 0 0.031-0.062 0.124-0.131 0.201-0.108 0.124-0.116 0.17-0.039 0.278 0.054 0.070 0.124 0.209 0.17 0.301 0.093 0.216 0.425 0.24 0.495 0.039 0.023-0.070 0.116-0.24 0.193-0.363 0.085-0.131 0.201-0.317 0.255-0.425s0.155-0.201 0.216-0.216c0.1-0.015 0.116 0.178 0.093 1.469-0.031 1.654-0.023 1.685 0.502 1.685 0.201 0 0.263-0.039 0.294-0.178 0.023-0.093 0.031-1.175 0.023-2.412l-0.023-2.242-0.348-0.023c-0.193-0.008-0.386 0.008-0.433 0.039z"></path>
<path d="M8.989 13.805c-0.031 0.077 0 0.155 0.077 0.201 0.077 0.039 0.131 0.131 0.131 0.209s0.054 0.185 0.116 0.24c0.062 0.054 0.116 0.155 0.116 0.232s0.054 0.178 0.116 0.232c0.062 0.054 0.116 0.155 0.116 0.232s0.054 0.178 0.116 0.232c0.062 0.054 0.116 0.162 0.116 0.24s0.054 0.17 0.124 0.209c0.070 0.039 0.108 0.139 0.093 0.255-0.023 0.178-0.039 0.186-0.758 0.186-0.85 0-0.904-0.054-0.572-0.541 0.193-0.286 0.193-0.317 0.085-0.541-0.062-0.124-0.139-0.294-0.162-0.371s-0.116-0.131-0.24-0.131c-0.131 0-0.193 0.046-0.193 0.131-0.008 0.077-0.093 0.278-0.193 0.448s-0.325 0.587-0.502 0.928c-0.178 0.34-0.441 0.827-0.587 1.082-0.139 0.255-0.294 0.533-0.34 0.618-0.039 0.085-0.116 0.209-0.17 0.278-0.155 0.224-0.023 0.379 0.325 0.379 0.371 0 0.603-0.209 0.873-0.773 0.093-0.193 0.24-0.441 0.317-0.564l0.139-0.209h1.221c0.897 0 1.229 0.023 1.268 0.093 0.023 0.054 0.116 0.201 0.201 0.332 0.085 0.124 0.17 0.286 0.201 0.348 0.023 0.062 0.077 0.17 0.116 0.232s0.1 0.193 0.139 0.278c0.116 0.263 0.827 0.371 1.013 0.147 0.070-0.085 0.062-0.155-0.070-0.332-0.085-0.124-0.193-0.309-0.24-0.41-0.039-0.1-0.108-0.24-0.147-0.301s-0.093-0.17-0.124-0.232c-0.023-0.062-0.162-0.325-0.309-0.58-0.139-0.255-0.402-0.742-0.58-1.082-0.989-1.894-0.928-1.816-1.399-1.816-0.286 0-0.394 0.031-0.433 0.124z"></path>
<path d="M13.194 13.735c-0.070 0.062-0.070 4.529-0.008 4.692 0.062 0.155 0.487 0.162 0.68 0.023 0.124-0.093 0.139-0.24 0.108-1.739-0.023-1.5-0.015-1.639 0.108-1.639 0.070 0 0.162 0.046 0.193 0.108s0.758 0.819 1.6 1.693c1.561 1.615 1.832 1.824 2.095 1.6 0.124-0.1 0.155-0.441 0.054-0.595-0.031-0.046-0.951-1.013-2.056-2.141l-1.994-2.056h-0.363c-0.201 0-0.394 0.023-0.417 0.054z"></path>
<path d="M17.329 13.774c-0.062 0.062-0.093 0.433-0.093 1.159v1.067l0.325 0.348c0.557 0.587 0.564 0.557 0.541-1.098-0.015-1.013-0.054-1.469-0.116-1.507-0.147-0.093-0.557-0.070-0.657 0.031z"></path>
<path d="M22.276 15.938c-0.124 0.124-0.116 0.564 0.008 0.665 0.054 0.046 0.464 0.1 0.912 0.108l0.804 0.023v0.271c0 0.804-2.017 1.128-3.014 0.487-0.332-0.216-0.657-0.533-0.657-0.634 0-0.193-0.904-0.232-0.974-0.046-0.062 0.162 0.394 0.843 0.734 1.098 0.665 0.502 1.144 0.642 2.242 0.642 1.113 0 1.646-0.147 2.157-0.58 0.317-0.271 0.425-0.58 0.441-1.237 0.023-0.935 0.085-0.889-1.337-0.889-0.85 0-1.252 0.031-1.314 0.093z"></path>
</svg>
