<!-- Generated by IcoMoon.io -->
<svg version="1.1" xmlns="http://www.w3.org/2000/svg" width="32" height="32" viewBox="0 0 32 32">
<path d="M15.035 2.113c-0.183 0.041-0.752 0.193-1.27 0.35-0.518 0.152-1.234 0.361-1.59 0.462-0.381 0.112-0.777 0.264-0.96 0.371-0.366 0.213-1.189 0.985-1.722 1.61-0.208 0.244-0.625 0.731-0.924 1.082-1.006 1.168-1.28 1.656-1.671 2.992-0.559 1.895-0.589 2.159-0.508 3.845 0.046 0.864 0.076 1.102 0.208 1.6 0.356 1.371 0.66 2.088 1.549 3.708 0.218 0.406 0.538 1.056 0.701 1.448 0.35 0.828 0.747 1.564 1.153 2.133 0.163 0.224 0.493 0.701 0.742 1.067 0.244 0.361 0.488 0.706 0.533 0.762 0.051 0.056 0.427 0.604 0.838 1.219 1.25 1.859 1.397 2.057 2.006 2.743 0.32 0.361 0.726 0.843 0.899 1.067 0.538 0.706 1.265 1.326 1.671 1.427 0.376 0.096 0.828-0.264 1.478-1.173 0.203-0.279 0.61-0.772 0.909-1.092 0.686-0.742 1.326-1.6 2.032-2.723 0.305-0.488 0.721-1.097 0.924-1.356 0.249-0.31 0.488-0.701 0.726-1.178 0.213-0.427 0.472-0.863 0.655-1.092 0.477-0.599 1.539-2.225 1.935-2.971 0.208-0.391 0.498-1.189 0.777-2.133 0.259-0.899 0.325-1.163 0.518-2.199 0.168-0.919 0.173-0.965 0.173-2.291 0-1.554-0.005-1.575-0.427-2.479-0.157-0.34-0.345-0.813-0.416-1.041-0.416-1.326-0.488-1.458-1.361-2.479-0.93-1.087-1.884-1.839-2.784-2.184-0.147-0.061-0.361-0.147-0.472-0.198-1.503-0.691-2.834-1.117-3.936-1.275-0.808-0.117-1.9-0.127-2.387-0.020zM17.915 3.703c0.483 0.096 1.046 0.29 1.529 0.533 0.132 0.066 0.366 0.157 0.518 0.208 0.518 0.168 1.392 0.543 1.625 0.701 0.127 0.086 0.64 0.569 1.148 1.077 1.021 1.016 1.082 1.107 1.585 2.286 0.168 0.391 0.442 0.996 0.615 1.346 0.371 0.772 0.508 1.295 0.549 2.113 0.046 0.96-0.051 1.366-0.579 2.458-0.371 0.762-0.452 0.97-0.706 1.869-0.224 0.797-0.406 1.204-0.752 1.656-0.381 0.498-0.564 0.828-0.828 1.478-0.295 0.716-0.32 0.767-0.701 1.351-0.178 0.269-0.432 0.701-0.559 0.965-0.305 0.61-0.615 1.072-0.985 1.483-0.376 0.416-0.544 0.66-0.843 1.25-0.137 0.264-0.411 0.686-0.61 0.94-0.203 0.254-0.488 0.655-0.635 0.894s-0.34 0.523-0.432 0.635c-0.234 0.29-0.625 0.488-1.016 0.523-0.665 0.051-1.123-0.254-1.651-1.112-0.173-0.279-0.462-0.681-0.64-0.894-0.193-0.234-0.457-0.65-0.665-1.041-0.244-0.467-0.447-0.782-0.721-1.097-0.543-0.625-0.706-0.863-1.072-1.559-0.178-0.335-0.432-0.772-0.564-0.97-0.29-0.432-0.533-0.909-0.777-1.514-0.203-0.503-0.488-1.016-0.833-1.478-0.31-0.411-0.472-0.787-0.721-1.646-0.239-0.833-0.416-1.295-0.731-1.92-0.427-0.858-0.589-1.656-0.488-2.458 0.081-0.701 0.229-1.219 0.518-1.823 0.137-0.295 0.401-0.884 0.574-1.316 0.493-1.189 0.61-1.351 1.722-2.469 0.533-0.538 1.072-1.036 1.199-1.107 0.279-0.157 0.858-0.401 1.366-0.574 0.208-0.071 0.498-0.183 0.65-0.249 0.396-0.183 0.823-0.361 1.051-0.432 0.681-0.218 2.027-0.269 2.86-0.107z"></path>
<path d="M15.924 7.716c-0.447 0.132-0.777 0.315-1.331 0.747-0.65 0.508-0.95 0.787-1.57 1.488-0.615 0.686-0.853 1.123-0.97 1.747-0.142 0.782 0.015 1.844 0.376 2.54 0.132 0.254 0.386 0.559 0.975 1.178 1.036 1.097 1.366 1.331 2.174 1.559 0.325 0.091 0.533 0.112 1.133 0.112 0.869 0.005 1.112-0.046 1.778-0.361 0.467-0.224 0.513-0.259 1.427-1.173 1.041-1.046 1.168-1.239 1.366-2.017 0.305-1.189 0.137-2.347-0.452-3.144-0.269-0.366-1.168-1.3-1.539-1.595-0.965-0.782-1.239-0.945-1.844-1.102-0.401-0.102-1.133-0.091-1.524 0.020zM17.422 10.194c0.32 0.157 1.305 1.036 1.529 1.361 0.305 0.447 0.376 1.102 0.163 1.519-0.193 0.381-1.25 1.534-1.6 1.742-0.498 0.305-1.062 0.315-1.544 0.041-0.239-0.137-1.097-1.021-1.417-1.453-0.29-0.391-0.35-0.584-0.32-1.031 0.036-0.508 0.203-0.813 0.736-1.336 0.513-0.493 0.96-0.828 1.224-0.914 0.305-0.097 0.96-0.061 1.229 0.071z"></path>
</svg>
