<!-- Generated by IcoMoon.io -->
<svg version="1.1" xmlns="http://www.w3.org/2000/svg" width="32" height="32" viewBox="0 0 32 32">
<path d="M10.265 0.050c-0.011 0.028-0.082 0.064-0.156 0.075-0.42 0.064-1.052 0.331-1.49 0.629-0.306 0.206-0.839 0.747-1.028 1.042-0.274 0.427-0.359 0.612-0.516 1.102-0.188 0.594-0.178-0.21-0.178 13.138 0 11.019 0.007 12.366 0.057 12.629 0.167 0.889 0.494 1.536 1.092 2.151 0.58 0.597 1.212 0.942 2.098 1.145 0.117 0.028 1.845 0.039 5.742 0.039 5.902 0 5.728 0.004 6.229-0.156 0.359-0.117 0.743-0.295 0.857-0.398 0.028-0.028 0.068-0.050 0.082-0.050 0.050 0 0.466-0.338 0.679-0.551 0.331-0.327 0.54-0.619 0.74-1.031 0.224-0.452 0.32-0.775 0.38-1.259 0.050-0.416 0.050-24.622 0-25.038-0.060-0.484-0.156-0.807-0.38-1.259-0.199-0.412-0.409-0.704-0.74-1.031-0.224-0.228-0.629-0.551-0.686-0.551-0.018 0-0.050-0.021-0.071-0.046-0.107-0.128-0.818-0.416-1.252-0.501-0.117-0.025-0.192-0.057-0.185-0.085 0.004-0.032-1.22-0.043-5.625-0.043-4.878 0-5.636 0.007-5.65 0.050zM21.493 2.13c0.412 0.149 0.619 0.284 0.878 0.569 0.231 0.256 0.384 0.537 0.469 0.857 0.050 0.185 0.057 0.356 0.050 0.853l-0.011 0.622h-13.938l-0.011-0.69c-0.007-0.608 0-0.715 0.060-0.889 0.231-0.665 0.633-1.063 1.337-1.333 0.124-0.046 0.8-0.053 5.564-0.053 5.152 0 5.429 0.004 5.6 0.064zM22.891 13.508c0.004 3.548-0.007 6.468-0.021 6.482-0.021 0.021-9.444 0.039-13.909 0.028-0.039 0-0.053-12.914-0.011-12.953 0.011-0.014 3.15-0.021 6.976-0.018l6.955 0.011 0.011 6.45zM22.873 22.044c0.014 0 0.025 1.412 0.025 3.14 0 2.969-0.004 3.15-0.068 3.367-0.092 0.324-0.231 0.565-0.459 0.821-0.26 0.284-0.466 0.42-0.878 0.569-0.171 0.064-0.441 0.064-5.586 0.068-5.241 0-5.412-0.004-5.6-0.068-0.658-0.235-1.081-0.658-1.316-1.316-0.064-0.188-0.068-0.327-0.068-3.385 0-2.094 0.011-3.193 0.036-3.204 0.025-0.007 12.167-0.004 13.913 0.007z"></path>
<path d="M15.378 24.103c-0.395 0.117-0.74 0.341-1.010 0.654-0.164 0.192-0.249 0.341-0.366 0.654-0.103 0.27-0.11 0.967-0.011 1.22 0.249 0.644 0.601 1.020 1.195 1.269 0.21 0.089 0.267 0.096 0.708 0.1 0.526 0 0.647-0.028 1.031-0.252 0.203-0.117 0.572-0.469 0.658-0.622 0.245-0.448 0.302-0.651 0.302-1.081 0-0.597-0.167-1.003-0.587-1.422-0.505-0.505-1.266-0.711-1.92-0.519z"></path>
</svg>
