<!-- Generated by IcoMoon.io -->
<svg version="1.1" xmlns="http://www.w3.org/2000/svg" width="32" height="32" viewBox="0 0 32 32">
<path d="M2.928 0.157c0 0.084-0.225 0.267-0.497 0.408-0.596 0.308-1.281 0.999-1.584 1.605-0.125 0.246-0.293 0.444-0.376 0.444-0.136 0-0.157 1.297-0.157 10.458 0 10.102 0.005 10.458 0.193 10.458 0.126 0 0.261 0.146 0.376 0.408 0.288 0.633 1.166 1.427 1.94 1.757l0.68 0.288 4.183 0.031c5.38 0.037 4.826-0.209 4.816 2.128-0.010 1.903 0.010 1.872-1.171 1.872-1.485 0-2.505 0.847-1.762 1.464 0.089 0.073 0.157 0.22 0.157 0.324 0 0.193 0.22 0.199 6.797 0.199 5.799 0 6.797-0.021 6.797-0.146 0-0.084 0.084-0.293 0.183-0.471 0.434-0.763-0.293-1.365-1.658-1.37-1.26 0-1.244 0.021-1.244-1.95 0-2.196-0.471-1.961 4.094-2.024 3.665-0.052 3.822-0.063 4.439-0.298 0.758-0.288 1.637-1.020 1.935-1.605 0.12-0.235 0.303-0.444 0.418-0.476 0.314-0.078 0.314-21.203 0-21.281-0.11-0.031-0.282-0.214-0.382-0.408-0.241-0.465-1.166-1.312-1.59-1.454-0.225-0.078-0.34-0.183-0.34-0.319 0-0.193-0.246-0.199-13.124-0.199-11.529 0-13.124 0.021-13.124 0.157zM28.643 2.332c0.241 0.162 0.58 0.512 0.748 0.779l0.308 0.486v7.069c0 5.359-0.031 7.101-0.125 7.195-0.204 0.204-26.886 0.178-27.059-0.021-0.089-0.115-0.12-1.94-0.12-7.221v-7.074l0.298-0.491c0.22-0.35 0.46-0.57 0.858-0.779l0.559-0.288 24.089 0.052 0.444 0.293zM29.553 20.23c0.105 0.141 0.146 0.512 0.146 1.25 0 1.26-0.303 1.861-1.15 2.285l-0.471 0.235h-24.052l-0.523-0.261c-1.208-0.607-1.752-3.252-0.753-3.66 0.539-0.22 26.641-0.073 26.803 0.152zM18.227 26.159c0.366 0.193 0.382 0.272 0.387 1.893 0 2.065 0.11 1.961-2.071 1.961-2.196 0-2.050 0.141-2.060-1.945-0.010-2.159-0.136-2.029 1.94-2.029 0.988 0 1.663 0.047 1.804 0.12z"></path>
</svg>
