<!-- Generated by IcoMoon.io -->
<svg version="1.1" xmlns="http://www.w3.org/2000/svg" width="32" height="32" viewBox="0 0 32 32">
<path d="M3.453 11.722c-1.802 2.139-2.594 3.402-3.183 5.12-0.32 0.909-0.354 2.392-0.067 2.914 0.337 0.589 1.364 1.634 1.6 1.634 0.118 0 0.219 0.067 0.219 0.168s0.707 0.168 1.785 0.168c1.869 0 3.116-0.303 5.238-1.28 0.505-0.219 0.943-0.404 0.977-0.404s0.573-0.236 1.179-0.505c0.606-0.286 1.145-0.505 1.179-0.505s0.573-0.219 1.179-0.505c0.606-0.269 1.145-0.505 1.179-0.505s0.573-0.236 1.179-0.505c0.606-0.286 1.145-0.505 1.179-0.505s0.573-0.219 1.179-0.505c0.606-0.286 1.145-0.505 1.179-0.505s0.573-0.219 1.179-0.505c0.606-0.269 1.145-0.505 1.179-0.505s0.573-0.236 1.179-0.505c0.606-0.286 1.145-0.505 1.179-0.505s0.573-0.236 1.179-0.505c0.606-0.286 1.145-0.505 1.179-0.505 0.051 0 0.455-0.152 0.893-0.354s0.943-0.421 1.128-0.488c1.432-0.589 2.105-0.926 2.105-1.061 0-0.084-0.168-0.101-0.371-0.034-0.96 0.286-2.762 0.775-7.124 1.937-0.691 0.185-1.836 0.488-2.526 0.674s-1.836 0.488-2.526 0.674c-0.691 0.185-1.836 0.488-2.526 0.674-2.072 0.556-3.773 1.011-5.474 1.482-0.943 0.253-2.206 0.455-3.082 0.505-1.347 0.051-1.549 0.017-2.206-0.371-0.792-0.455-1.448-1.566-1.448-2.408 0-0.573 0.269-1.634 0.606-2.375 0.421-0.909 0.185-0.96-0.522-0.101z"></path>
</svg>
