<!-- Generated by IcoMoon.io -->
<svg version="1.1" xmlns="http://www.w3.org/2000/svg" width="32" height="32" viewBox="0 0 32 32">
<path d="M23.408 2.232c-0.888 0.4-1.976 1.424-2.712 2.544-0.328 0.496-0.864 1.208-1.184 1.584-1.024 1.176-1.128 2.368-0.28 3.272 1.584 1.696 1.488 1.92-2.432 5.88-1.896 1.912-2.080 2.080-3.84 3.536-1.256 1.056-1.832 1.128-2.864 0.392-1.272-0.92-1.408-0.952-2.376-0.648-0.48 0.152-1.128 0.504-1.456 0.792-0.32 0.288-0.832 0.672-1.144 0.856-1.384 0.84-2.464 2.2-2.472 3.12-0.016 1.784 2.584 4.44 4.36 4.44 1.784 0 5.816-1.712 8.112-3.448 0.704-0.536 1.736-1.312 2.288-1.736 1.28-0.976 4.416-4.096 5.336-5.296 3.232-4.248 4.176-5.904 5.272-9.248 0.76-2.304 0.352-3.408-1.984-5.416-1.2-1.040-1.536-1.12-2.624-0.624zM25.784 5.32c1.28 1.488 1.416 2.184 0.632 3.248-0.256 0.352-0.592 0.96-0.744 1.352-0.152 0.4-0.544 1.080-0.872 1.52s-1.072 1.528-1.656 2.408c-4.016 6.072-14.688 13.928-16.912 12.448-2.032-1.36-2.192-2.496-0.528-3.784 0.488-0.368 1.136-0.872 1.456-1.112 0.864-0.672 1.48-0.6 2.424 0.28 1.112 1.040 2.16 1.056 3.128 0.032 0.352-0.376 0.904-0.864 1.208-1.072 1.688-1.168 5.288-4.68 6.64-6.48 0.456-0.616 0.992-1.264 1.192-1.44 0.952-0.84 1.088-2.088 0.312-2.816-0.272-0.256-0.552-0.464-0.624-0.464-0.704 0-0.512-1.832 0.288-2.776 0.328-0.392 0.8-0.968 1.048-1.296 0.936-1.216 1.984-1.232 3.008-0.048z"></path>
</svg>
