<!-- Generated by IcoMoon.io -->
<svg version="1.1" xmlns="http://www.w3.org/2000/svg" width="32" height="32" viewBox="0 0 32 32">
<path d="M31.015 0.025c0.032 0.032-0.043 0.117-0.107 0.117-0.028 0-0.352 0.146-0.715 0.324-0.366 0.178-0.818 0.395-1.003 0.484-0.185 0.085-0.363 0.174-0.391 0.192s-0.078 0.043-0.107 0.053c-0.082 0.036-0.331 0.156-0.391 0.192-0.028 0.018-0.228 0.114-0.444 0.213-0.679 0.32-1.205 0.576-1.262 0.608-0.028 0.018-0.078 0.043-0.107 0.053s-0.078 0.036-0.107 0.053c-0.028 0.018-0.089 0.046-0.135 0.068-0.167 0.071-0.956 0.448-1.038 0.498-0.028 0.014-0.252 0.124-0.498 0.242-0.725 0.348-0.761 0.366-0.818 0.395-0.028 0.014-0.117 0.057-0.196 0.092-0.078 0.032-0.167 0.075-0.196 0.092-0.064 0.032-0.21 0.107-0.818 0.395-0.245 0.117-0.469 0.228-0.498 0.245s-0.078 0.043-0.107 0.053c-0.028 0.011-0.078 0.036-0.107 0.053s-0.078 0.043-0.107 0.053c-0.064 0.025-0.54 0.252-1.28 0.612-0.302 0.146-0.8 0.384-1.102 0.53s-0.576 0.281-0.604 0.299c-0.028 0.018-0.078 0.043-0.107 0.053-0.078 0.032-0.331 0.156-0.391 0.192-0.028 0.018-0.132 0.064-0.231 0.11-0.213 0.092-1.401 0.661-1.476 0.708-0.060 0.036-0.313 0.16-0.498 0.238-0.068 0.032-0.149 0.071-0.178 0.089-0.028 0.014-0.078 0.039-0.107 0.050-0.075 0.032-0.327 0.153-0.391 0.192-0.028 0.014-0.26 0.128-0.516 0.249-0.252 0.121-0.487 0.235-0.516 0.252s-0.078 0.043-0.107 0.053c-0.085 0.032-0.508 0.231-0.569 0.267-0.028 0.018-0.085 0.046-0.128 0.064-0.068 0.032-0.644 0.306-1.774 0.857-0.235 0.114-0.683 0.331-0.996 0.48-0.313 0.153-0.811 0.395-1.106 0.537-0.295 0.146-0.548 0.263-0.565 0.263s-0.057 0.021-0.085 0.046c-0.032 0.025-0.128 0.078-0.217 0.114s-0.185 0.089-0.217 0.114c-0.028 0.025-0.075 0.046-0.096 0.046-0.036 0-1.518 0.708-1.643 0.786-0.028 0.018-0.092 0.050-0.142 0.071-0.164 0.068-0.693 0.32-0.747 0.356-0.028 0.018-0.078 0.043-0.107 0.053s-0.078 0.036-0.107 0.053c-0.028 0.018-0.078 0.043-0.107 0.053s-0.252 0.117-0.498 0.235c-0.245 0.117-0.644 0.309-0.889 0.427s-0.469 0.228-0.498 0.245c-0.028 0.014-0.124 0.064-0.213 0.107-0.089 0.039-0.359 0.171-0.604 0.288s-0.636 0.306-0.871 0.42c-1.497 0.725-1.76 0.853-1.931 0.928-0.192 0.089-0.245 0.188-0.121 0.235 0.032 0.014 0.124 0.068 0.203 0.117 0.178 0.11 0.196 0.121 0.693 0.427 0.398 0.245 0.466 0.284 0.597 0.352 0.032 0.021 0.398 0.238 0.807 0.484 0.9 0.54 0.786 0.469 1.173 0.711 0.373 0.231 0.341 0.21 0.74 0.452 0.171 0.103 0.352 0.21 0.409 0.238 0.053 0.028 0.188 0.11 0.302 0.188 0.114 0.075 0.22 0.135 0.238 0.135s0.135 0.071 0.263 0.16c0.132 0.089 0.245 0.16 0.252 0.16 0.011 0 0.263 0.146 0.562 0.32 0.679 0.405 0.583 0.348 1.028 0.619 0.21 0.128 0.391 0.235 0.402 0.235 0.014 0 0.075 0.039 0.135 0.085 0.064 0.050 0.153 0.107 0.203 0.124 0.050 0.021 0.139 0.071 0.196 0.11 0.060 0.039 0.132 0.082 0.16 0.096s0.117 0.068 0.192 0.124c0.075 0.053 0.153 0.1 0.167 0.1s0.089 0.043 0.164 0.092c0.075 0.050 0.167 0.107 0.206 0.124s0.121 0.064 0.178 0.103c0.060 0.039 0.128 0.082 0.156 0.096 0.028 0.011 0.132 0.078 0.231 0.142 0.181 0.117 0.27 0.249 0.572 0.853 0.050 0.103 0.107 0.196 0.128 0.206 0.018 0.014 0.032 0.046 0.032 0.078s0.021 0.085 0.050 0.114c0.028 0.032 0.124 0.199 0.217 0.377 0.092 0.174 0.181 0.338 0.199 0.359s0.11 0.188 0.206 0.373c0.092 0.185 0.213 0.405 0.263 0.494s0.135 0.238 0.185 0.338c0.050 0.096 0.149 0.274 0.213 0.391 0.068 0.117 0.146 0.26 0.174 0.32 0.032 0.057 0.128 0.235 0.217 0.391 0.085 0.156 0.181 0.331 0.21 0.391 0.032 0.057 0.128 0.235 0.213 0.391 0.089 0.156 0.203 0.363 0.252 0.462 0.050 0.096 0.135 0.249 0.185 0.338s0.156 0.288 0.242 0.444c0.082 0.156 0.196 0.363 0.252 0.462 0.057 0.096 0.142 0.249 0.185 0.338 0.046 0.089 0.114 0.217 0.156 0.284 0.039 0.068 0.135 0.245 0.213 0.391s0.171 0.313 0.21 0.373c0.036 0.057 0.075 0.132 0.089 0.16 0.011 0.028 0.032 0.078 0.050 0.107s0.071 0.124 0.117 0.213c0.050 0.089 0.121 0.217 0.164 0.284 0.039 0.068 0.082 0.146 0.092 0.167 0.011 0.025 0.025 0.068 0.036 0.089 0.011 0.025 0.064 0.124 0.124 0.224 0.057 0.096 0.153 0.274 0.213 0.391s0.164 0.309 0.231 0.427c0.121 0.217 0.192 0.345 0.334 0.615 0.078 0.146 0.085 0.149 0.149 0.092 0.036-0.032 0.128-0.188 0.21-0.348 0.082-0.156 0.16-0.313 0.174-0.341s0.050-0.092 0.075-0.142c0.078-0.146 0.523-1.006 0.86-1.671 0.178-0.341 0.402-0.775 0.498-0.96 0.153-0.292 0.619-1.191 0.7-1.351 0.014-0.028 0.046-0.085 0.068-0.124 0.025-0.039 0.053-0.096 0.064-0.124 0.043-0.1 0.16-0.338 0.334-0.658 0.092-0.178 0.334-0.64 0.533-1.031s0.466-0.903 0.59-1.138c0.124-0.235 0.231-0.444 0.242-0.462 0.007-0.021 0.025-0.060 0.036-0.089s0.149-0.295 0.306-0.587c0.153-0.295 0.37-0.711 0.48-0.924 0.11-0.217 0.213-0.416 0.231-0.444 0.014-0.028 0.068-0.135 0.114-0.231 0.050-0.1 0.174-0.338 0.277-0.533s0.345-0.661 0.533-1.031c0.188-0.373 0.455-0.885 0.587-1.138 0.196-0.373 0.441-0.85 0.725-1.404 0.014-0.028 0.046-0.092 0.071-0.135 0.181-0.352 0.594-1.145 0.814-1.572 0.146-0.284 0.391-0.757 0.544-1.049 0.153-0.295 0.288-0.558 0.302-0.587 0.011-0.028 0.036-0.078 0.053-0.107s0.039-0.075 0.050-0.1c0.043-0.11 0.060-0.139 0.135-0.274 0.132-0.231 0.27-0.494 0.629-1.209 0.139-0.274 0.267-0.523 0.281-0.551 0.018-0.028 0.057-0.11 0.096-0.178 0.036-0.068 0.1-0.188 0.146-0.267 0.043-0.078 0.089-0.167 0.103-0.196 0.011-0.028 0.036-0.078 0.053-0.107s0.043-0.078 0.053-0.107c0.011-0.028 0.032-0.078 0.050-0.107s0.146-0.277 0.284-0.551c0.281-0.551 0.292-0.576 0.348-0.676 0.021-0.039 0.103-0.199 0.185-0.356s0.16-0.309 0.178-0.338c0.014-0.028 0.068-0.135 0.117-0.231 0.306-0.604 0.494-0.967 0.523-1.013 0.014-0.028 0.039-0.078 0.053-0.107 0.011-0.028 0.146-0.295 0.299-0.587 0.156-0.295 0.37-0.711 0.48-0.924 0.11-0.217 0.217-0.42 0.235-0.455 0.060-0.103 0.096-0.174 0.302-0.576 0.11-0.217 0.213-0.416 0.231-0.444s0.064-0.124 0.107-0.213c0.039-0.089 0.089-0.185 0.107-0.213s0.039-0.078 0.050-0.107c0.014-0.028 0.075-0.149 0.139-0.267 0.171-0.313 0.263-0.491 0.288-0.551 0.014-0.028 0.149-0.295 0.306-0.587 0.153-0.295 0.37-0.715 0.484-0.935 0.114-0.224 0.224-0.412 0.252-0.423 0.071-0.028 0.064-0.544-0.007-0.544-0.028 0-0.060-0.039-0.075-0.089-0.021-0.089-0.27-0.338-0.334-0.338-0.021 0-0.036-0.025-0.036-0.053 0-0.043-0.053-0.053-0.256-0.053-0.139 0-0.242 0.011-0.231 0.025zM26.738 4.252c0 0.025-0.256 0.274-0.818 0.796-0.245 0.224-0.604 0.562-0.8 0.747-0.196 0.188-0.452 0.427-0.565 0.533-0.117 0.107-0.373 0.348-0.569 0.537-0.199 0.188-0.448 0.42-0.555 0.512-0.107 0.096-0.348 0.32-0.533 0.498-0.185 0.181-0.594 0.565-0.907 0.853-0.313 0.292-0.754 0.708-0.978 0.921-0.224 0.217-0.455 0.43-0.508 0.473-0.057 0.043-0.274 0.242-0.487 0.444-0.512 0.491-1.348 1.276-1.653 1.557-0.135 0.124-0.377 0.348-0.533 0.498-0.302 0.288-0.7 0.665-1.084 1.013-0.124 0.117-0.388 0.366-0.58 0.551s-0.455 0.434-0.587 0.551c-0.224 0.203-0.597 0.551-1.252 1.173-0.167 0.16-0.405 0.38-0.533 0.498-0.206 0.185-0.672 0.619-1.614 1.515-0.178 0.167-0.427 0.398-0.555 0.516-0.128 0.114-0.32 0.292-0.427 0.395-0.228 0.22-0.295 0.231-0.53 0.089-0.089-0.057-0.188-0.11-0.217-0.124s-0.1-0.057-0.16-0.096c-0.057-0.039-0.139-0.085-0.181-0.103-0.068-0.028-0.484-0.27-0.619-0.359-0.028-0.021-0.089-0.050-0.135-0.071-0.043-0.018-0.171-0.092-0.281-0.164-0.11-0.068-0.231-0.142-0.274-0.16s-0.142-0.075-0.224-0.121c-0.085-0.050-0.22-0.128-0.302-0.178-0.085-0.046-0.185-0.103-0.224-0.124s-0.149-0.085-0.249-0.142c-0.096-0.060-0.224-0.132-0.284-0.16-0.057-0.032-0.153-0.085-0.213-0.124-0.057-0.039-0.142-0.085-0.185-0.103-0.039-0.018-0.085-0.053-0.1-0.071-0.011-0.021-0.043-0.039-0.071-0.039s-0.117-0.043-0.203-0.1c-0.203-0.128-0.267-0.164-0.455-0.267-0.089-0.050-0.217-0.121-0.284-0.164-0.068-0.039-0.16-0.089-0.203-0.107-0.039-0.018-0.085-0.053-0.1-0.071-0.011-0.021-0.043-0.039-0.071-0.039s-0.11-0.043-0.185-0.092c-0.075-0.050-0.167-0.107-0.206-0.124s-0.117-0.064-0.178-0.1c-0.057-0.039-0.164-0.1-0.231-0.135-0.132-0.071-0.295-0.164-0.587-0.331-0.281-0.16-0.26-0.203 0.203-0.42 0.494-0.235 0.811-0.384 0.882-0.412 0.028-0.011 0.078-0.036 0.107-0.053s0.078-0.043 0.107-0.053c0.028-0.011 0.078-0.036 0.107-0.053 0.060-0.036 0.7-0.341 0.782-0.373 0.028-0.011 0.078-0.036 0.107-0.053 0.028-0.014 0.156-0.078 0.284-0.135 0.128-0.060 0.43-0.206 0.676-0.32 0.245-0.117 0.654-0.313 0.907-0.434 0.256-0.124 0.608-0.292 0.782-0.377 0.54-0.26 0.992-0.473 1.049-0.494 0.028-0.011 0.078-0.036 0.107-0.053s0.078-0.043 0.107-0.053c0.028-0.011 0.078-0.036 0.107-0.053s0.167-0.085 0.302-0.146c0.27-0.121 0.892-0.42 0.978-0.466 0.082-0.046 0.402-0.199 0.629-0.302 0.114-0.053 0.455-0.213 0.757-0.359s0.608-0.292 0.676-0.32c0.068-0.032 0.149-0.071 0.178-0.085 0.132-0.071 0.747-0.363 0.853-0.402 0.028-0.011 0.078-0.036 0.107-0.053 0.050-0.032 0.818-0.402 1.44-0.697 0.156-0.071 0.508-0.242 0.782-0.373s0.523-0.249 0.551-0.263c0.028-0.011 0.078-0.036 0.107-0.053 0.028-0.014 0.156-0.078 0.284-0.135 0.228-0.107 0.839-0.398 1.476-0.704 0.178-0.082 0.345-0.164 0.373-0.174s0.078-0.036 0.107-0.053c0.028-0.018 0.206-0.103 0.391-0.192 0.42-0.196 0.878-0.412 1.476-0.7 0.256-0.121 0.615-0.295 0.8-0.38 0.185-0.089 0.363-0.174 0.391-0.192s0.078-0.043 0.107-0.053c0.028-0.011 0.149-0.068 0.267-0.121s0.238-0.11 0.267-0.121c0.028-0.011 0.078-0.036 0.107-0.053s0.213-0.107 0.409-0.199c0.196-0.092 0.38-0.181 0.409-0.199s0.078-0.043 0.107-0.053c0.064-0.028 0.512-0.238 1.173-0.558 0.576-0.277 0.676-0.313 0.676-0.252zM27.886 5.074c0.014 0.011 0.007 0.039-0.011 0.064-0.018 0.021-0.114 0.192-0.206 0.377-0.178 0.341-0.722 1.394-0.796 1.536-0.021 0.043-0.053 0.103-0.068 0.132-0.018 0.028-0.071 0.132-0.121 0.231-0.050 0.096-0.11 0.21-0.132 0.249s-0.053 0.096-0.068 0.124c-0.146 0.281-0.494 0.96-0.69 1.333-0.135 0.252-0.32 0.615-0.416 0.8-0.231 0.444-0.491 0.942-0.587 1.12-0.043 0.078-0.085 0.167-0.096 0.196-0.014 0.028-0.1 0.196-0.196 0.373-0.096 0.174-0.242 0.448-0.32 0.604-0.082 0.156-0.164 0.309-0.181 0.338s-0.039 0.078-0.050 0.107c-0.011 0.028-0.036 0.078-0.053 0.107s-0.068 0.124-0.11 0.213c-0.039 0.089-0.089 0.185-0.107 0.213s-0.039 0.078-0.050 0.107c-0.014 0.028-0.078 0.149-0.146 0.267s-0.213 0.388-0.32 0.604c-0.11 0.213-0.21 0.416-0.228 0.444-0.085 0.153-0.196 0.359-0.292 0.551-0.107 0.213-0.132 0.26-0.203 0.391-0.021 0.039-0.117 0.224-0.213 0.409-0.274 0.537-0.729 1.412-0.914 1.76-0.092 0.174-0.263 0.505-0.38 0.729s-0.224 0.434-0.238 0.462c-0.018 0.028-0.068 0.124-0.114 0.213s-0.135 0.256-0.196 0.373c-0.064 0.117-0.252 0.484-0.423 0.818-0.171 0.331-0.388 0.747-0.48 0.924-0.096 0.174-0.288 0.544-0.427 0.818-0.142 0.274-0.309 0.594-0.377 0.711-0.064 0.117-0.128 0.238-0.142 0.267-0.036 0.085-0.156 0.331-0.192 0.398-0.021 0.036-0.050 0.092-0.071 0.124-0.018 0.036-0.082 0.16-0.142 0.277-0.057 0.117-0.224 0.437-0.37 0.711s-0.299 0.569-0.341 0.658c-0.082 0.171-0.142 0.284-0.274 0.516-0.043 0.078-0.089 0.167-0.103 0.196-0.011 0.028-0.032 0.078-0.050 0.107s-0.124 0.238-0.242 0.462c-0.708 1.38-0.775 1.493-0.839 1.493-0.021-0.004-0.092-0.117-0.156-0.26s-0.132-0.281-0.149-0.309c-0.018-0.028-0.167-0.316-0.331-0.64-0.167-0.324-0.384-0.74-0.484-0.924s-0.188-0.363-0.203-0.391c-0.011-0.028-0.028-0.071-0.036-0.089-0.007-0.021-0.028-0.064-0.050-0.096-0.064-0.114-0.1-0.185-0.231-0.455-0.071-0.146-0.142-0.292-0.16-0.32s-0.068-0.124-0.107-0.213c-0.043-0.089-0.089-0.185-0.107-0.213s-0.135-0.27-0.267-0.533c-0.128-0.263-0.249-0.505-0.267-0.533-0.043-0.075-0.59-1.18-0.619-1.244-0.011-0.028-0.036-0.078-0.053-0.107s-0.089-0.174-0.156-0.32c-0.068-0.146-0.213-0.452-0.324-0.679-0.306-0.629-0.327-0.537 0.284-1.116 0.288-0.274 0.718-0.683 0.953-0.91 0.238-0.224 0.533-0.505 0.661-0.619 0.128-0.117 0.43-0.405 0.676-0.644s0.572-0.551 0.729-0.693c0.284-0.263 0.722-0.676 1.387-1.312 0.196-0.188 0.469-0.441 0.604-0.569 0.139-0.124 0.459-0.427 0.715-0.672 1.205-1.156 1.717-1.643 1.899-1.799 0.107-0.096 0.38-0.352 0.604-0.565 0.519-0.505 1.084-1.042 1.774-1.692 0.302-0.284 0.615-0.58 0.693-0.658 0.082-0.082 0.249-0.238 0.377-0.352 0.128-0.117 0.398-0.373 0.604-0.569 0.473-0.452 1.458-1.383 1.831-1.732 0.316-0.292 0.789-0.74 1.39-1.323 0.384-0.366 0.437-0.409 0.487-0.356z"></path>
</svg>
