<!-- Generated by IcoMoon.io -->
<svg version="1.1" xmlns="http://www.w3.org/2000/svg" width="32" height="32" viewBox="0 0 32 32">
<path d="M4.39 0.155c-0.419 0.197-0.645 0.503-0.821 1.11-0.239 0.821-0.159 29.206 0.084 29.73 0.645 1.395 1.466 1.345 3.866-0.23 0.88-0.578 4.423-2.89 7.079-4.62 0.821-0.536 2.442-1.596 3.606-2.354 1.164-0.762 2.844-1.855 3.728-2.429 5.998-3.895 6.266-4.092 6.513-4.783 0.364-1.035-0.008-1.726-1.428-2.651-0.461-0.302-1.403-0.917-2.094-1.37s-2.115-1.378-3.162-2.061c-3.037-1.977-7.765-5.064-11.707-7.64-4.624-3.020-4.8-3.108-5.663-2.702zM7.682 4.364c0.959 0.603 2.178 1.374 2.706 1.709 0.532 0.335 1.701 1.072 2.605 1.646 0.901 0.57 4.205 2.655 7.347 4.637 4.331 2.735 5.684 3.623 5.604 3.698-0.054 0.050-1.495 0.972-3.2 2.044-1.705 1.076-4.381 2.764-5.948 3.753-1.566 0.993-3.129 1.981-3.476 2.199-0.343 0.218-1.118 0.704-1.717 1.081-0.599 0.373-1.579 0.993-2.178 1.374-2.362 1.499-3.661 2.312-3.694 2.312-0.017 0-0.034-5.772-0.034-12.825 0-11.25 0.017-12.821 0.121-12.779 0.071 0.025 0.909 0.545 1.864 1.152z"></path>
</svg>
