<!-- Generated by IcoMoon.io -->
<svg version="1.1" xmlns="http://www.w3.org/2000/svg" width="32" height="32" viewBox="0 0 32 32">
<path d="M17.937 8.337c-0.047 0.168-0.103 0.187-0.43 0.131-0.309-0.047-0.393-0.028-0.44 0.084-0.028 0.084-0.187 0.29-0.356 0.468-0.412 0.44-0.711 0.861-0.711 0.982 0 0.066 0.15 0.243 0.346 0.412 0.281 0.243 0.44 0.309 0.908 0.346 0.561 0.047 0.571 0.047 0.571 0.328v0.281l-0.505-0.028c-0.823-0.056-1.6 0.365-1.6 0.851 0 0.168 0.393 0.533 0.58 0.533 0.084 0 0.253-0.122 0.374-0.271l0.215-0.271 0.561 0.271c1.067 0.505 1.937 0.561 2.292 0.122 0.197-0.225 0.374-0.15 0.992 0.421 1.020 0.936 1.675 1.179 3.612 1.366 0.29 0.028 0.683 0.131 0.861 0.243 0.318 0.187 0.805 0.739 0.805 0.917 0 0.047 0.066 0.206 0.131 0.356 0.075 0.14 0.168 0.327 0.197 0.402s0.131 0.262 0.234 0.421c0.103 0.15 0.225 0.365 0.271 0.468 0.047 0.112 0.449 0.561 0.889 1.011l0.814 0.814 0.028 0.543c0.037 0.618 0.281 1.123 0.655 1.329 0.234 0.131 0.262 0.122 0.384-0.028 0.066-0.094 0.103-0.253 0.075-0.356s0-0.29 0.066-0.402c0.094-0.178 0.084-0.281-0.075-0.608-0.103-0.206-0.215-0.543-0.253-0.739-0.037-0.234-0.14-0.402-0.318-0.524-0.449-0.309-0.571-0.636-0.571-1.563 0-0.533-0.047-0.964-0.14-1.179-0.075-0.178-0.14-0.421-0.14-0.533s-0.112-0.365-0.243-0.561l-0.243-0.356 0.505-0.487c0.271-0.271 0.58-0.674 0.674-0.908 0.094-0.225 0.206-0.477 0.253-0.552 0.037-0.075 0.178-0.356 0.309-0.608 0.412-0.833 1.029-1.366 2.274-1.956 0.187-0.094 0.215-0.168 0.215-0.739v-0.627h-0.374c-0.262 0-0.374 0.037-0.374 0.131 0 0.075-0.084 0.168-0.197 0.197-0.412 0.131-1.254 1.104-1.609 1.871-0.197 0.412-0.412 0.87-0.487 1.011-0.075 0.15-0.14 0.309-0.14 0.356 0 0.187-0.683 0.973-1.095 1.272-0.374 0.271-0.515 0.309-1.001 0.309-0.88 0-2.18-0.58-3.050-1.366-0.805-0.72-1.927-1.619-2.433-1.965-0.655-0.43-1.759-0.954-2.339-1.095-0.393-0.103-0.561-0.197-0.711-0.421-0.187-0.271-0.206-0.281-0.253-0.103z"></path>
<path d="M0.168 16.44c-0.159 0.037-0.168 0.299-0.168 3.733v3.687h2.049l0.028-0.767 0.028-0.777 1.198-0.047c1.179-0.047 1.207-0.056 1.432-0.309 0.225-0.262 0.225-0.262 0.225-2.601 0-1.497-0.037-2.414-0.103-2.536-0.206-0.384-0.608-0.449-2.629-0.44-1.048 0.009-1.974 0.028-2.058 0.056zM2.704 17.572c0.122 0.234 0.122 3.275 0 3.499-0.066 0.122-0.178 0.168-0.346 0.15l-0.253-0.028-0.028-1.778c-0.009-0.973 0-1.825 0.019-1.89 0.075-0.187 0.505-0.15 0.608 0.047z"></path>
<path d="M5.782 16.477c-0.159 0.084-0.168 0.356-0.168 3.593 0 1.918 0.028 3.556 0.056 3.64 0.047 0.131 0.356 0.15 2.47 0.15h2.414l0.056-0.215c0.103-0.374 0.066-6.896-0.037-7.092-0.084-0.159-0.206-0.178-0.964-0.178-0.552 0-0.908 0.037-0.982 0.112-0.084 0.084-0.112 0.945-0.112 3.312 0 3.481 0 3.499-0.515 3.368l-0.234-0.056v-3.312c0-2.929-0.019-3.322-0.15-3.368-0.243-0.094-1.665-0.056-1.834 0.047z"></path>
<path d="M11.808 16.533c-0.178 0.084-0.356 0.243-0.393 0.365-0.094 0.234-0.122 6.587-0.037 6.812 0.047 0.122 0.243 0.15 1.076 0.15 0.749 0 1.020-0.028 1.029-0.122 0-0.056 0-1.441-0.009-3.069-0.009-2.826 0-2.957 0.178-3.116 0.122-0.103 0.253-0.14 0.374-0.103 0.197 0.056 0.197 0.103 0.197 3.237v3.172h2.161l-0.009-3.097c-0.019-3.265 0-3.396 0.412-3.34 0.197 0.028 0.197 0.066 0.225 3.237l0.019 3.209 2.199-0.056 0.028-3.387 0.019-3.387-0.543-0.618-3.312-0.019c-2.919-0.028-3.34-0.009-3.612 0.131z"></path>
<path d="M20.379 16.515c-0.14 0.084-0.299 0.225-0.356 0.328-0.056 0.112-0.094 1.441-0.094 3.593v3.425h2.152v-1.6l0.356 0.028 0.346 0.028 0.028 0.777 0.028 0.767h2.049v-7.092l-0.253-0.168c-0.234-0.159-0.487-0.178-2.133-0.197-1.525-0.019-1.918 0-2.124 0.112zM22.671 17.525c0.15 0.103 0.159 0.299 0.14 1.89l-0.028 1.778h-0.655l-0.028-1.815c-0.019-1.394 0.009-1.834 0.094-1.899 0.168-0.103 0.299-0.094 0.477 0.047z"></path>
<path d="M26.947 22.437c0 0.159 0.356 0.533 0.43 0.458 0.037-0.037-0.037-0.178-0.178-0.309s-0.253-0.197-0.253-0.15z"></path>
<path d="M25.993 22.559c-0.094 0.047-0.168 0.131-0.168 0.178 0 0.131 0.262 0.009 0.318-0.15 0.056-0.15 0.056-0.15-0.15-0.028z"></path>
<path d="M26.264 23.13c-0.066 0.477-0.028 0.543 0.271 0.543 0.206 0 0.225-0.037 0.225-0.412 0-0.29-0.047-0.43-0.15-0.468-0.253-0.103-0.29-0.066-0.346 0.337z"></path>
<path d="M27.181 23.672c-0.14 0.159-0.15 0.187-0.028 0.187 0.084 0 0.168-0.084 0.197-0.187s0.037-0.187 0.028-0.187c-0.019 0-0.103 0.084-0.197 0.187z"></path>
</svg>
