<!-- Generated by IcoMoon.io -->
<svg version="1.1" xmlns="http://www.w3.org/2000/svg" width="32" height="32" viewBox="0 0 32 32">
<path d="M17.111 9.333c-0.756 0.489-1.422 1.378-1.556 2.089-0.222 1.111-0.4 1.244-1.956 1.156-1.111-0.089-2.267-0.578-3.422-1.467-0.933-0.756-1.911-1.289-2.178-1.111-0.578 0.356-0.578 2.311 0 2.667 0.311 0.178 0.311 0.533 0 1.111-0.578 1.111 1.156 4.622 2.667 5.333 1.067 0.489 1.067 0.533 0.222 1.156-0.444 0.356-1.2 0.622-1.644 0.622-1.022 0-1.067 1.556-0.089 1.956 2.133 0.844 6.844-0.178 9.333-1.956 1.689-1.2 3.733-4.711 3.733-6.311 0-0.844 0.311-1.911 0.667-2.4 0.978-1.333 0.844-2.4-0.356-2.4-0.578 0-1.422-0.311-1.911-0.667-1.156-0.889-1.911-0.844-3.511 0.222z"></path>
</svg>
