<!-- Generated by IcoMoon.io -->
<svg version="1.1" xmlns="http://www.w3.org/2000/svg" width="32" height="32" viewBox="0 0 32 32">
<path d="M10.535 14.17c-0.072 0.079-0.191 0.27-0.27 0.428-0.072 0.158-0.158 0.283-0.191 0.283-0.026 0-0.066 0.053-0.092 0.112-0.020 0.066-0.092 0.198-0.151 0.296-0.066 0.099-0.25 0.395-0.408 0.658-0.165 0.263-0.316 0.487-0.349 0.5-0.026 0.013-0.053 0.072-0.053 0.125s-0.086 0.211-0.198 0.349c-0.105 0.138-0.198 0.296-0.198 0.349 0 0.059-0.040 0.132-0.079 0.158-0.046 0.026-0.151 0.171-0.23 0.316-0.145 0.263-0.145 0.263-0.573 0.283-0.237 0.013-0.435 0.046-0.435 0.079 0 0.040 0.468 0.066 1.159 0.066 0.81 0 1.139-0.020 1.106-0.072-0.020-0.040-0.211-0.066-0.448-0.059-0.593 0.020-0.586 0.026-0.54-0.171 0.046-0.171 0.296-0.566 0.388-0.606 0.026-0.013 0.046-0.066 0.046-0.112 0-0.053 0.033-0.112 0.072-0.138 0.092-0.053 2.12-0.066 2.206-0.007 0.033 0.020 0.138 0.171 0.224 0.342 0.092 0.171 0.198 0.369 0.244 0.448 0.125 0.217 0 0.309-0.369 0.263-0.184-0.020-0.369-0.007-0.441 0.033-0.092 0.059 0.277 0.072 1.442 0.079 1.073 0 1.554-0.020 1.528-0.066-0.026-0.040-0.184-0.066-0.356-0.059-0.316 0.013-0.5-0.086-0.619-0.342-0.026-0.053-0.105-0.184-0.178-0.29-0.072-0.112-0.158-0.257-0.198-0.329s-0.158-0.283-0.263-0.461c-0.112-0.184-0.244-0.421-0.296-0.527-0.059-0.112-0.158-0.29-0.23-0.395-0.072-0.112-0.158-0.257-0.198-0.329s-0.125-0.224-0.198-0.329c-0.072-0.112-0.158-0.263-0.191-0.342-0.119-0.263-0.402-0.678-0.467-0.678-0.033 0-0.119 0.066-0.198 0.145zM10.377 15.388c0.059 0.191 0.086 0.237 0.224 0.448 0.072 0.105 0.151 0.244 0.178 0.296 0.020 0.053 0.092 0.165 0.158 0.25 0.224 0.296 0.119 0.342-0.764 0.342-0.494 0-0.83-0.026-0.856-0.066s0.026-0.165 0.112-0.283c0.092-0.119 0.184-0.257 0.204-0.309 0.026-0.053 0.105-0.191 0.178-0.296 0.072-0.112 0.158-0.263 0.198-0.349 0.072-0.171 0.316-0.198 0.369-0.033z"></path>
<path d="M28.464 14.104c-0.040 0.046-0.086 0.132-0.112 0.184-0.020 0.053-0.099 0.184-0.171 0.296-0.072 0.105-0.151 0.244-0.178 0.296-0.020 0.053-0.119 0.204-0.211 0.329-0.198 0.27-0.309 0.441-0.402 0.626-0.040 0.072-0.125 0.217-0.198 0.329-0.072 0.105-0.158 0.257-0.198 0.329s-0.125 0.217-0.198 0.329c-0.072 0.105-0.158 0.257-0.198 0.329s-0.125 0.217-0.198 0.329c-0.072 0.105-0.165 0.263-0.204 0.342-0.099 0.184-0.27 0.244-0.625 0.224-0.151-0.007-0.296 0.013-0.323 0.053-0.026 0.053 0.309 0.072 1.119 0.072 0.843 0 1.146-0.020 1.113-0.072-0.026-0.053-0.211-0.066-0.533-0.046-0.5 0.033-0.619-0.013-0.474-0.191 0.092-0.105 0.217-0.316 0.296-0.481 0.026-0.053 0.105-0.171 0.171-0.257 0.119-0.158 0.138-0.165 1.126-0.158 1.080 0.007 1.212 0.033 1.304 0.244 0.033 0.072 0.138 0.263 0.23 0.421 0.237 0.408 0.191 0.468-0.323 0.428-0.277-0.026-0.441-0.013-0.468 0.040-0.033 0.053 0.388 0.072 1.567 0.072 1.034 0 1.62-0.026 1.62-0.066s-0.198-0.066-0.461-0.066h-0.454l-0.237-0.362c-0.125-0.204-0.309-0.507-0.402-0.678s-0.224-0.402-0.296-0.507c-0.066-0.112-0.151-0.257-0.191-0.329-0.151-0.277-0.25-0.441-0.323-0.514-0.040-0.040-0.072-0.112-0.072-0.158 0-0.040-0.079-0.191-0.171-0.329s-0.198-0.309-0.23-0.382c-0.040-0.072-0.099-0.191-0.145-0.263-0.309-0.507-0.421-0.586-0.553-0.415zM28.24 15.302c0.040 0.046 0.145 0.217 0.23 0.375 0.237 0.461 0.329 0.612 0.421 0.731 0.053 0.059 0.079 0.158 0.066 0.224-0.020 0.105-0.099 0.119-0.724 0.099-0.402-0.007-0.757 0.013-0.83 0.053-0.112 0.059-0.138 0.046-0.171-0.079-0.020-0.086 0-0.171 0.046-0.211s0.112-0.112 0.138-0.165c0.053-0.112 0.125-0.237 0.375-0.626 0.092-0.145 0.184-0.316 0.211-0.382 0.053-0.132 0.132-0.145 0.237-0.020z"></path>
<path d="M0.435 14.196c-0.072 0.072-0.105 0.23-0.105 0.52 0 0.619 0.204 0.639 0.29 0.033 0.026-0.165 0.066-0.336 0.099-0.382 0.059-0.099 2.956-0.151 2.989-0.053 0.013 0.033-0.441 0.514-1.001 1.067-2.351 2.298-2.706 2.66-2.706 2.726 0 0.046 0.836 0.066 2.568 0.066 2.97 0 2.7 0.079 2.7-0.784 0-0.408-0.020-0.533-0.092-0.533-0.165 0-0.237 0.171-0.277 0.685-0.026 0.277-0.066 0.5-0.086 0.5-2.463 0.033-3.299 0.026-3.325-0.040-0.026-0.059 2.515-2.601 3.602-3.608 0.099-0.092 0.178-0.198 0.178-0.23 0-0.046-0.803-0.072-2.364-0.072-2.067 0-2.384 0.013-2.469 0.105z"></path>
<path d="M16.362 14.156c-0.066 0.105 0.138 0.151 0.5 0.119 0.546-0.053 0.527-0.132 0.507 1.903-0.013 0.981-0.040 1.811-0.066 1.837s-0.244 0.040-0.474 0.033c-0.237-0.007-0.441 0.020-0.468 0.059-0.026 0.046 0.468 0.066 1.58 0.066 1.067 0 1.607-0.020 1.58-0.066-0.020-0.033-0.23-0.066-0.461-0.066-0.316 0-0.421-0.026-0.454-0.105-0.079-0.198-0.046-1.64 0.040-1.725 0.046-0.046 0.283-0.079 0.612-0.079 0.619 0 0.705 0.059 1.001 0.658 0.026 0.053 0.171 0.309 0.329 0.566s0.283 0.5 0.283 0.533c0 0.033 0.059 0.105 0.132 0.171 0.112 0.092 0.283 0.112 1.093 0.112 0.645 0 0.942-0.020 0.915-0.066-0.026-0.040-0.191-0.066-0.362-0.059-0.336 0.020-0.494-0.059-0.599-0.303-0.033-0.072-0.119-0.224-0.191-0.329-0.072-0.112-0.158-0.257-0.198-0.329s-0.125-0.224-0.198-0.329c-0.309-0.474-0.323-0.691-0.026-0.691 0.625 0 1.021-0.856 0.691-1.501-0.25-0.481-0.204-0.474-3.121-0.474-1.679 0-2.621 0.026-2.647 0.066zM20.714 14.42c0.25 0.191 0.356 0.369 0.356 0.619 0 0.283-0.198 0.658-0.415 0.777-0.171 0.092-1.508 0.158-1.85 0.092l-0.237-0.046v-0.757c0-0.685 0.013-0.757 0.125-0.803 0.23-0.086 1.883 0.007 2.021 0.119z"></path>
</svg>
