<?xml version="1.0" standalone="no"?>
<!DOCTYPE svg PUBLIC "-//W3C//DTD SVG 20010904//EN"
 "http://www.w3.org/TR/2001/REC-SVG-20010904/DTD/svg10.dtd">
<svg version="1.0" xmlns="http://www.w3.org/2000/svg"
 width="462.000000pt" height="123.000000pt" viewBox="0 0 462.000000 123.000000"
 preserveAspectRatio="xMidYMid meet">
<metadata>
Created by potrace 1.10, written by Peter Selinger 2001-2011
</metadata>
<g transform="translate(0.000000,123.000000) scale(0.100000,-0.100000)"
fill="#000000" stroke="none">
<path d="M2100 1207 c0 -12 6 -31 13 -42 10 -16 11 -61 6 -200 -4 -99 -9 -189
-10 -200 -4 -18 2 -20 49 -23 54 -3 67 9 40 36 -9 9 -15 60 -19 145 -4 73 -10
142 -14 155 -6 18 -4 22 14 22 12 0 25 -8 28 -17 8 -22 204 -290 234 -320 12
-13 26 -20 30 -17 12 7 11 61 -1 69 -7 4 -9 39 -5 93 3 48 7 121 10 162 2 41
7 85 11 98 6 21 3 22 -41 22 -41 0 -46 -2 -40 -17 11 -25 23 -256 15 -266 -4
-4 -40 36 -80 89 -108 145 -138 177 -181 200 -16 8 -27 19 -24 24 4 6 -3 10
-14 10 -15 0 -21 -6 -21 -23z"/>
<path d="M3520 1195 c-13 -16 -5 -35 13 -35 16 0 66 -57 84 -95 7 -16 17 -37
22 -45 27 -50 31 -67 31 -139 0 -44 -4 -83 -10 -86 -5 -3 -10 -18 -10 -32 0
-21 3 -24 23 -19 12 3 35 6 50 6 29 0 29 0 22 48 -3 26 -6 77 -7 114 -1 59 2
71 28 105 49 64 104 149 104 160 0 15 -22 22 -53 16 -20 -4 -27 -11 -27 -28 0
-13 -11 -45 -24 -72 -13 -26 -27 -56 -30 -67 -9 -26 -31 -6 -63 60 -30 61 -65
97 -110 112 -25 8 -34 8 -43 -3z"/>
<path d="M4363 1196 c-17 -7 -46 -24 -62 -39 -25 -22 -31 -35 -31 -69 0 -56
31 -99 97 -133 74 -39 93 -60 93 -100 0 -26 -7 -38 -29 -54 -16 -12 -35 -21
-43 -21 -25 0 -68 24 -73 41 -5 15 -33 28 -57 29 -12 0 -9 -32 5 -58 30 -53
142 -71 197 -32 46 33 72 83 65 124 -7 36 -48 88 -77 99 -41 15 -100 60 -109
85 -8 20 -7 35 5 59 14 30 20 33 60 33 35 0 46 -4 51 -18 6 -20 49 -45 59 -35
10 11 6 47 -7 65 -12 15 -32 23 -89 32 -13 1 -37 -2 -55 -8z"/>
<path d="M3005 1192 c-137 -3 -138 -3 -120 -39 23 -43 21 -320 -2 -368 -20
-41 -15 -49 21 -35 18 7 33 7 46 0 10 -5 55 -10 100 -10 92 0 130 16 130 56 0
31 -24 41 -46 20 -13 -13 -32 -16 -93 -14 l-76 3 0 75 0 75 55 -3 c30 -2 67
-10 82 -17 33 -16 37 -12 31 38 -5 35 -7 37 -42 37 -20 0 -54 -5 -76 -10 -50
-11 -56 -3 -53 80 l3 65 59 3 c41 2 63 -1 75 -12 9 -8 28 -18 44 -21 32 -8 37
11 11 50 -20 30 -20 30 -149 27z"/>
<path d="M26 1168 c13 -36 17 -368 4 -368 -5 0 -10 -11 -10 -24 0 -21 5 -24
61 -30 101 -10 127 -7 167 18 45 28 72 65 79 110 4 27 -1 40 -27 69 -18 21
-38 37 -46 37 -20 0 -17 17 7 43 47 50 44 91 -10 140 -29 26 -36 27 -132 27
-101 0 -101 0 -93 -22z m178 -32 c17 -15 26 -34 26 -53 0 -48 -63 -93 -110
-78 -17 5 -20 15 -20 58 0 83 7 97 46 97 21 0 42 -9 58 -24z m-13 -176 c63 0
93 -94 45 -139 -29 -27 -99 -39 -121 -21 -22 18 -21 137 1 161 12 14 21 16 35
9 10 -6 28 -10 40 -10z"/>
<path d="M816 1130 c-10 -32 -24 -64 -32 -71 -8 -6 -14 -23 -14 -36 0 -14 -6
-37 -13 -51 -25 -49 -46 -97 -52 -122 -4 -14 -14 -33 -22 -42 -21 -24 -13 -62
15 -66 33 -5 55 17 48 48 -3 15 1 36 9 47 7 10 15 32 17 48 3 28 6 30 62 37
66 8 86 0 86 -37 0 -12 7 -28 15 -35 9 -7 15 -29 15 -55 0 -42 0 -42 42 -48
23 -3 46 -3 50 -1 15 9 8 41 -12 59 -11 10 -20 24 -20 31 0 7 -8 27 -17 46 -9
18 -22 45 -30 60 -7 14 -13 33 -13 41 0 9 -8 30 -17 49 -9 18 -22 45 -30 60
-7 14 -13 37 -13 50 0 28 -17 48 -40 48 -11 0 -22 -19 -34 -60z m44 -78 c0
-10 7 -28 16 -40 23 -34 10 -60 -30 -60 -41 0 -52 24 -30 66 8 15 14 33 14 40
0 6 7 12 15 12 8 0 15 -8 15 -18z"/>
<path d="M1425 1180 c-3 -5 0 -20 7 -32 20 -35 20 -315 1 -345 -17 -25 -14
-58 5 -57 6 1 31 2 53 3 40 1 41 2 35 29 -12 47 -27 154 -23 158 11 12 39 -14
92 -86 33 -44 62 -80 65 -80 4 0 17 -9 30 -20 25 -22 56 -25 80 -10 13 8 11
13 -12 35 -15 14 -31 25 -35 25 -5 0 -15 8 -24 18 -8 9 -34 39 -57 65 -23 27
-42 53 -42 58 0 5 15 16 33 25 42 20 77 71 77 114 0 26 -9 42 -40 72 l-41 38
-99 0 c-54 0 -102 -4 -105 -10z m185 -42 c25 -18 30 -29 30 -62 -1 -68 -68
-124 -118 -97 -17 9 -19 18 -15 83 3 40 6 79 8 86 7 20 63 14 95 -10z"/>
<path d="M17 463 c-12 -11 -8 -29 13 -53 14 -16 17 -27 11 -39 -5 -9 -11 -93
-12 -186 l-3 -170 38 -3 c37 -3 38 -2 31 20 -12 33 -22 311 -13 323 8 9 57
-40 58 -58 0 -4 40 -61 90 -127 50 -66 90 -124 90 -129 0 -6 9 -15 21 -22 34
-18 45 2 31 57 -8 28 -9 51 -3 62 5 9 11 83 13 165 l4 147 -43 0 c-44 0 -50
-8 -34 -38 15 -29 18 -245 4 -249 -7 -3 -16 4 -20 14 -4 10 -47 71 -96 136
-96 129 -154 177 -180 150z"/>
<path d="M2113 453 c-4 -11 1 -22 16 -32 42 -29 67 -59 95 -116 16 -30 33 -58
38 -61 6 -4 8 -53 6 -118 l-3 -111 42 -2 c44 -2 61 9 45 30 -5 7 -12 49 -15
94 -6 80 -6 83 24 120 55 70 120 175 115 188 -3 8 -16 10 -42 6 -36 -6 -39 -9
-46 -50 -4 -25 -11 -47 -15 -50 -5 -3 -16 -23 -25 -43 -19 -40 -48 -51 -48
-19 0 10 -7 24 -15 31 -8 7 -15 19 -15 27 0 23 -57 90 -92 107 -40 20 -57 20
-65 -1z"/>
<path d="M2965 460 c-3 -5 -15 -10 -27 -10 -11 0 -43 -23 -73 -55 -45 -46 -54
-62 -62 -110 -11 -60 -1 -146 20 -173 35 -45 91 -90 126 -100 150 -45 281 55
281 214 0 97 -54 181 -144 225 -42 20 -111 26 -121 9z m137 -87 c38 -40 68
-112 68 -163 0 -42 -37 -121 -67 -144 -36 -27 -133 -25 -169 3 -53 41 -70 100
-66 219 2 36 8 49 44 82 38 37 46 40 98 40 52 0 59 -3 92 -37z"/>
<path d="M3615 453 c-59 -5 -72 -14 -50 -37 25 -25 32 -341 9 -367 -23 -26
-10 -38 39 -36 l42 2 -4 65 c-2 36 -4 76 -5 89 -2 41 17 33 54 -20 69 -101
125 -149 174 -149 36 0 33 26 -4 49 -17 10 -45 35 -63 56 -17 22 -40 47 -49
57 -26 26 -22 47 10 60 63 28 86 81 66 155 -15 54 -106 85 -219 76z m137 -70
c52 -56 10 -153 -68 -153 l-34 0 0 83 c0 46 5 88 10 93 17 17 66 4 92 -23z"/>
<path d="M4509 453 c-15 -2 -31 -14 -36 -26 -22 -48 -119 -167 -136 -167 -19
0 -19 7 4 123 13 68 14 67 -40 67 -56 0 -71 -13 -47 -39 13 -15 16 -45 16
-182 0 -110 -4 -169 -11 -176 -20 -20 -2 -43 33 -43 47 0 61 11 50 41 -5 13
-12 52 -16 86 -6 53 -5 63 8 63 9 0 24 -12 33 -27 41 -64 120 -145 156 -161
34 -14 97 -16 97 -2 0 6 -5 10 -10 10 -31 0 -236 199 -228 222 2 4 42 47 91
97 60 61 85 94 81 105 -3 9 -9 15 -13 15 -3 -1 -18 -4 -32 -6z"/>
<path d="M727 426 c6 -17 8 -103 8 -407 0 0 61 -3 136 -6 l136 -5 12 32 c17
51 -3 67 -37 30 -17 -18 -29 -21 -98 -18 l-79 3 -3 73 c-2 53 1 74 10 77 12 5
110 -6 148 -16 11 -3 16 7 18 39 l3 44 -58 -7 c-60 -6 -89 -8 -110 -6 -15 1
-16 120 -1 138 17 21 111 16 141 -7 45 -36 78 -17 53 31 -11 23 -15 24 -150
25 -136 1 -138 1 -129 -20z"/>
<path d="M1296 442 c-3 -4 2 -19 9 -33 32 -55 65 -133 65 -152 0 -9 6 -28 14
-44 23 -46 38 -95 45 -143 5 -40 9 -45 31 -45 22 0 26 5 31 45 3 25 15 74 27
110 12 36 24 78 27 93 7 34 29 31 33 -4 2 -13 10 -38 18 -56 8 -17 14 -42 14
-56 0 -14 4 -28 9 -31 4 -3 11 -28 15 -56 5 -41 10 -50 27 -50 21 0 34 24 44
83 3 20 10 37 15 37 6 0 10 11 10 24 0 14 7 31 15 40 8 8 15 23 15 33 0 10 6
30 14 45 8 15 17 41 21 59 4 18 14 39 21 47 8 7 14 25 14 38 0 23 -3 25 -37
22 -37 -3 -38 -4 -39 -46 0 -24 -6 -48 -12 -54 -7 -7 -12 -23 -12 -38 -1 -14
-7 -36 -15 -50 -8 -14 -14 -44 -15 -67 0 -24 -4 -43 -10 -43 -14 0 -37 39 -45
75 -4 17 -13 47 -21 68 -8 20 -14 53 -14 73 0 42 -15 74 -35 74 -19 0 -31 -25
-39 -85 -3 -27 -15 -66 -26 -87 -11 -21 -20 -54 -20 -73 0 -19 -5 -35 -11 -35
-11 0 -37 54 -50 105 -9 36 -29 94 -39 116 -4 8 -4 23 2 32 5 10 6 22 3 27 -7
12 -92 14 -99 2z"/>
</g>
</svg>
