<?xml version="1.0" standalone="no"?>
<!DOCTYPE svg PUBLIC "-//W3C//DTD SVG 20010904//EN"
 "http://www.w3.org/TR/2001/REC-SVG-20010904/DTD/svg10.dtd">
<svg version="1.0" xmlns="http://www.w3.org/2000/svg"
 width="390.000000pt" height="210.000000pt" viewBox="0 0 390.000000 210.000000"
 preserveAspectRatio="xMidYMid meet">
<metadata>
Created by potrace 1.10, written by Peter Selinger 2001-2011
</metadata>
<g transform="translate(0.000000,210.000000) scale(0.100000,-0.100000)"
fill="#000000" stroke="none">
<path d="M2070 1891 c0 -230 2 -236 60 -206 16 8 36 15 45 15 9 0 69 25 133
56 187 90 297 113 379 79 19 -8 44 -15 54 -15 10 0 23 -9 29 -20 13 -24 9 -25
-65 -35 -69 -9 -105 -44 -105 -100 0 -79 70 -113 181 -90 38 8 77 19 86 23 10
5 36 18 58 28 22 10 77 45 122 76 168 117 246 148 369 148 89 0 184 -24 184
-47 0 -7 -10 -13 -22 -13 -81 0 -158 -56 -158 -114 1 -96 121 -121 325 -66 61
16 120 30 133 30 l22 0 0 230 0 230 -915 0 -915 0 0 -209z"/>
<path d="M3320 1376 c-72 -16 -162 -59 -230 -111 -180 -136 -366 -198 -440
-149 -40 27 -50 45 -50 89 0 62 53 105 129 105 54 0 59 14 14 41 -32 20 -51
23 -137 23 -115 1 -135 -5 -321 -94 -66 -32 -136 -61 -156 -64 -21 -4 -42 -13
-48 -20 -8 -9 -11 -66 -9 -172 l3 -159 913 -3 912 -2 0 156 0 156 -57 -7 c-31
-4 -68 -12 -82 -17 -35 -14 -159 -38 -197 -38 -98 0 -171 65 -145 128 20 48
52 71 111 79 45 7 55 12 55 28 0 16 -12 21 -70 31 -87 15 -125 15 -195 0z"/>
<path d="M2185 656 c-22 -6 -53 -19 -70 -28 -39 -21 -115 -95 -115 -112 0 -7
-9 -21 -21 -32 -17 -16 -22 -16 -29 -4 -6 8 -10 28 -10 43 0 34 -34 82 -77
108 -44 27 -251 40 -271 17 -9 -12 -12 -88 -10 -324 l3 -309 100 -3 c161 -5
197 2 244 50 23 22 41 49 41 59 0 23 25 25 42 3 31 -38 73 -73 107 -90 20 -9
44 -21 53 -25 30 -15 176 -10 229 7 54 18 149 97 171 142 7 14 19 28 27 30 11
4 13 -13 10 -84 l-4 -89 56 -3 c37 -2 59 1 65 10 5 8 7 89 4 193 -3 99 -2 184
1 188 10 12 49 -11 49 -28 0 -8 20 -44 45 -81 25 -36 45 -67 45 -70 0 -2 20
-33 45 -70 25 -36 45 -68 45 -70 0 -3 12 -21 27 -40 25 -33 28 -35 82 -32 l56
3 -1 92 c-1 51 0 93 3 93 16 0 43 -24 43 -39 0 -27 88 -108 146 -136 45 -21
67 -25 148 -25 52 0 98 4 101 10 3 6 14 10 24 10 27 0 106 61 144 110 37 50
70 144 65 187 l-3 28 -199 3 c-218 3 -216 3 -216 -55 0 -46 21 -53 149 -53
125 0 132 -5 78 -58 -55 -54 -139 -74 -208 -50 -91 31 -139 101 -139 204 0 75
23 121 86 169 35 27 46 30 114 30 70 0 79 -3 120 -32 39 -30 51 -33 112 -33
37 0 68 4 68 8 0 37 -77 125 -135 155 -107 56 -265 47 -353 -19 -50 -38 -96
-90 -102 -117 -3 -12 -15 -23 -27 -25 -20 -3 -20 0 -15 87 l5 90 -38 7 c-21 4
-50 3 -64 -2 l-26 -10 0 -192 c1 -106 -1 -192 -3 -192 -13 0 -42 23 -42 34 0
7 -12 31 -27 53 -38 54 -52 76 -60 93 -3 8 -19 31 -35 51 -15 20 -28 40 -28
44 0 4 -13 24 -30 45 -16 21 -30 43 -30 49 0 26 -93 41 -129 21 -16 -8 -18
-20 -14 -90 4 -69 2 -80 -11 -80 -9 0 -21 10 -25 23 -11 27 -54 73 -102 110
-69 52 -188 70 -284 43z m-363 -149 c5 -10 7 -34 3 -53 -5 -27 -13 -37 -43
-50 -26 -11 -43 -12 -58 -5 -19 8 -22 18 -21 71 0 53 3 63 21 69 27 11 85 -8
98 -32z m583 -10 c24 -17 44 -36 45 -41 0 -5 8 -18 17 -28 12 -13 16 -37 16
-91 0 -61 -4 -79 -26 -113 -76 -121 -218 -136 -318 -33 -36 37 -48 58 -56 99
-17 86 16 171 85 216 68 44 170 41 237 -9z m-455 -111 c0 -25 -12 -46 -26 -46
-20 0 -29 27 -14 45 16 19 40 19 40 1z m-123 -115 c51 -42 48 -115 -5 -138
-50 -23 -88 -26 -104 -9 -19 18 -23 133 -6 154 16 19 89 14 115 -7z"/>
<path d="M0 316 l0 -316 124 0 c167 0 218 13 258 62 28 36 30 44 30 121 l0 82
-43 38 -44 39 25 22 c28 24 60 84 60 113 -1 29 -35 96 -64 123 -27 24 -33 25
-187 29 l-159 3 0 -316z m287 252 c41 -18 63 -48 63 -91 0 -85 -64 -120 -210
-115 l-85 3 -3 94 c-1 52 -1 100 2 108 7 17 193 18 233 1z m11 -271 c65 -35
88 -107 57 -180 -22 -52 -73 -69 -200 -65 l-100 3 -3 119 c-1 66 0 126 3 134
8 21 198 12 243 -11z"/>
<path d="M462 621 c-11 -6 -12 -68 -9 -305 4 -294 9 -338 37 -310 14 14 9 616
-5 621 -5 1 -16 -1 -23 -6z"/>
<path d="M567 623 c-9 -8 -9 -586 -1 -607 5 -14 42 -16 313 -16 311 0 331 2
331 37 0 10 -22 13 -84 13 -114 0 -121 15 -38 84 l44 36 159 0 c182 0 172 5
173 -93 1 -46 5 -62 19 -71 14 -9 20 -8 27 4 6 9 9 135 7 315 -2 267 -4 300
-18 303 -19 4 -80 -56 -263 -258 -129 -142 -299 -320 -305 -320 -32 1 -34 17
-32 287 2 237 0 271 -14 283 -34 28 -38 0 -36 -273 2 -232 0 -266 -14 -281
-13 -12 -37 -16 -105 -16 -49 0 -95 3 -104 6 -14 5 -16 40 -16 284 0 244 -2
279 -16 284 -19 7 -19 7 -27 -1z m904 -241 c-2 -82 -7 -153 -13 -159 -7 -9
-48 -13 -139 -13 -120 0 -129 1 -129 19 0 10 7 25 17 32 18 15 192 215 214
246 14 20 40 34 48 26 3 -2 4 -70 2 -151z"/>
<path d="M3765 98 c-6 -16 -9 -47 -7 -75 2 -21 7 -23 56 -23 40 0 55 4 60 16
3 8 10 12 16 9 6 -4 10 7 10 27 0 39 -30 58 -92 58 -22 0 -41 -5 -43 -12z"/>
</g>
</svg>
