<?xml version="1.0" standalone="no"?>
<!DOCTYPE svg PUBLIC "-//W3C//DTD SVG 20010904//EN"
 "http://www.w3.org/TR/2001/REC-SVG-20010904/DTD/svg10.dtd">
<svg version="1.0" xmlns="http://www.w3.org/2000/svg"
 width="300.000000pt" height="263.000000pt" viewBox="0 0 300.000000 263.000000"
 preserveAspectRatio="xMidYMid meet">
<metadata>
Created by potrace 1.10, written by Peter Selinger 2001-2011
</metadata>
<g transform="translate(0.000000,263.000000) scale(0.050000,-0.050000)"
fill="#000000" stroke="none">
<path d="M5338 5238 c-187 -29 -20 126 -2158 -1992 -1385 -1372 -1331 -1322
-1460 -1336 -535 -55 -824 -281 -1030 -802 -115 -290 -241 -399 -539 -467
l-139 -32 89 -86 c476 -462 1091 -623 1688 -442 576 175 871 509 871 984 l0
129 265 257 c1374 1330 2975 2940 3014 3032 178 414 -149 825 -601 755z m226
-395 c153 -138 215 -62 -1145 -1407 -665 -657 -1214 -1195 -1220 -1196 -17 0
-259 240 -257 256 4 24 2354 2332 2413 2369 78 50 135 43 209 -22z m-2819
-3068 l-196 -196 -137 133 -137 132 197 198 197 198 136 -135 135 -134 -195
-196z m-593 -320 c206 -206 245 -411 119 -624 -239 -408 -1217 -638 -1572
-370 l-46 35 109 120 c70 78 147 197 215 336 213 431 503 628 952 645 72 3 89
-8 223 -142z"/>
</g>
</svg>
