<?xml version="1.0" standalone="no"?>
<!DOCTYPE svg PUBLIC "-//W3C//DTD SVG 20010904//EN"
 "http://www.w3.org/TR/2001/REC-SVG-20010904/DTD/svg10.dtd">
<svg version="1.0" xmlns="http://www.w3.org/2000/svg"
 width="453.000000pt" height="72.000000pt" viewBox="0 0 453.000000 72.000000"
 preserveAspectRatio="xMidYMid meet">
<metadata>
Created by potrace 1.10, written by Peter Selinger 2001-2011
</metadata>
<g transform="translate(0.000000,72.000000) scale(0.100000,-0.100000)"
fill="#000000" stroke="none">
<path d="M270 710 c0 -6 -12 -15 -27 -21 -59 -24 -90 -43 -136 -88 -72 -68
-107 -152 -107 -256 0 -122 48 -222 137 -286 81 -58 86 -59 227 -58 111 0 136
3 161 20 17 10 39 23 50 28 23 10 95 94 95 110 0 6 -15 11 -32 11 -25 0 -44
-11 -77 -42 -64 -61 -108 -78 -202 -78 -61 0 -89 5 -121 21 -42 21 -128 103
-128 122 0 6 -6 18 -14 26 -7 9 -18 40 -23 69 -20 106 27 226 117 295 50 38
124 67 169 67 55 0 130 -33 197 -86 69 -55 100 -66 110 -39 12 30 -124 154
-168 155 -10 0 -27 9 -38 20 -17 17 -33 20 -105 20 -51 0 -85 -4 -85 -10z"/>
<path d="M3165 710 c3 -6 -5 -14 -19 -20 -33 -12 -49 -29 -126 -130 -35 -46
-71 -91 -79 -101 -9 -9 -36 -44 -61 -77 -25 -34 -51 -61 -58 -61 -10 -1 -12
37 -12 175 1 147 -1 179 -14 192 -12 13 -18 13 -31 2 -13 -11 -15 -54 -13
-349 l3 -336 25 0 c24 0 25 2 30 90 4 80 9 96 38 143 20 31 41 52 51 52 10 0
31 -19 47 -42 16 -24 31 -45 34 -48 15 -14 70 -89 70 -95 0 -6 22 -32 73 -86
9 -11 28 -19 42 -19 30 0 45 28 24 44 -13 10 -213 271 -232 303 -5 7 21 49 64
105 93 119 151 190 166 203 16 13 5 65 -14 65 -8 0 -11 -5 -8 -10z"/>
<path d="M1321 686 c-8 -9 -11 -109 -9 -347 3 -316 4 -334 22 -337 10 -2 22 0
28 6 15 15 13 659 -2 677 -15 19 -24 19 -39 1z"/>
<path d="M1917 683 c-4 -3 -7 -26 -7 -50 0 -47 19 -65 49 -46 18 11 23 70 8
91 -10 13 -39 16 -50 5z"/>
<path d="M3242 678 c-9 -9 -12 -96 -12 -328 0 -307 1 -317 21 -336 15 -14 24
-16 37 -7 15 9 17 43 20 338 1 255 -1 331 -10 337 -19 11 -42 10 -56 -4z"/>
<path d="M3946 675 c-21 -55 8 -114 45 -94 16 8 19 19 17 57 -3 42 -6 47 -29
50 -17 2 -29 -3 -33 -13z"/>
<path d="M885 513 c-55 -22 -121 -77 -152 -127 -23 -35 -27 -52 -27 -121 0
-63 4 -89 22 -122 26 -51 99 -123 123 -123 10 0 21 -4 24 -10 9 -14 159 -12
192 2 15 7 38 23 49 35 28 30 42 29 46 -3 4 -38 35 -55 54 -30 22 30 21 468
-2 490 -23 23 -58 3 -51 -30 7 -36 -10 -39 -43 -8 -62 59 -158 78 -235 47z
m157 -64 c26 -13 58 -41 81 -71 35 -48 37 -55 36 -122 0 -64 -4 -76 -33 -116
-57 -79 -150 -109 -234 -74 -39 16 -92 61 -92 78 0 5 -7 17 -16 27 -11 12 -16
38 -16 88 0 65 3 73 37 118 66 87 153 113 237 72z"/>
<path d="M2198 510 c-20 -11 -40 -24 -43 -30 -10 -17 -30 -11 -40 12 -12 25
-25 31 -43 20 -10 -7 -13 -64 -13 -252 0 -137 4 -247 10 -253 5 -5 17 -7 27
-5 17 3 19 18 24 183 5 167 7 182 28 212 67 94 168 96 241 4 l31 -39 0 -170
c0 -142 3 -172 16 -183 11 -9 20 -10 32 -2 15 9 17 33 17 189 0 159 -2 182
-19 209 -34 53 -70 86 -115 106 -55 24 -106 24 -153 -1z"/>
<path d="M3530 512 c-24 -9 -67 -40 -95 -67 -84 -85 -108 -195 -60 -285 14
-25 27 -52 30 -60 7 -18 77 -70 118 -87 37 -16 168 -17 204 -1 45 20 89 56
118 98 50 72 -6 85 -73 16 -60 -62 -102 -80 -169 -73 -53 6 -106 35 -141 77
-21 26 -43 83 -34 92 4 4 109 9 232 10 l225 3 3 40 c12 158 -200 298 -358 237z
m173 -61 c48 -22 87 -61 106 -109 12 -29 12 -35 0 -43 -8 -5 -94 -9 -192 -9
-191 0 -197 2 -178 51 14 37 67 91 109 111 49 23 103 23 155 -1z"/>
<path d="M4240 512 c-19 -9 -39 -23 -43 -29 -12 -19 -35 -16 -47 8 -7 13 -19
19 -33 17 -22 -3 -22 -5 -25 -233 -1 -126 0 -240 3 -253 6 -24 34 -29 53 -10
8 8 12 63 12 179 0 192 10 223 81 259 73 38 144 16 194 -58 24 -35 25 -43 25
-202 0 -176 4 -190 47 -190 l23 0 0 200 c0 147 -3 199 -12 197 -6 -1 -17 8
-23 21 -33 62 -116 113 -184 111 -20 0 -52 -8 -71 -17z"/>
<path d="M1418 513 c-22 -5 -23 -36 -3 -53 8 -7 15 -21 15 -32 0 -11 6 -32 14
-46 18 -36 41 -87 61 -142 16 -43 32 -81 60 -145 8 -16 16 -39 19 -51 8 -25
49 -49 70 -41 15 6 25 26 60 112 19 46 46 107 62 138 8 16 14 35 14 44 0 8 6
27 13 41 8 15 21 42 30 60 9 19 17 42 17 52 0 10 5 22 10 25 18 11 11 35 -11
35 -32 0 -59 -19 -59 -41 0 -12 -6 -33 -13 -47 -13 -26 -35 -73 -62 -137 -18
-44 -41 -106 -51 -140 -12 -40 -54 -49 -54 -12 0 14 -7 39 -15 56 -8 17 -22
45 -30 62 -8 17 -15 37 -15 44 0 7 -8 28 -17 47 -9 18 -22 45 -30 60 -7 14
-13 34 -13 45 0 15 -45 76 -53 72 -1 -1 -10 -3 -19 -6z"/>
<path d="M1921 506 c-8 -9 -11 -86 -9 -257 3 -228 4 -244 22 -247 10 -2 22 0
28 6 5 5 9 112 9 252 0 189 -3 245 -13 251 -18 12 -24 11 -37 -5z"/>
<path d="M3957 505 c-12 -11 -15 -56 -15 -242 0 -125 4 -236 9 -245 12 -22 45
-23 53 -2 3 9 6 121 6 249 0 221 -1 235 -19 245 -15 7 -23 6 -34 -5z"/>
</g>
</svg>
