<?xml version="1.0" standalone="no"?>
<!DOCTYPE svg PUBLIC "-//W3C//DTD SVG 20010904//EN"
 "http://www.w3.org/TR/2001/REC-SVG-20010904/DTD/svg10.dtd">
<svg version="1.0" xmlns="http://www.w3.org/2000/svg"
 width="339.000000pt" height="207.000000pt" viewBox="0 0 339.000000 207.000000"
 preserveAspectRatio="xMidYMid meet">
<metadata>
Created by potrace 1.10, written by Peter Selinger 2001-2011
</metadata>
<g transform="translate(0.000000,207.000000) scale(0.100000,-0.100000)"
fill="#000000" stroke="none">
<path d="M1493 2058 c1 -6 -14 -16 -33 -21 -80 -21 -168 -59 -220 -96 -159
-113 -241 -223 -306 -411 -27 -79 -27 -321 0 -400 20 -59 43 -115 57 -140 5
-8 13 -24 18 -35 19 -40 108 -141 171 -192 102 -82 195 -124 325 -148 100 -19
158 -19 260 -1 175 31 324 118 440 257 31 37 79 111 90 139 4 8 12 29 19 45
37 85 49 152 49 275 0 139 -22 239 -75 330 -4 8 -11 22 -15 30 -16 37 -114
152 -168 199 -67 58 -218 135 -282 146 -27 4 -43 12 -43 21 0 11 -27 14 -145
14 -105 0 -144 -3 -142 -12z m368 -148 c40 -16 96 -46 125 -65 50 -35 153
-137 167 -166 4 -8 16 -27 27 -44 11 -16 22 -37 26 -45 3 -8 10 -26 16 -40 19
-47 38 -155 38 -220 0 -92 -35 -242 -66 -281 -6 -8 -14 -21 -18 -29 -34 -73
-129 -171 -221 -227 -32 -20 -107 -53 -119 -53 -6 0 -29 -7 -51 -15 -25 -9
-80 -14 -145 -14 -153 -1 -265 38 -390 134 -53 41 -135 135 -153 175 -4 8 -11
22 -15 30 -79 137 -91 360 -27 505 8 17 16 37 19 45 27 71 148 206 231 257
115 71 211 94 371 87 95 -3 123 -9 185 -34z"/>
<path d="M1617 1743 c-4 -3 -7 -19 -7 -34 0 -16 -6 -43 -14 -61 -8 -18 -24
-64 -36 -103 -12 -38 -27 -73 -33 -77 -7 -4 -78 -8 -159 -8 -82 0 -148 -4
-148 -8 0 -8 70 -62 111 -87 10 -5 42 -28 74 -50 52 -37 56 -42 52 -75 -2 -19
-9 -50 -16 -67 -28 -82 -34 -100 -38 -125 -3 -15 -11 -33 -19 -39 -17 -14 -18
-49 -1 -49 7 0 34 17 59 38 104 82 178 132 198 132 11 0 72 -39 135 -86 64
-48 118 -84 122 -81 6 7 -17 85 -63 207 -33 89 -33 89 63 161 49 36 103 74
121 84 62 37 44 44 -119 47 -166 3 -154 -2 -182 73 -31 86 -47 141 -47 166 0
37 -33 63 -53 42z"/>
<path d="M50 353 c-41 -15 -50 -43 -50 -175 0 -76 5 -137 12 -153 11 -25 12
-25 139 -25 107 0 128 3 133 16 11 29 -4 34 -93 34 -64 0 -92 4 -100 14 -8 9
-11 50 -9 117 l3 104 94 5 c73 4 96 9 104 22 8 12 7 21 -2 32 -11 13 -34 16
-115 15 -55 0 -108 -3 -116 -6z"/>
<path d="M441 347 c-15 -7 -28 -26 -34 -46 -13 -53 -5 -265 12 -284 11 -14 35
-17 147 -17 162 0 156 -6 157 159 0 145 -7 179 -40 192 -36 13 -213 11 -242
-4z m207 -166 c2 -67 -1 -108 -9 -117 -14 -17 -111 -19 -140 -4 -17 10 -19 22
-19 108 0 65 4 102 12 110 9 9 37 12 83 10 l70 -3 3 -104z"/>
<path d="M854 348 c-5 -7 -8 -88 -6 -180 l3 -168 34 0 c40 0 37 -12 35 148 -1
75 2 118 10 128 15 18 115 19 126 2 4 -7 7 -72 5 -145 l-3 -133 41 0 41 0 0
155 c0 152 -1 156 -25 180 -23 24 -30 25 -138 25 -80 0 -117 -4 -123 -12z"/>
<path d="M1247 347 c-3 -7 2 -31 10 -52 8 -22 18 -56 23 -75 4 -19 13 -48 19
-65 6 -16 20 -57 30 -90 l20 -60 68 -3 68 -3 13 38 c7 21 17 52 22 68 4 17 13
44 19 60 42 120 59 179 55 187 -9 14 -71 9 -84 -7 -7 -9 -16 -32 -20 -53 -5
-20 -13 -50 -18 -67 -6 -16 -19 -57 -30 -90 -10 -33 -23 -60 -27 -60 -8 0 -22
41 -45 135 -17 68 -35 125 -43 138 -11 16 -73 16 -80 -1z"/>
<path d="M1726 339 c-26 -20 -26 -21 -26 -168 0 -101 4 -151 12 -159 8 -8 51
-12 129 -12 98 0 118 3 123 16 11 28 -4 34 -84 34 -58 0 -83 4 -94 16 -40 40
-10 64 79 64 82 0 111 14 101 48 -7 20 -14 22 -84 22 -42 0 -82 4 -88 8 -18
12 -25 42 -14 62 9 16 24 20 92 22 62 2 83 7 91 20 8 12 7 21 -2 32 -11 13
-34 16 -111 16 -83 0 -101 -3 -124 -21z"/>
<path d="M2115 350 c-5 -9 -10 -266 -6 -340 1 -5 17 -10 36 -10 l35 0 0 49 c0
69 7 81 44 81 27 0 34 -6 55 -47 12 -27 26 -55 31 -63 7 -15 90 -28 90 -14 0
4 -12 31 -27 60 l-26 52 31 32 c29 29 32 37 32 93 0 46 -6 69 -20 87 -18 24
-24 25 -143 28 -87 3 -127 0 -132 -8z m210 -105 l0 -40 -58 -3 c-64 -3 -87 8
-87 42 0 37 20 47 85 44 l60 -3 0 -40z"/>
<path d="M2566 339 c-24 -19 -26 -27 -26 -93 0 -96 13 -108 113 -113 54 -2 75
-7 85 -20 14 -20 15 -23 2 -43 -7 -11 -35 -16 -107 -20 -92 -5 -98 -6 -101
-27 -3 -23 -3 -23 131 -23 134 0 134 0 145 25 20 43 15 119 -9 149 -19 24 -27
26 -89 26 -72 0 -100 14 -100 49 0 32 22 41 102 41 68 0 79 3 88 21 21 39 -2
49 -110 49 -83 0 -101 -3 -124 -21z"/>
<path d="M2986 339 c-26 -20 -26 -21 -26 -168 0 -101 4 -151 12 -159 8 -8 51
-12 129 -12 98 0 118 3 123 16 11 28 -4 34 -84 34 -69 0 -81 3 -94 22 -11 15
-12 26 -5 40 8 15 22 18 82 18 84 0 113 14 103 48 -7 20 -14 22 -84 22 -42 0
-83 4 -90 9 -8 5 -12 22 -10 42 l3 34 84 5 c64 4 86 9 94 22 8 12 7 21 -2 32
-11 13 -34 16 -111 16 -83 0 -101 -3 -124 -21z"/>
<path d="M3311 307 c-12 -15 -5 -27 16 -27 7 0 13 9 13 20 0 23 -13 26 -29 7z"/>
</g>
</svg>
