<?xml version="1.0" standalone="no"?>
<!DOCTYPE svg PUBLIC "-//W3C//DTD SVG 20010904//EN"
 "http://www.w3.org/TR/2001/REC-SVG-20010904/DTD/svg10.dtd">
<svg version="1.0" xmlns="http://www.w3.org/2000/svg"
 width="300.000000pt" height="300.000000pt" viewBox="0 0 300.000000 300.000000"
 preserveAspectRatio="xMidYMid meet">
<metadata>
Created by potrace 1.10, written by Peter Selinger 2001-2011
</metadata>
<g transform="translate(0.000000,300.000000) scale(0.050000,-0.050000)"
fill="#000000" stroke="none">
<path d="M2440 5720 c0 -319 30 -277 -230 -322 -1858 -317 -2812 -2569 -1764
-4163 1141 -1736 3775 -1598 4686 246 l67 136 175 -49 c265 -74 244 -80 339
100 588 1129 234 2669 -817 3547 -636 532 -1336 783 -2181 785 l-275 0 0 -280z
m998 -171 c896 -227 1646 -876 1983 -1717 237 -593 236 -1282 -1 -1753 -71
-139 -59 -137 -290 -57 -99 34 -589 201 -1090 372 -500 170 -982 335 -1070
365 l-160 55 -5 1406 -5 1406 215 -12 c126 -8 301 -34 423 -65z m-998 -1746
l0 -1257 805 -281 c443 -155 975 -341 1183 -413 208 -72 382 -136 387 -140 5
-5 -27 -76 -70 -157 -640 -1200 -2306 -1547 -3424 -714 -1397 1041 -1203 3151
365 3978 200 105 579 230 729 239 20 2 25 -262 25 -1255z"/>
</g>
</svg>
