<?xml version="1.0" standalone="no"?>
<!DOCTYPE svg PUBLIC "-//W3C//DTD SVG 20010904//EN"
 "http://www.w3.org/TR/2001/REC-SVG-20010904/DTD/svg10.dtd">
<svg version="1.0" xmlns="http://www.w3.org/2000/svg"
 width="60.000000pt" height="60.000000pt" viewBox="0 0 60.000000 60.000000"
 preserveAspectRatio="xMidYMid meet">
<metadata>
Created by potrace 1.10, written by Peter Selinger 2001-2011
</metadata>
<g transform="translate(0.000000,60.000000) scale(0.100000,-0.100000)"
fill="#000000" stroke="none">
<path d="M205 511 c-36 -16 -76 -50 -112 -95 -32 -39 -56 -167 -34 -180 4 -3
11 -18 14 -33 7 -33 61 -93 116 -128 32 -20 54 -25 101 -25 93 0 173 57 223
159 20 40 22 122 5 154 -37 66 -66 100 -113 132 -45 29 -62 35 -107 34 -29 0
-71 -9 -93 -18z m183 -57 c12 -8 22 -18 22 -23 0 -12 -63 -51 -82 -51 -17 0
-70 78 -62 91 8 13 93 1 122 -17z m-151 -29 c38 -60 35 -69 -27 -76 -30 -4
-62 -10 -71 -13 -11 -5 -19 -1 -23 9 -9 23 64 112 94 114 3 0 15 -15 27 -34z
m217 -41 c9 -8 16 -31 16 -50 0 -34 0 -34 -42 -32 -24 1 -49 0 -56 -3 -8 -2
-18 6 -23 19 -7 19 -5 24 14 31 12 5 31 18 41 30 23 25 30 26 50 5z m-149 -73
c5 -10 -45 -51 -63 -51 -6 0 -28 -20 -50 -45 l-39 -44 -22 22 c-13 15 -21 36
-21 60 l0 37 48 0 c26 1 58 7 72 15 29 16 66 19 75 6z m162 -67 c3 -9 1 -24
-5 -33 -7 -9 -16 -26 -22 -38 -5 -13 -18 -23 -28 -23 -15 0 -22 11 -29 50 -6
27 -8 52 -5 55 3 3 23 5 44 5 27 0 41 -5 45 -16z m-134 -26 c8 -18 17 -48 19
-67 3 -31 0 -35 -26 -42 -38 -11 -114 0 -132 18 -15 16 -19 33 -6 33 4 0 21
12 37 28 32 29 76 61 86 61 4 1 14 -14 22 -31z"/>
</g>
</svg>
