<?xml version="1.0" standalone="no"?>
<!DOCTYPE svg PUBLIC "-//W3C//DTD SVG 20010904//EN"
 "http://www.w3.org/TR/2001/REC-SVG-20010904/DTD/svg10.dtd">
<svg version="1.0" xmlns="http://www.w3.org/2000/svg"
 width="30.000000pt" height="60.000000pt" viewBox="0 0 30.000000 60.000000"
 preserveAspectRatio="xMidYMid meet">
<metadata>
Created by potrace 1.10, written by Peter Selinger 2001-2011
</metadata>
<g transform="translate(0.000000,60.000000) scale(0.100000,-0.100000)"
fill="#000000" stroke="none">
<path d="M91 504 c-14 -18 -21 -41 -21 -71 0 -38 -3 -45 -26 -53 -20 -8 -25
-16 -22 -38 2 -16 12 -31 25 -37 30 -13 31 -17 22 -119 -5 -49 -6 -93 -3 -97
3 -5 28 -9 55 -9 l51 0 -7 93 c-10 133 -12 125 30 133 32 6 35 9 35 40 0 32
-2 34 -35 34 -63 0 -59 62 4 68 29 3 31 6 31 43 l0 39 -59 0 c-52 0 -62 -3
-80 -26z"/>
</g>
</svg>
