<?xml version="1.0" standalone="no"?>
<!DOCTYPE svg PUBLIC "-//W3C//DTD SVG 20010904//EN"
 "http://www.w3.org/TR/2001/REC-SVG-20010904/DTD/svg10.dtd">
<svg version="1.0" xmlns="http://www.w3.org/2000/svg"
 width="900.000000pt" height="1107.000000pt" viewBox="0 0 900.000000 1107.000000"
 preserveAspectRatio="xMidYMid meet">
<metadata>
Created by potrace 1.10, written by Peter Selinger 2001-2011
</metadata>
<g transform="translate(0.000000,1107.000000) scale(0.100000,-0.100000)"
fill="#000000" stroke="none">
<path d="M1190 11056 c0 -15 -30 -26 -74 -26 -32 0 -122 -24 -174 -46 -18 -8
-40 -14 -48 -14 -14 0 -195 -85 -239 -113 -165 -103 -359 -297 -462 -462 -29
-45 -113 -225 -113 -240 0 -9 -5 -25 -11 -36 -14 -28 -37 -110 -51 -189 -18
-94 -18 -8716 0 -8810 14 -79 37 -161 51 -189 6 -11 11 -27 11 -36 0 -15 84
-195 113 -240 103 -165 297 -359 462 -462 45 -29 225 -113 240 -113 9 0 25 -5
36 -11 28 -14 110 -37 189 -51 94 -18 6646 -18 6740 0 79 14 161 37 189 51 11
6 27 11 36 11 15 0 195 84 240 113 165 103 359 297 462 462 28 44 113 225 113
239 0 8 6 30 14 48 22 52 46 142 46 174 0 44 11 74 26 74 12 0 14 651 14 4335
0 3684 -2 4335 -14 4335 -15 0 -26 30 -26 74 0 32 -24 122 -46 174 -8 18 -14
40 -14 48 0 14 -85 195 -113 239 -103 165 -297 359 -462 462 -44 28 -225 113
-239 113 -8 0 -30 6 -48 14 -52 22 -142 46 -174 46 -44 0 -74 11 -74 26 0 12
-497 14 -3300 14 -2803 0 -3300 -2 -3300 -14z m6545 -701 c22 -8 50 -15 62
-15 35 0 152 -60 231 -118 43 -33 91 -81 124 -124 58 -79 118 -196 118 -231 0
-12 7 -40 15 -62 12 -35 14 -614 15 -4276 0 -3741 -2 -4241 -15 -4279 -8 -23
-15 -54 -15 -67 0 -14 -6 -37 -14 -51 -7 -15 -22 -45 -32 -67 -36 -77 -125
-184 -197 -237 -78 -58 -195 -118 -230 -118 -12 0 -40 -7 -62 -15 -60 -21
-6430 -21 -6490 0 -22 8 -51 15 -63 15 -13 0 -36 6 -50 14 -15 7 -45 22 -67
32 -116 54 -255 193 -309 309 -10 22 -25 52 -32 67 -8 14 -14 37 -14 51 0 13
-7 44 -15 67 -13 38 -15 538 -15 4279 1 3662 3 4241 15 4276 8 22 15 50 15 62
0 35 60 152 118 230 53 72 160 161 237 197 22 10 52 25 67 32 14 8 37 14 50
14 12 0 41 7 63 15 60 21 6430 21 6490 0z"/>
<path d="M2034 9674 c-6 -3 -46 -11 -90 -18 -127 -22 -189 -49 -300 -131 -43
-32 -90 -80 -121 -121 -79 -109 -110 -178 -125 -284 -5 -36 -14 -81 -19 -100
-6 -22 -8 -794 -6 -2130 4 -2155 5 -2203 42 -2272 8 -14 15 -33 15 -42 0 -21
68 -133 116 -192 35 -43 130 -122 164 -137 8 -4 33 -18 55 -32 22 -13 49 -24
60 -25 11 0 34 -8 50 -18 28 -16 175 -17 2615 -17 2440 0 2587 1 2615 17 17
10 39 18 50 18 11 1 38 12 60 25 22 14 47 28 55 32 34 15 129 94 164 137 48
59 116 171 116 192 0 9 7 28 15 42 38 70 39 111 38 2287 0 2181 0 2222 -39
2297 -8 15 -14 34 -14 42 0 9 -14 39 -32 68 -115 190 -269 305 -453 339 -27 6
-72 14 -98 19 -48 10 -4910 13 -4933 4z m4631 -705 c107 -38 190 -116 232
-219 17 -43 18 -137 20 -1820 3 -1601 2 -1780 -13 -1830 -8 -30 -20 -62 -25
-70 -5 -8 -13 -24 -18 -35 -24 -53 -124 -125 -212 -154 -51 -16 -4267 -16
-4318 0 -88 29 -188 101 -212 154 -5 11 -13 27 -18 35 -5 8 -17 40 -25 70 -15
50 -16 229 -13 1830 2 1676 3 1777 20 1819 41 102 124 182 227 219 54 20 86
20 2175 21 l2121 1 59 -21z"/>
<path d="M2267 3411 c-67 -33 -87 -49 -133 -113 -52 -71 -64 -132 -64 -334 0
-102 -4 -183 -10 -195 -10 -18 -23 -19 -215 -19 -199 0 -206 -1 -259 -26 -100
-47 -174 -130 -191 -214 -3 -19 -12 -49 -18 -67 -13 -37 11 -140 46 -198 48
-81 99 -123 188 -155 46 -17 80 -20 244 -20 135 0 195 -4 203 -12 8 -8 12 -67
12 -198 0 -189 7 -233 46 -309 20 -40 86 -108 117 -121 12 -6 29 -14 37 -19
20 -12 122 -41 145 -41 23 0 125 29 145 41 8 5 24 13 35 19 29 14 58 40 91 85
62 82 64 94 64 324 l0 211 26 10 c14 6 105 10 202 10 108 1 194 6 222 13 64
18 133 65 172 117 58 78 68 111 68 217 0 89 -2 101 -31 151 -38 67 -98 124
-167 157 -51 24 -59 25 -257 25 -172 0 -206 2 -219 16 -14 13 -16 48 -16 227
l-1 212 -27 46 c-36 61 -59 88 -107 124 -70 53 -107 65 -203 65 -74 -1 -95 -5
-145 -29z"/>
<path d="M5390 3415 c-25 -13 -52 -27 -60 -31 -20 -9 -80 -74 -91 -99 -5 -11
-13 -27 -18 -35 -17 -29 -41 -115 -41 -146 0 -17 9 -60 20 -95 68 -214 294
-308 493 -206 57 29 135 123 157 187 21 59 27 178 11 208 -6 9 -20 39 -33 66
-26 56 -117 142 -159 151 -16 4 -31 11 -34 16 -4 5 -50 9 -103 8 -82 0 -104
-4 -142 -24z"/>
<path d="M7146 3425 c-11 -8 -26 -15 -33 -15 -22 0 -98 -62 -129 -105 -44 -61
-57 -102 -61 -195 -4 -71 -1 -93 18 -135 27 -62 109 -149 163 -174 122 -55
191 -55 313 1 42 19 133 102 133 121 0 6 6 18 13 26 7 9 21 50 30 91 16 71 16
79 -1 143 -10 37 -24 73 -30 79 -7 7 -12 17 -12 24 0 23 -83 94 -146 124 -56
26 -75 30 -152 30 -61 -1 -93 -5 -106 -15z"/>
<path d="M5090 2050 c-8 -6 -31 -14 -50 -20 -38 -10 -160 -122 -160 -147 0 -7
-8 -25 -17 -40 -13 -20 -17 -47 -16 -122 1 -116 19 -164 90 -237 55 -56 90
-75 184 -99 62 -16 69 -16 130 1 115 32 166 69 236 175 26 39 27 47 27 160 0
97 -3 121 -17 137 -9 10 -17 23 -17 29 0 27 -94 114 -156 143 -54 25 -76 30
-142 30 -42 0 -84 -5 -92 -10z"/>
<path d="M6806 2045 c-15 -8 -32 -15 -38 -15 -15 0 -112 -77 -128 -102 -45
-71 -70 -146 -70 -213 0 -44 19 -112 46 -164 20 -40 86 -108 117 -121 12 -6
29 -14 37 -19 20 -12 122 -41 145 -41 23 0 125 29 145 41 8 5 24 13 35 19 29
14 58 40 91 85 53 70 64 105 64 203 0 78 -4 98 -26 143 -39 77 -97 134 -170
169 -54 25 -76 30 -142 30 -49 0 -87 -6 -106 -15z"/>
</g>
</svg>
