<?xml version="1.0" standalone="no"?>
<!DOCTYPE svg PUBLIC "-//W3C//DTD SVG 20010904//EN"
 "http://www.w3.org/TR/2001/REC-SVG-20010904/DTD/svg10.dtd">
<svg version="1.0" xmlns="http://www.w3.org/2000/svg"
 width="60.000000pt" height="60.000000pt" viewBox="0 0 60.000000 60.000000"
 preserveAspectRatio="xMidYMid meet">
<metadata>
Created by potrace 1.10, written by Peter Selinger 2001-2011
</metadata>
<g transform="translate(0.000000,60.000000) scale(0.100000,-0.100000)"
fill="#000000" stroke="none">
<path d="M179 503 c-52 -6 -99 -59 -99 -112 0 -33 6 -44 37 -70 21 -17 45 -31
55 -31 22 0 28 -11 21 -38 -4 -18 -13 -22 -43 -22 -46 0 -100 -48 -100 -90 0
-51 59 -87 100 -60 13 9 11 14 -12 31 -16 11 -28 26 -28 33 0 20 73 76 99 76
18 0 71 -52 71 -69 0 -10 -9 -26 -20 -36 -15 -14 -17 -21 -9 -32 29 -35 79 13
79 75 0 35 -6 49 -35 78 -34 33 -48 84 -24 84 5 0 17 16 25 36 12 29 13 41 2
70 -11 30 -10 35 7 48 11 8 18 16 15 19 -8 7 -103 14 -141 10z m56 -70 c30
-45 31 -60 6 -90 -25 -30 -47 -29 -76 5 -28 31 -32 68 -9 100 22 32 50 27 79
-15z"/>
<path d="M380 475 c0 -18 -7 -28 -24 -35 -37 -14 -39 -28 -6 -45 23 -12 30
-22 30 -45 0 -27 3 -30 30 -30 27 0 30 3 30 29 0 25 4 30 28 33 21 2 28 9 30
30 3 23 -1 27 -25 30 -22 2 -29 9 -31 31 -3 23 -8 27 -33 27 -24 0 -29 -4 -29
-25z"/>
</g>
</svg>
