<?xml version="1.0" standalone="no"?>
<!DOCTYPE svg PUBLIC "-//W3C//DTD SVG 20010904//EN"
 "http://www.w3.org/TR/2001/REC-SVG-20010904/DTD/svg10.dtd">
<svg version="1.0" xmlns="http://www.w3.org/2000/svg"
 width="420.000000pt" height="63.000000pt" viewBox="0 0 420.000000 63.000000"
 preserveAspectRatio="xMidYMid meet">
<metadata>
Created by potrace 1.10, written by Peter Selinger 2001-2011
</metadata>
<g transform="translate(0.000000,63.000000) scale(0.100000,-0.100000)"
fill="#000000" stroke="none">
<path d="M250 615 c0 -8 -12 -18 -27 -21 -16 -4 -41 -14 -58 -23 -37 -20 -115
-91 -115 -106 0 -6 -5 -16 -12 -23 -16 -16 -37 -97 -37 -142 -1 -80 42 -173
106 -230 75 -65 90 -70 239 -70 125 0 136 2 181 26 85 47 93 58 93 135 0 37 5
71 10 74 25 15 -13 35 -67 35 -56 0 -79 -18 -54 -43 6 -6 11 -39 11 -72 0 -66
-7 -78 -75 -120 -42 -26 -147 -26 -195 1 -45 25 -80 55 -80 70 0 6 -6 17 -14
23 -7 6 -16 26 -20 44 -3 17 -10 53 -15 78 -19 89 32 232 103 290 10 8 45 21
77 28 115 26 252 -37 288 -132 15 -38 31 -25 31 23 0 36 -5 43 -54 80 -30 23
-70 46 -90 51 -20 6 -36 16 -36 24 0 12 -19 15 -95 15 -77 0 -95 -3 -95 -15z"/>
<path d="M2250 615 c0 -8 -12 -17 -27 -20 -16 -4 -35 -10 -43 -16 -8 -5 -24
-13 -35 -18 -11 -5 -34 -24 -51 -43 -58 -62 -84 -130 -84 -220 0 -91 25 -154
86 -215 74 -74 101 -83 260 -83 126 0 136 2 181 27 70 38 93 63 93 100 0 17
-4 34 -9 37 -5 3 -30 -19 -55 -48 -102 -120 -250 -135 -363 -37 -71 61 -102
210 -67 324 21 69 92 151 141 160 15 3 41 9 57 13 32 8 134 -13 157 -33 8 -7
19 -13 23 -13 12 0 56 -44 56 -56 0 -15 45 -55 53 -47 4 3 7 20 7 38 0 46 -54
90 -162 134 -16 6 -28 15 -28 21 0 6 -37 10 -95 10 -77 0 -95 -3 -95 -15z"/>
<path d="M3276 615 c-3 -8 -18 -17 -33 -21 -117 -27 -214 -162 -213 -295 1
-53 21 -134 38 -151 7 -7 12 -18 12 -24 0 -18 101 -104 122 -104 9 0 20 -5 23
-10 4 -6 63 -10 145 -10 130 0 142 2 187 25 70 38 93 63 93 102 0 23 -5 33
-15 33 -8 0 -15 -4 -15 -9 0 -17 -76 -87 -120 -111 -62 -32 -157 -33 -218 -1
-113 61 -170 224 -125 357 41 121 87 161 212 181 70 12 170 -35 223 -103 21
-27 42 -50 48 -52 6 -2 10 14 10 37 0 32 -6 46 -29 67 -34 30 -85 58 -123 68
-16 3 -28 13 -28 21 0 22 -185 22 -194 0z"/>
<path d="M1056 573 c5 -10 11 -117 14 -238 5 -201 7 -223 25 -246 25 -31 68
-60 115 -76 42 -15 246 -17 255 -3 3 6 15 10 25 10 11 0 42 23 70 50 l50 51 0
234 0 235 -22 0 -23 0 3 -207 c4 -233 -2 -270 -52 -306 -35 -25 -120 -57 -151
-57 -28 0 -114 31 -144 52 -58 41 -61 55 -61 280 0 129 4 209 10 213 23 14 -5
25 -62 25 -54 0 -59 -2 -52 -17z"/>
<path d="M4050 576 c0 -8 4 -17 9 -20 12 -8 12 -485 0 -507 -18 -34 0 -50 50
-47 l46 3 3 293 3 292 -56 0 c-41 0 -55 -4 -55 -14z"/>
</g>
</svg>
