<?xml version="1.0" standalone="no"?>
<!DOCTYPE svg PUBLIC "-//W3C//DTD SVG 20010904//EN"
 "http://www.w3.org/TR/2001/REC-SVG-20010904/DTD/svg10.dtd">
<svg version="1.0" xmlns="http://www.w3.org/2000/svg"
 width="109.000000pt" height="53.000000pt" viewBox="0 0 109.000000 53.000000"
 preserveAspectRatio="xMidYMid meet">
<metadata>
Created by potrace 1.10, written by Peter Selinger 2001-2011
</metadata>
<g transform="translate(0.000000,53.000000) scale(0.100000,-0.100000)"
fill="#000000" stroke="none">
<path d="M3 518 c2 -7 26 -116 52 -243 27 -126 49 -231 49 -232 1 0 35 10 76
24 65 22 87 25 165 20 52 -3 114 -14 148 -26 l57 -20 58 21 c83 31 245 31 321
0 30 -12 56 -20 58 -19 4 5 103 458 103 473 0 12 -94 14 -546 14 -433 0 -545
-3 -541 -12z m797 -122 c0 -13 -8 -30 -17 -37 -15 -12 -16 -12 -10 4 3 9 2 17
-3 17 -6 0 -10 9 -10 20 0 13 7 20 20 20 14 0 20 -7 20 -24z m-342 -32 c12
-14 22 -34 22 -45 0 -17 -7 -19 -60 -19 -62 0 -76 -11 -39 -31 15 -8 24 -8 32
0 13 13 67 15 67 3 0 -5 -9 -17 -20 -27 -31 -28 -114 -26 -143 3 -28 28 -29
92 -3 121 35 38 108 36 144 -5z m489 15 c26 -22 14 -31 -32 -25 -59 9 -59 -8
0 -23 53 -13 70 -48 40 -81 -23 -26 -110 -28 -137 -3 -26 23 -22 33 12 33 17
0 30 -4 30 -10 0 -5 9 -10 20 -10 34 0 22 19 -20 30 -50 13 -68 42 -46 75 23
35 98 42 133 14z m-747 -49 l0 -60 45 0 c38 0 45 -3 45 -20 0 -18 -7 -20 -80
-20 l-80 0 0 80 0 80 35 0 35 0 0 -60z m357 13 l20 -48 21 48 c17 38 26 47 46
47 l25 0 -34 -76 c-19 -42 -35 -78 -35 -80 0 -2 -13 -4 -29 -4 -26 0 -32 7
-68 80 l-39 80 37 0 c34 0 38 -3 56 -47z m183 -33 l0 -80 -30 0 -30 0 0 80 0
80 30 0 30 0 0 -80z"/>
<path d="M367 345 c-5 -11 0 -15 19 -15 16 0 24 5 22 13 -7 18 -35 20 -41 2z"/>
<path d="M926 27 c3 -10 9 -15 12 -12 3 3 0 11 -7 18 -10 9 -11 8 -5 -6z"/>
</g>
</svg>
