<?xml version="1.0" standalone="no"?>
<!DOCTYPE svg PUBLIC "-//W3C//DTD SVG 20010904//EN"
 "http://www.w3.org/TR/2001/REC-SVG-20010904/DTD/svg10.dtd">
<svg version="1.0" xmlns="http://www.w3.org/2000/svg"
 width="300.000000pt" height="282.000000pt" viewBox="0 0 300.000000 282.000000"
 preserveAspectRatio="xMidYMid meet">
<metadata>
Created by potrace 1.10, written by Peter Selinger 2001-2011
</metadata>
<g transform="translate(0.000000,282.000000) scale(0.050000,-0.050000)"
fill="#000000" stroke="none">
<path d="M1210 5607 c-947 -202 -1479 -1297 -1064 -2191 120 -260 226 -408
690 -961 250 -300 771 -923 1157 -1385 699 -838 914 -1070 989 -1070 114 0
219 106 789 790 452 542 1060 1269 1541 1842 546 650 655 866 681 1348 49 931
-699 1713 -1582 1653 -422 -28 -764 -189 -1219 -571 l-194 -164 -150 140
c-518 484 -1096 685 -1638 569z m592 -369 c311 -100 602 -302 963 -665 l236
-236 225 226 c692 695 1241 877 1782 591 602 -319 798 -1196 411 -1836 -74
-122 -365 -480 -1122 -1379 -107 -126 -439 -521 -738 -879 -299 -357 -547
-653 -550 -657 -14 -15 -2229 2640 -2342 2807 -329 486 -379 982 -145 1449
243 486 796 736 1280 579z"/>
</g>
</svg>
