<?xml version="1.0" standalone="no"?>
<!DOCTYPE svg PUBLIC "-//W3C//DTD SVG 20010904//EN"
 "http://www.w3.org/TR/2001/REC-SVG-20010904/DTD/svg10.dtd">
<svg version="1.0" xmlns="http://www.w3.org/2000/svg"
 width="900.000000pt" height="351.000000pt" viewBox="0 0 900.000000 351.000000"
 preserveAspectRatio="xMidYMid meet">
<metadata>
Created by potrace 1.10, written by Peter Selinger 2001-2011
</metadata>
<g transform="translate(0.000000,351.000000) scale(0.100000,-0.100000)"
fill="#000000" stroke="none">
<path d="M1494 3442 c-16 -10 -34 -48 -34 -70 0 -11 -7 -26 -16 -33 -9 -8 -45
-57 -79 -110 -35 -53 -68 -100 -74 -103 -6 -4 -22 -28 -36 -54 -13 -26 -35
-57 -49 -70 -13 -12 -28 -36 -31 -53 -4 -16 -17 -42 -31 -58 -13 -16 -32 -49
-43 -74 -11 -24 -25 -48 -31 -52 -7 -4 -23 -31 -36 -60 -12 -29 -28 -56 -34
-60 -6 -3 -25 -33 -43 -66 -64 -120 -75 -139 -106 -185 -17 -26 -31 -52 -31
-58 0 -6 -13 -27 -28 -46 -16 -19 -34 -51 -41 -70 -6 -19 -22 -46 -35 -60 -12
-14 -29 -41 -36 -60 -7 -19 -21 -44 -31 -55 -10 -11 -27 -41 -37 -66 -11 -26
-25 -50 -31 -54 -6 -3 -25 -32 -42 -63 -17 -31 -48 -86 -69 -122 -21 -36 -50
-86 -64 -112 -14 -26 -30 -49 -36 -53 -6 -4 -23 -35 -39 -69 -16 -35 -34 -67
-40 -71 -7 -4 -23 -31 -35 -60 -13 -29 -29 -55 -35 -59 -6 -4 -19 -27 -31 -52
-11 -25 -31 -59 -45 -76 -14 -16 -25 -35 -25 -41 0 -7 -11 -28 -24 -48 -13
-19 -30 -54 -37 -78 -7 -24 -23 -50 -36 -58 -19 -12 -23 -24 -23 -62 l0 -48
52 -14 c40 -10 130 -14 363 -14 l311 -1 40 -44 c22 -25 58 -65 80 -90 112
-127 499 -538 524 -556 48 -33 130 -112 130 -124 0 -5 14 -10 31 -10 24 0 41
12 85 60 30 32 64 62 74 65 17 5 136 129 395 410 55 59 125 136 156 169 31 34
68 74 81 90 l25 29 350 1 c330 1 352 2 372 20 32 29 29 91 -7 125 -16 14 -39
46 -51 71 -36 73 -69 131 -84 149 -8 9 -27 41 -42 71 -15 30 -35 64 -45 75
-10 11 -21 31 -25 45 -4 14 -19 41 -34 60 -15 19 -33 51 -41 70 -7 19 -21 44
-30 55 -10 11 -25 36 -35 55 -10 19 -23 42 -30 50 -7 8 -26 40 -43 70 -54 103
-85 155 -103 175 -10 11 -25 38 -35 60 -9 22 -26 54 -39 70 -12 17 -25 40 -29
53 -4 12 -18 35 -31 51 -14 16 -34 50 -45 76 -11 26 -32 61 -45 77 -14 16 -25
35 -25 42 0 7 -16 35 -35 62 -19 27 -35 54 -35 60 0 6 -13 29 -29 51 -16 22
-32 49 -35 61 -4 12 -18 35 -32 51 -13 16 -31 46 -40 66 -8 20 -28 55 -44 77
-17 23 -30 47 -30 54 0 7 -11 26 -25 42 -13 16 -34 51 -45 77 -11 27 -33 62
-48 80 -15 18 -35 45 -45 61 -9 16 -37 56 -62 89 -24 33 -52 74 -61 90 -9 17
-27 41 -39 55 -13 14 -28 44 -34 67 -7 24 -20 47 -31 53 -22 12 -70 13 -86 2z
m90 -221 c14 -22 35 -50 48 -64 41 -44 87 -105 99 -130 6 -14 22 -30 35 -36
13 -6 36 -35 52 -68 80 -161 163 -317 176 -332 9 -10 21 -32 27 -50 6 -18 26
-54 43 -81 54 -83 125 -205 159 -275 14 -27 34 -58 45 -69 12 -10 26 -35 33
-55 6 -20 20 -45 30 -56 10 -11 25 -38 34 -60 10 -22 25 -49 35 -60 11 -11 26
-38 35 -59 9 -22 29 -55 45 -75 15 -20 31 -47 35 -61 4 -14 15 -34 25 -45 17
-19 32 -45 109 -187 17 -31 35 -60 41 -63 6 -4 22 -30 36 -58 34 -72 85 -158
112 -192 12 -15 22 -33 22 -41 0 -7 20 -36 45 -66 38 -44 45 -59 43 -87 -4
-48 -25 -58 -88 -42 -35 9 -108 12 -249 10 -146 -3 -202 -1 -213 8 -29 25 -67
109 -79 178 -6 39 -24 102 -39 140 -16 39 -31 90 -35 114 -4 24 -20 74 -36
111 -15 36 -31 91 -35 121 -4 29 -17 75 -31 101 -13 27 -29 76 -36 110 -8 35
-22 78 -31 96 -10 19 -28 80 -41 137 -12 56 -30 113 -39 127 -8 13 -22 55 -30
94 -8 40 -24 87 -34 105 -11 19 -28 68 -37 109 -10 41 -26 91 -35 110 -10 19
-27 66 -39 105 -12 38 -29 81 -38 95 -9 14 -26 57 -38 95 -17 55 -26 70 -41
70 -31 0 -31 -92 0 -185 14 -41 32 -110 41 -153 8 -44 25 -97 36 -118 11 -22
24 -64 30 -94 5 -30 21 -78 34 -107 13 -29 31 -88 40 -132 9 -43 25 -98 36
-123 11 -24 25 -69 31 -101 6 -31 21 -75 34 -97 12 -22 28 -69 34 -105 6 -36
23 -94 37 -129 14 -34 31 -91 38 -126 8 -34 24 -85 38 -111 13 -27 27 -73 31
-103 4 -30 18 -78 31 -105 13 -28 27 -69 31 -91 8 -47 26 -86 48 -104 9 -8 16
-27 16 -44 0 -25 -13 -43 -64 -91 -35 -34 -132 -135 -216 -226 -84 -91 -178
-192 -209 -225 -31 -33 -78 -88 -104 -122 -56 -73 -117 -113 -172 -113 -33 0
-45 7 -94 58 -31 32 -87 93 -125 137 -92 106 -298 326 -419 449 -112 113 -123
136 -82 184 16 19 35 61 44 100 10 37 26 82 35 101 10 18 22 62 27 96 4 34 19
81 32 106 14 24 30 72 36 107 7 35 21 84 32 110 11 26 29 85 40 132 11 47 29
101 40 120 12 19 25 61 30 93 6 33 19 77 29 97 11 21 29 80 40 132 12 51 30
111 41 132 11 21 25 64 31 95 5 30 19 73 30 94 11 22 26 71 34 111 8 39 27
107 41 151 16 48 27 104 27 140 1 54 -1 60 -21 63 -18 3 -24 -4 -33 -40 -6
-24 -26 -77 -44 -118 -19 -41 -42 -100 -51 -130 -10 -30 -26 -71 -35 -90 -9
-19 -25 -68 -34 -109 -9 -41 -25 -88 -35 -105 -11 -17 -26 -64 -35 -103 -8
-39 -21 -82 -30 -95 -8 -13 -22 -59 -31 -103 -9 -44 -28 -109 -42 -144 -14
-35 -32 -91 -40 -125 -7 -33 -23 -76 -33 -94 -11 -18 -24 -62 -30 -99 -6 -36
-22 -91 -35 -123 -13 -32 -32 -91 -41 -131 -9 -41 -25 -91 -36 -112 -10 -21
-26 -75 -33 -119 -14 -78 -46 -150 -81 -179 -13 -11 -63 -14 -233 -15 -119 0
-233 -4 -254 -8 -44 -10 -67 4 -67 41 0 33 26 80 51 93 11 6 29 32 40 57 11
25 30 58 44 74 13 16 27 39 31 51 4 13 17 37 29 53 13 17 30 48 39 70 10 22
25 49 35 60 18 21 59 90 94 160 11 22 28 49 38 60 10 11 25 38 34 59 9 22 29
55 45 75 16 20 32 48 35 63 4 14 16 36 26 47 22 23 63 95 104 181 15 30 34 63
43 74 20 21 71 109 106 183 14 28 30 54 36 58 5 3 20 25 31 48 12 23 29 51 39
62 10 11 23 36 29 56 6 20 23 51 36 70 22 29 62 104 166 311 14 28 37 61 50
72 14 12 33 35 44 51 17 27 77 104 115 145 8 9 23 31 32 48 25 47 60 44 92 -7z"/>
<path d="M1530 2942 c-42 -34 -44 -121 -45 -1427 0 -1333 -2 -1280 55 -1280
57 0 55 -49 55 1240 0 1166 -6 1455 -30 1475 -9 7 -19 5 -35 -8z"/>
<path d="M5760 2730 c-24 -24 -25 -38 -4 -68 12 -18 25 -22 69 -22 60 0 85 16
85 55 0 33 -36 55 -87 55 -30 0 -49 -6 -63 -20z"/>
<path d="M4076 2577 c-17 -12 -18 -26 -13 -138 3 -68 8 -133 11 -144 13 -41
-7 -50 -100 -47 -112 4 -124 -1 -124 -42 0 -52 18 -60 113 -52 111 9 124 0
108 -73 -7 -33 -11 -182 -11 -405 l0 -352 40 -82 c33 -69 47 -87 87 -112 44
-28 53 -30 149 -30 108 0 134 10 134 50 0 35 -38 50 -127 50 l-83 0 -45 62
c-37 51 -45 70 -46 108 0 25 0 180 1 345 1 242 -2 310 -14 349 -27 88 -7 100
150 90 128 -8 154 0 154 45 0 45 -21 54 -113 52 -45 0 -90 -4 -100 -7 -29 -9
-86 5 -96 24 -6 11 -4 36 5 72 9 34 14 87 12 138 -2 69 -6 86 -22 98 -25 18
-47 18 -70 1z"/>
<path d="M4895 2240 c-12 -4 -27 -15 -34 -23 -7 -9 -28 -21 -46 -27 -59 -19
-185 -177 -185 -232 0 -48 63 -75 103 -45 9 6 27 43 39 82 21 64 27 71 70 95
25 14 57 33 70 42 18 13 50 18 150 20 126 3 127 3 155 -24 15 -15 40 -30 56
-33 26 -7 67 -47 67 -67 0 -5 8 -21 19 -36 12 -17 23 -61 30 -116 17 -128 31
-121 -242 -118 -206 3 -225 1 -257 -17 -19 -11 -46 -25 -60 -31 -14 -7 -41
-19 -60 -29 -20 -9 -61 -44 -93 -77 -52 -56 -59 -67 -68 -125 -11 -70 -5 -157
16 -204 18 -40 77 -98 145 -140 l54 -35 151 0 c150 0 150 0 195 30 24 16 57
32 72 35 16 4 44 27 69 56 22 27 47 49 55 49 24 0 36 -39 29 -91 -8 -60 4 -79
51 -79 33 0 64 21 64 43 0 7 -8 32 -17 57 -14 39 -15 88 -13 350 5 422 4 435
-21 486 -34 72 -103 140 -181 179 l-71 35 -146 -1 c-80 0 -155 -4 -166 -9z
m484 -589 c16 -16 18 -30 14 -112 -4 -79 -10 -102 -33 -143 -27 -48 -130 -136
-159 -136 -7 0 -39 -14 -69 -32 -53 -30 -61 -32 -167 -32 l-112 -1 -41 35
c-23 19 -53 44 -67 55 -30 24 -50 114 -40 176 8 44 83 126 125 135 14 4 43 18
64 33 38 25 46 26 220 32 100 3 196 6 214 7 20 1 39 -5 51 -17z"/>
<path d="M5798 2239 c-34 -13 -41 -35 -29 -90 7 -27 11 -267 11 -609 0 -528
-1 -569 -19 -620 -21 -62 -77 -124 -126 -140 -21 -7 -54 -7 -100 -1 -87 13
-110 3 -101 -42 12 -57 27 -62 178 -59 l77 2 71 62 c40 35 77 74 82 88 6 14
21 55 34 91 l23 67 1 618 c1 580 0 619 -16 631 -21 15 -48 16 -86 2z"/>
<path d="M6450 2243 c-8 -3 -29 -17 -46 -30 -17 -12 -36 -23 -43 -23 -16 0
-131 -110 -131 -125 0 -7 -13 -29 -30 -50 -16 -21 -30 -46 -30 -56 0 -48 80
-78 114 -43 9 8 23 41 32 72 20 69 27 79 72 97 18 8 46 25 62 38 24 21 42 25
135 29 118 7 152 1 184 -31 12 -12 35 -24 52 -28 18 -3 37 -17 46 -32 9 -14
25 -39 36 -55 11 -17 23 -56 27 -95 4 -36 11 -77 14 -91 4 -16 1 -33 -8 -45
-14 -19 -24 -20 -243 -17 -189 2 -232 0 -253 -12 -14 -9 -54 -29 -90 -46 -94
-45 -176 -135 -190 -210 -6 -30 -13 -61 -16 -68 -2 -7 3 -46 12 -85 19 -83 56
-132 145 -194 l54 -38 155 -3 c123 -2 160 1 180 12 14 9 52 29 85 45 36 17 73
46 93 70 18 23 39 41 47 41 24 0 36 -37 29 -90 -8 -59 5 -80 46 -80 64 0 72
21 46 122 -10 41 -12 133 -9 408 l3 354 -26 53 c-32 67 -103 139 -174 178 -54
29 -59 30 -210 32 -85 1 -162 0 -170 -4z m481 -594 c14 -14 18 -26 13 -42 -4
-12 -8 -56 -8 -97 -1 -65 -5 -81 -31 -120 -16 -25 -36 -49 -43 -53 -7 -5 -29
-22 -47 -39 -19 -16 -51 -34 -71 -40 -21 -5 -49 -18 -63 -29 -34 -25 -130 -42
-213 -37 -59 3 -72 7 -100 35 -18 17 -47 38 -64 47 -26 12 -34 25 -44 66 -7
29 -10 77 -8 107 4 51 9 60 50 99 25 24 59 46 74 50 16 3 47 18 68 33 38 25
46 26 220 32 100 3 196 6 214 7 21 1 39 -5 53 -19z"/>
<path d="M7360 2237 c-33 -17 -36 -50 -11 -123 16 -45 19 -65 12 -93 -12 -44
-20 -261 -23 -620 -2 -258 -1 -274 17 -287 21 -16 63 -18 84 -5 11 7 14 81 15
413 l1 405 36 59 c26 41 50 67 81 84 25 14 58 37 75 51 24 20 46 27 99 32 38
3 87 2 110 -2 70 -13 190 -112 214 -176 8 -21 11 -153 9 -443 -3 -459 -7 -437
64 -428 63 7 70 19 63 106 -3 41 -6 201 -7 355 -1 335 7 397 57 427 18 10 37
32 43 49 7 21 23 35 56 49 25 11 48 26 51 35 9 23 71 35 157 31 62 -3 82 -8
106 -27 15 -13 43 -32 60 -41 18 -10 38 -32 47 -50 8 -18 24 -46 37 -61 22
-28 22 -30 24 -438 1 -301 5 -414 13 -425 15 -17 64 -19 77 -1 6 7 7 184 4
447 l-6 435 -29 53 c-34 61 -126 155 -176 179 -27 13 -67 18 -170 21 l-135 3
-54 -33 c-91 -56 -140 -106 -152 -154 -9 -35 -16 -44 -33 -44 -30 0 -64 34
-86 86 -12 27 -33 53 -57 68 -21 14 -51 36 -66 48 -27 22 -38 23 -176 23
l-148 0 -42 -35 c-23 -19 -59 -52 -80 -73 -56 -57 -76 -49 -76 31 0 80 -24
100 -85 69z"/>
</g>
</svg>
