<?xml version="1.0" standalone="no"?>
<!DOCTYPE svg PUBLIC "-//W3C//DTD SVG 20010904//EN"
 "http://www.w3.org/TR/2001/REC-SVG-20010904/DTD/svg10.dtd">
<svg version="1.0" xmlns="http://www.w3.org/2000/svg"
 width="414.000000pt" height="66.000000pt" viewBox="0 0 414.000000 66.000000"
 preserveAspectRatio="xMidYMid meet">
<metadata>
Created by potrace 1.10, written by Peter Selinger 2001-2011
</metadata>
<g transform="translate(0.000000,66.000000) scale(0.100000,-0.100000)"
fill="#000000" stroke="none">
<path d="M2800 646 c0 -9 -16 -17 -42 -21 -38 -7 -74 -22 -133 -58 -32 -20
-115 -108 -115 -124 0 -7 -7 -25 -16 -38 -26 -40 -12 -55 49 -55 52 0 54 1 73
38 23 45 74 94 128 124 34 17 58 22 137 22 81 1 103 -3 147 -23 29 -14 52 -28
52 -33 0 -4 11 -8 25 -8 29 0 85 37 85 56 0 26 -107 87 -175 100 -20 3 -35 12
-35 20 0 11 -20 14 -90 14 -71 0 -90 -3 -90 -14z"/>
<path d="M3630 646 c0 -8 -14 -17 -32 -21 -57 -12 -162 -80 -196 -127 -46 -63
-55 -90 -55 -172 0 -70 4 -89 27 -131 16 -28 40 -63 54 -79 55 -59 168 -116
231 -116 19 0 21 6 21 49 0 49 -9 61 -46 61 -28 0 -114 64 -142 105 -22 33
-27 51 -27 105 0 54 5 72 27 105 42 62 115 105 192 112 139 13 237 -24 298
-112 38 -55 40 -147 4 -203 -37 -57 -96 -101 -157 -116 -30 -7 -41 -34 -32
-77 8 -43 36 -40 153 14 54 25 137 106 152 147 5 17 16 30 24 30 11 0 14 21
14 102 0 56 -3 98 -7 95 -10 -10 -33 13 -33 33 0 9 -24 42 -53 73 -51 53 -91
77 -167 102 -19 6 -34 17 -32 23 1 9 -29 12 -108 12 -88 0 -110 -3 -110 -14z"/>
<path d="M0 320 l0 -310 25 -6 c13 -3 37 -2 52 3 l28 10 0 194 c0 163 3 194
15 194 8 0 16 -9 19 -20 2 -11 16 -36 32 -56 16 -20 29 -39 29 -42 0 -2 25
-42 56 -88 31 -46 60 -94 65 -107 10 -26 47 -30 56 -4 4 9 12 21 20 25 18 11
17 52 -2 67 -8 7 -15 16 -15 20 0 4 -34 58 -75 120 -41 62 -75 114 -75 117 0
3 -13 22 -30 43 -17 21 -30 41 -30 44 0 3 -16 28 -36 56 -35 48 -38 50 -85 50
l-49 0 0 -310z"/>
<path d="M604 623 c-12 -9 -104 -141 -104 -150 0 -3 -13 -22 -30 -43 -16 -21
-30 -41 -30 -46 0 -4 -8 -16 -17 -26 -14 -16 -15 -22 -5 -36 7 -9 16 -27 22
-39 12 -28 55 -31 64 -5 3 9 15 31 25 47 11 17 26 41 33 55 7 14 20 26 28 28
13 2 15 -23 12 -190 -4 -214 -3 -218 65 -218 26 0 34 5 38 23 3 12 4 152 3
312 l-3 290 -45 3 c-25 1 -50 -1 -56 -5z"/>
<path d="M1163 614 c-4 -10 0 -20 10 -26 10 -5 17 -17 17 -27 0 -10 7 -24 15
-31 8 -7 15 -20 15 -30 0 -10 7 -23 15 -30 8 -7 15 -20 15 -30 0 -10 7 -23 15
-30 8 -7 15 -21 15 -31 0 -10 7 -22 16 -27 9 -5 14 -18 12 -33 -3 -23 -5 -24
-98 -24 -110 0 -117 7 -74 70 25 37 25 41 11 70 -8 16 -18 38 -21 48 -3 10
-15 17 -31 17 -17 0 -25 -6 -25 -17 -1 -10 -12 -36 -25 -58 -13 -22 -42 -76
-65 -120 -23 -44 -57 -107 -76 -140 -18 -33 -38 -69 -44 -80 -5 -11 -15 -27
-22 -36 -20 -29 -3 -49 42 -49 48 0 78 27 113 100 12 25 31 57 41 73 l18 27
158 0 c116 0 159 -3 164 -12 3 -7 15 -26 26 -43 11 -16 22 -37 26 -45 3 -8 10
-22 15 -30 5 -8 13 -25 18 -36 15 -34 107 -48 131 -19 9 11 8 20 -9 43 -11 16
-25 40 -31 53 -5 13 -14 31 -19 39 -5 8 -12 22 -16 30 -3 8 -21 42 -40 75 -18
33 -52 96 -75 140 -128 245 -120 235 -181 235 -37 0 -51 -4 -56 -16z"/>
<path d="M1707 623 c-9 -8 -9 -586 -1 -607 8 -20 63 -21 88 -3 16 12 18 31 14
225 -3 194 -2 212 14 212 9 0 21 -6 25 -14 4 -8 98 -106 207 -219 202 -209
237 -236 271 -207 16 13 20 57 7 77 -4 6 -123 131 -266 277 l-258 266 -47 0
c-26 0 -51 -3 -54 -7z"/>
<path d="M2242 618 c-8 -8 -12 -56 -12 -150 l0 -138 42 -45 c72 -76 73 -72 70
142 -2 131 -7 190 -15 195 -19 12 -72 9 -85 -4z"/>
<path d="M2882 338 c-16 -16 -15 -73 1 -86 7 -6 60 -13 118 -14 l104 -3 0 -35
c0 -104 -261 -146 -390 -63 -43 28 -85 69 -85 82 0 25 -117 30 -126 6 -8 -21
51 -109 95 -142 86 -65 148 -83 290 -83 144 0 213 19 279 75 41 35 55 75 57
160 3 121 11 115 -173 115 -110 0 -162 -4 -170 -12z"/>
</g>
</svg>
