<?xml version="1.0" standalone="no"?>
<!DOCTYPE svg PUBLIC "-//W3C//DTD SVG 20010904//EN"
 "http://www.w3.org/TR/2001/REC-SVG-20010904/DTD/svg10.dtd">
<svg version="1.0" xmlns="http://www.w3.org/2000/svg"
 width="510.000000pt" height="630.000000pt" viewBox="0 0 510.000000 630.000000"
 preserveAspectRatio="xMidYMid meet">
<metadata>
Created by potrace 1.10, written by Peter Selinger 2001-2011
</metadata>
<g transform="translate(0.000000,630.000000) scale(0.100000,-0.100000)"
fill="#000000" stroke="none">
<path d="M2360 5884 c-36 -8 -148 -38 -250 -69 -102 -30 -243 -71 -313 -91
-75 -22 -153 -52 -189 -73 -72 -42 -234 -194 -339 -317 -41 -48 -123 -144
-182 -213 -198 -230 -252 -326 -329 -589 -110 -373 -116 -425 -100 -757 9
-170 15 -217 41 -315 70 -270 130 -411 305 -730 43 -80 106 -208 138 -285 69
-163 147 -308 227 -420 32 -44 97 -138 146 -210 48 -71 96 -139 105 -150 10
-11 84 -119 165 -240 246 -366 275 -405 395 -540 63 -71 143 -166 177 -210
106 -139 249 -261 329 -281 74 -19 163 52 291 231 40 55 120 152 179 215 135
146 261 315 400 536 60 96 142 216 182 267 49 61 96 138 143 232 42 84 93 170
129 215 94 118 303 438 381 585 41 77 98 234 153 420 51 177 64 229 102 433
33 181 34 190 34 451 0 306 -1 310 -84 488 -31 67 -68 160 -82 205 -82 261
-96 287 -268 488 -183 214 -371 362 -548 430 -29 12 -71 29 -93 39 -296 136
-558 220 -775 251 -159 23 -374 25 -470 4z m567 -313 c95 -19 206 -57 301
-105 26 -13 72 -31 102 -41 102 -33 274 -107 320 -138 25 -17 126 -112 226
-212 201 -200 213 -218 312 -450 33 -77 87 -196 121 -265 73 -152 100 -255
108 -416 9 -189 -10 -269 -114 -484 -73 -150 -89 -191 -139 -368 -44 -157 -80
-237 -148 -326 -75 -98 -111 -163 -163 -291 -58 -141 -63 -151 -138 -266 -35
-53 -85 -138 -110 -190 -60 -120 -121 -211 -194 -292 -74 -82 -107 -130 -166
-246 -27 -52 -81 -135 -120 -185 -40 -50 -96 -129 -125 -176 -29 -47 -67 -103
-85 -125 -46 -57 -123 -96 -200 -103 -131 -10 -221 50 -325 219 -34 55 -91
134 -126 176 -38 46 -90 128 -131 205 -48 92 -88 154 -142 216 -107 123 -139
170 -211 307 -35 66 -85 152 -111 191 -57 85 -105 179 -153 298 -40 99 -96
200 -164 291 -61 81 -93 155 -142 324 -47 164 -82 255 -144 378 -84 169 -116
326 -96 484 16 138 45 240 102 359 27 58 79 174 113 259 97 234 120 266 339
486 105 106 211 204 236 218 55 31 169 79 269 113 41 14 98 36 128 49 78 36
162 71 207 85 134 43 399 53 563 21z"/>
<path d="M2535 4781 c-88 -26 -153 -62 -262 -147 -128 -100 -187 -155 -309
-293 -121 -135 -168 -221 -191 -344 -28 -154 3 -363 74 -500 26 -50 76 -110
192 -232 204 -216 269 -262 428 -307 64 -18 105 -22 223 -22 171 -1 219 9 350
71 92 44 101 51 281 231 205 206 230 244 269 397 60 234 27 462 -89 619 -53
72 -230 256 -303 314 -190 154 -244 186 -363 217 -79 20 -223 18 -300 -4z
m295 -488 c63 -31 257 -204 301 -268 60 -88 74 -217 32 -299 -38 -75 -246
-302 -315 -343 -98 -60 -209 -62 -304 -8 -47 27 -216 201 -279 286 -57 77 -69
115 -63 203 7 100 40 160 145 263 101 97 189 163 241 180 60 19 189 12 242
-14z"/>
</g>
</svg>
