<?xml version="1.0" standalone="no"?>
<!DOCTYPE svg PUBLIC "-//W3C//DTD SVG 20010904//EN"
 "http://www.w3.org/TR/2001/REC-SVG-20010904/DTD/svg10.dtd">
<svg version="1.0" xmlns="http://www.w3.org/2000/svg"
 width="900.000000pt" height="900.000000pt" viewBox="0 0 900.000000 900.000000"
 preserveAspectRatio="xMidYMid meet">
<metadata>
Created by potrace 1.10, written by Peter Selinger 2001-2011
</metadata>
<g transform="translate(0.000000,900.000000) scale(0.100000,-0.100000)"
fill="#000000" stroke="none">
<path d="M2887 8986 c-3 -8 -23 -18 -44 -21 -118 -18 -296 -93 -419 -177 -86
-58 -236 -210 -289 -293 -77 -120 -101 -172 -145 -310 -53 -167 -50 59 -50
-3695 0 -3099 2 -3478 16 -3552 47 -250 139 -432 307 -605 163 -168 341 -265
590 -322 33 -8 519 -11 1615 -11 1660 0 1611 -1 1752 44 101 33 209 83 241
112 8 8 19 14 23 14 14 0 131 95 191 155 93 92 152 174 208 290 63 127 90 218
107 354 14 117 14 6925 0 7042 -17 136 -44 227 -107 354 -56 116 -115 198
-208 290 -63 64 -177 155 -193 155 -5 0 -14 6 -20 13 -30 36 -230 117 -352
141 -33 7 -54 16 -52 24 1 9 -343 12 -1582 12 -1372 0 -1585 -2 -1589 -14z
m3158 -585 c116 -42 174 -80 247 -160 65 -72 108 -151 132 -241 14 -52 16
-100 14 -240 l-3 -175 -1960 0 -1960 0 -3 194 c-2 171 0 201 17 250 65 187
178 299 376 375 35 13 225 15 1565 15 1449 0 1527 -1 1575 -18z m393 -3200 c1
-998 -2 -1819 -6 -1823 -6 -6 -2656 -11 -3912 -8 -11 0 -15 3632 -3 3643 3 4
886 6 1962 5 l1956 -3 3 -1814z m-5 -2401 c4 0 7 -397 7 -883 0 -835 -1 -886
-19 -947 -26 -91 -65 -159 -129 -231 -73 -80 -131 -118 -247 -160 -48 -18
-124 -18 -1571 -19 -1474 0 -1522 1 -1575 19 -185 66 -304 185 -370 370 -18
53 -19 92 -19 952 0 589 3 898 10 901 7 2 3422 1 3913 -2z"/>
<path d="M4325 2221 c-111 -33 -208 -96 -284 -184 -46 -54 -70 -96 -103 -184
-29 -76 -31 -272 -3 -343 70 -181 169 -287 336 -357 59 -25 75 -27 199 -28
148 0 182 8 290 71 57 33 161 132 185 175 69 126 85 183 85 304 0 168 -47 282
-165 400 -142 142 -356 200 -540 146z"/>
</g>
</svg>
