<?xml version="1.0" standalone="no"?>
<!DOCTYPE svg PUBLIC "-//W3C//DTD SVG 20010904//EN"
 "http://www.w3.org/TR/2001/REC-SVG-20010904/DTD/svg10.dtd">
<svg version="1.0" xmlns="http://www.w3.org/2000/svg"
 width="300.000000pt" height="306.000000pt" viewBox="0 0 300.000000 306.000000"
 preserveAspectRatio="xMidYMid meet">
<metadata>
Created by potrace 1.10, written by Peter Selinger 2001-2011
</metadata>
<g transform="translate(0.000000,306.000000) scale(0.050000,-0.050000)"
fill="#000000" stroke="none">
<path d="M500 6090 c0 -16 -43 -51 -95 -78 -114 -59 -245 -191 -303 -307 -24
-47 -56 -85 -72 -85 -26 0 -30 -248 -30 -2000 0 -1932 1 -2000 37 -2000 24 0
50 -28 72 -78 55 -121 223 -273 371 -336 l130 -55 800 -6 c1029 -7 923 40 921
-407 -2 -364 2 -358 -224 -358 -284 0 -479 -162 -337 -280 17 -14 30 -42 30
-62 0 -37 42 -38 1300 -38 1109 0 1300 4 1300 28 0 16 16 56 35 90 83 146 -56
261 -317 262 -241 0 -238 -4 -238 373 0 420 -90 375 783 387 701 10 731 12
849 57 145 55 313 195 370 307 23 45 58 85 80 91 60 15 60 4055 0 4070 -21 6
-54 41 -73 78 -46 89 -223 251 -304 278 -43 15 -65 35 -65 61 0 37 -47 38
-2510 38 -2205 0 -2510 -4 -2510 -30z m4918 -416 c46 -31 111 -98 143 -149
l59 -93 0 -1352 c0 -1025 -6 -1358 -24 -1376 -39 -39 -5142 -34 -5175 4 -17
22 -23 371 -23 1381 l0 1353 57 94 c42 67 88 109 164 149 l107 55 2303 -5
2304 -5 85 -56z m174 -3423 c20 -27 28 -98 28 -239 0 -241 -58 -356 -220 -437
l-90 -45 -2300 0 -2300 0 -100 50 c-231 116 -335 622 -144 700 103 42 5095 14
5126 -29z m-2166 -1134 c70 -37 73 -52 74 -362 0 -395 21 -375 -396 -375 -420
0 -392 -27 -394 372 -2 413 -26 388 371 388 189 0 318 -9 345 -23z"/>
</g>
</svg>
