<?xml version="1.0" standalone="no"?>
<!DOCTYPE svg PUBLIC "-//W3C//DTD SVG 20010904//EN"
 "http://www.w3.org/TR/2001/REC-SVG-20010904/DTD/svg10.dtd">
<svg version="1.0" xmlns="http://www.w3.org/2000/svg"
 width="190.000000pt" height="68.000000pt" viewBox="0 0 190.000000 68.000000"
 preserveAspectRatio="xMidYMid meet">
<metadata>
Created by potrace 1.10, written by Peter Selinger 2001-2011
</metadata>
<g transform="translate(0.000000,68.000000) scale(0.100000,-0.100000)"
fill="#000000" stroke="none">
<path d="M205 594 c-107 -127 -154 -202 -189 -304 -19 -54 -21 -142 -4 -173
20 -35 81 -97 95 -97 7 0 13 -4 13 -10 0 -6 42 -10 106 -10 111 0 185 18 311
76 30 13 56 24 58 24 2 0 34 14 70 30 36 17 68 30 70 30 2 0 34 13 70 30 36
16 68 30 70 30 2 0 34 14 70 30 36 17 68 30 70 30 2 0 34 13 70 30 36 17 68
30 70 30 2 0 34 13 70 30 36 16 68 30 70 30 2 0 34 14 70 30 36 17 68 30 70
30 2 0 34 14 70 30 36 17 68 30 70 30 3 0 27 9 53 21 26 12 56 25 67 29 85 35
125 55 125 63 0 5 -10 6 -22 2 -57 -17 -164 -46 -423 -115 -41 -11 -109 -29
-150 -40 -41 -11 -109 -29 -150 -40 -41 -11 -109 -29 -150 -40 -123 -33 -224
-60 -325 -88 -56 -15 -131 -27 -183 -30 -80 -3 -92 -1 -131 22 -47 27 -86 93
-86 143 0 34 16 97 36 141 25 54 11 57 -31 6z"/>
</g>
</svg>
