<?xml version="1.0" standalone="no"?>
<!DOCTYPE svg PUBLIC "-//W3C//DTD SVG 20010904//EN"
 "http://www.w3.org/TR/2001/REC-SVG-20010904/DTD/svg10.dtd">
<svg version="1.0" xmlns="http://www.w3.org/2000/svg"
 width="200.000000pt" height="200.000000pt" viewBox="0 0 200.000000 200.000000"
 preserveAspectRatio="xMidYMid meet">
<metadata>
Created by potrace 1.10, written by Peter Selinger 2001-2011
</metadata>
<g transform="translate(0.000000,200.000000) scale(0.050000,-0.050000)"
fill="#000000" stroke="none">
<path d="M2926 3721 c-111 -50 -247 -178 -339 -318 -41 -62 -108 -151 -148
-198 -128 -147 -141 -296 -35 -409 198 -212 186 -240 -304 -735 -237 -239
-260 -260 -480 -442 -157 -132 -229 -141 -358 -49 -159 115 -176 119 -297 81
-60 -19 -141 -63 -182 -99 -40 -36 -104 -84 -143 -107 -173 -105 -308 -275
-309 -390 -2 -223 323 -555 545 -555 223 0 727 214 1014 431 88 67 217 164
286 217 160 122 552 512 667 662 404 531 522 738 659 1156 95 288 44 426 -248
677 -150 130 -192 140 -328 78z m297 -386 c160 -186 177 -273 79 -406 -32 -44
-74 -120 -93 -169 -19 -50 -68 -135 -109 -190 -41 -55 -134 -191 -207 -301
-502 -759 -1836 -1741 -2114 -1556 -254 170 -274 312 -66 473 61 46 142 109
182 139 108 84 185 75 303 -35 139 -130 270 -132 391 -4 44 47 113 108 151
134 211 146 661 585 830 810 57 77 124 158 149 180 119 105 136 261 39 352
-34 32 -69 58 -78 58 -88 0 -64 229 36 347 41 49 100 121 131 162 117 152 248
154 376 6z"/>
</g>
</svg>
