<?xml version="1.0" standalone="no"?>
<!DOCTYPE svg PUBLIC "-//W3C//DTD SVG 20010904//EN"
 "http://www.w3.org/TR/2001/REC-SVG-20010904/DTD/svg10.dtd">
<svg version="1.0" xmlns="http://www.w3.org/2000/svg"
 width="900.000000pt" height="900.000000pt" viewBox="0 0 900.000000 900.000000"
 preserveAspectRatio="xMidYMid meet">
<metadata>
Created by potrace 1.10, written by Peter Selinger 2001-2011
</metadata>
<g transform="translate(0.000000,900.000000) scale(0.100000,-0.100000)"
fill="#000000" stroke="none">
<path d="M8723 8993 c9 -9 -12 -33 -30 -33 -8 0 -99 -41 -201 -91 -103 -50
-230 -111 -282 -136 -52 -24 -102 -49 -110 -54 -8 -5 -22 -12 -30 -15 -23 -10
-93 -44 -110 -54 -8 -5 -64 -32 -125 -60 -191 -90 -339 -162 -355 -171 -8 -5
-22 -12 -30 -15 -8 -3 -22 -10 -30 -15 -8 -5 -25 -13 -38 -19 -47 -20 -269
-126 -292 -140 -8 -4 -71 -35 -140 -68 -204 -98 -214 -103 -230 -111 -8 -4
-33 -16 -55 -26 -22 -9 -47 -21 -55 -26 -18 -9 -59 -30 -230 -111 -69 -33
-132 -64 -140 -69 -8 -5 -22 -12 -30 -15 -8 -3 -22 -10 -30 -15 -8 -5 -22 -12
-30 -15 -18 -7 -152 -71 -360 -172 -85 -41 -225 -108 -310 -149 -85 -41 -162
-79 -170 -84 -8 -5 -22 -12 -30 -15 -22 -9 -93 -44 -110 -54 -8 -5 -37 -18
-65 -31 -60 -26 -394 -186 -415 -199 -17 -10 -88 -45 -140 -67 -19 -9 -42 -20
-50 -25 -8 -4 -22 -11 -30 -14 -21 -9 -92 -43 -110 -54 -8 -4 -73 -36 -145
-70 -71 -34 -137 -66 -145 -71 -8 -5 -22 -12 -30 -15 -24 -9 -143 -65 -160
-75 -8 -5 -24 -13 -36 -18 -19 -9 -181 -86 -499 -241 -66 -32 -192 -93 -280
-135 -88 -43 -228 -111 -311 -151 -83 -41 -154 -74 -159 -74 -5 0 -16 -6 -24
-13 -9 -7 -36 -22 -61 -32 -25 -10 -52 -25 -61 -32 -8 -7 -21 -13 -27 -13 -10
0 -427 -199 -462 -221 -8 -5 -26 -14 -40 -20 -46 -19 -195 -90 -210 -100 -8
-5 -22 -12 -30 -15 -8 -3 -22 -10 -30 -15 -8 -5 -22 -12 -30 -15 -8 -3 -71
-33 -140 -66 -69 -33 -181 -87 -250 -120 -69 -33 -132 -64 -140 -69 -8 -4 -35
-18 -60 -30 -25 -11 -101 -48 -170 -81 -69 -33 -179 -86 -245 -118 -421 -204
-495 -240 -543 -261 -54 -25 -69 -53 -34 -66 9 -4 35 -19 57 -33 50 -31 55
-34 195 -120 112 -69 131 -80 168 -99 9 -6 112 -67 227 -136 253 -152 221
-132 330 -200 105 -65 96 -59 208 -127 48 -29 99 -59 115 -67 15 -8 53 -31 85
-53 32 -21 62 -38 67 -38 5 0 38 -20 74 -45 37 -25 69 -45 71 -45 3 0 74 -41
158 -90 191 -114 164 -98 289 -174 59 -36 110 -66 113 -66 4 0 21 -11 38 -24
18 -14 43 -30 57 -35 14 -6 39 -20 55 -31 17 -11 37 -23 45 -27 8 -4 33 -19
54 -35 21 -15 43 -28 47 -28 4 0 25 -12 46 -26 21 -14 47 -30 58 -35 11 -5 34
-18 50 -29 17 -11 36 -23 44 -27 8 -3 37 -22 65 -40 51 -33 76 -70 161 -240
14 -29 30 -55 36 -58 5 -4 9 -13 9 -22 0 -9 6 -24 14 -32 8 -9 35 -56 61 -106
26 -49 51 -95 56 -101 5 -6 31 -53 58 -105 26 -52 60 -114 74 -139 14 -25 38
-67 52 -95 14 -27 42 -77 60 -110 19 -33 41 -73 49 -90 9 -16 36 -66 61 -110
24 -44 51 -93 59 -110 9 -16 36 -66 60 -110 25 -44 57 -102 71 -130 14 -27 38
-70 52 -95 14 -25 44 -81 68 -125 23 -44 55 -102 71 -130 16 -27 40 -70 52
-95 13 -25 32 -61 44 -80 11 -19 38 -69 60 -110 22 -41 48 -88 59 -105 10 -16
21 -37 25 -45 3 -8 9 -22 14 -30 5 -8 20 -35 33 -60 14 -25 34 -61 46 -80 11
-19 23 -41 26 -47 3 -7 7 -19 10 -25 3 -7 18 -35 35 -63 16 -27 43 -77 60
-110 17 -33 46 -87 65 -120 34 -61 54 -97 94 -173 22 -41 24 -42 42 -26 10 9
36 53 59 98 23 44 45 88 49 96 4 8 14 26 21 40 22 41 147 283 242 470 50 96
113 218 140 270 43 82 174 335 197 380 4 8 13 24 19 35 7 11 15 27 18 35 12
28 45 95 94 185 26 50 94 180 150 290 56 110 131 254 166 320 35 66 65 125 68
130 2 6 7 17 10 25 3 8 42 83 86 165 43 83 104 200 135 260 31 61 60 117 65
125 4 8 19 38 32 65 14 28 49 95 78 150 29 55 97 186 150 290 53 105 128 249
165 320 55 105 124 239 204 395 4 8 13 26 20 38 51 99 167 322 229 442 41 80
110 213 153 295 43 83 81 157 85 165 3 8 10 22 15 30 5 8 11 21 14 28 12 31
17 39 38 77 37 65 76 139 177 340 39 77 75 147 79 155 5 8 16 31 27 50 10 19
28 53 41 75 12 22 25 47 29 55 3 8 10 22 15 30 5 8 12 22 15 30 3 8 9 22 14
30 5 8 41 78 80 155 79 155 82 162 98 190 6 11 29 56 52 100 23 44 45 87 50
95 4 8 19 38 33 65 86 170 139 272 147 285 4 8 11 22 15 30 3 8 41 83 84 165
44 83 104 200 135 260 31 61 61 118 66 128 17 29 27 49 85 162 31 61 60 117
65 125 5 8 18 35 30 60 11 25 25 52 30 60 5 8 11 22 14 30 4 8 21 42 39 75 48
88 74 138 81 155 4 8 42 83 86 165 43 83 104 201 136 263 32 63 63 116 71 119
20 8 18 153 -2 153 -8 0 -17 11 -21 25 -6 25 -76 95 -94 95 -6 0 -10 7 -10 15
0 12 -15 15 -72 15 -39 0 -68 -3 -65 -7z m-1203 -1189 c0 -7 -72 -77 -230
-224 -69 -63 -170 -158 -225 -210 -55 -53 -127 -120 -159 -150 -33 -30 -105
-98 -160 -151 -56 -53 -126 -118 -156 -144 -30 -27 -98 -90 -150 -140 -52 -51
-167 -159 -255 -240 -88 -82 -212 -199 -275 -259 -63 -61 -128 -121 -143 -133
-16 -12 -77 -68 -137 -125 -144 -138 -379 -359 -465 -438 -38 -35 -106 -98
-150 -140 -85 -81 -197 -187 -305 -285 -35 -33 -109 -103 -163 -155 -54 -52
-128 -122 -165 -155 -63 -57 -168 -155 -352 -330 -47 -45 -114 -107 -150 -140
-58 -52 -189 -174 -454 -426 -50 -47 -120 -112 -156 -145 -36 -32 -90 -82
-120 -111 -64 -62 -83 -65 -149 -25 -25 16 -53 31 -61 35 -8 4 -28 16 -45 27
-16 11 -39 24 -51 29 -19 8 -136 76 -174 101 -8 6 -25 14 -38 20 -12 5 -48 26
-79 46 -31 19 -65 40 -77 45 -12 5 -40 21 -63 34 -24 14 -62 36 -85 50 -24 13
-52 29 -63 35 -11 6 -42 24 -70 40 -27 17 -63 37 -80 45 -16 9 -43 24 -60 35
-16 11 -40 24 -52 29 -11 5 -24 15 -28 20 -3 6 -12 11 -20 11 -8 0 -33 12 -57
28 -57 36 -75 46 -128 75 -25 14 -61 34 -80 46 -19 11 -45 25 -57 30 -11 5
-24 15 -28 20 -3 6 -12 11 -20 11 -8 0 -31 12 -52 26 -21 14 -47 30 -58 35
-11 5 -33 18 -50 28 -16 11 -46 28 -65 38 -37 20 -83 46 -165 93 -79 45 -73
57 57 118 139 66 228 108 248 116 8 3 22 10 30 15 8 5 22 12 30 15 8 3 22 10
30 15 17 10 197 96 220 105 8 3 22 10 30 15 8 4 44 22 80 38 36 17 121 58 190
90 69 33 184 88 255 122 72 35 171 82 220 106 152 73 279 133 295 139 8 3 22
10 30 15 8 5 22 12 30 15 8 3 22 10 30 15 8 5 47 24 85 41 76 34 251 118 275
131 23 13 113 56 177 85 32 15 128 60 213 101 85 41 171 82 190 90 19 9 42 20
50 24 37 20 210 102 240 113 8 3 22 10 30 15 14 9 230 113 405 196 44 20 143
68 220 105 77 37 147 70 155 74 8 3 22 10 30 15 8 4 44 22 80 38 64 30 236
112 415 198 50 23 97 46 105 49 8 3 22 10 30 15 8 5 58 29 110 54 118 55 247
116 415 197 72 34 173 83 225 107 52 25 102 49 110 54 8 5 22 12 30 15 8 3 42
19 75 34 33 15 67 31 75 34 8 3 22 10 30 15 8 5 60 30 115 56 55 26 107 51
115 56 8 5 22 12 30 15 18 8 144 67 330 157 162 78 190 88 190 71z m323 -231
c4 -3 2 -11 -3 -18 -5 -6 -32 -54 -58 -106 -50 -96 -203 -392 -224 -432 -6
-12 -15 -29 -19 -37 -5 -8 -20 -37 -34 -65 -14 -27 -31 -59 -37 -70 -6 -11
-15 -27 -19 -35 -41 -79 -139 -270 -194 -375 -38 -71 -90 -173 -117 -225 -65
-125 -138 -265 -165 -315 -12 -22 -24 -47 -27 -55 -4 -8 -28 -55 -55 -105 -27
-49 -68 -126 -90 -170 -23 -44 -46 -87 -51 -95 -5 -8 -11 -22 -14 -30 -3 -8
-10 -22 -15 -30 -5 -8 -19 -35 -31 -60 -11 -25 -25 -52 -30 -60 -5 -8 -11 -22
-14 -30 -4 -8 -22 -42 -41 -75 -19 -33 -60 -109 -90 -170 -31 -60 -59 -117
-64 -125 -24 -43 -55 -101 -82 -155 -30 -60 -37 -73 -57 -110 -6 -11 -33 -63
-60 -115 -77 -151 -205 -397 -257 -495 -26 -49 -74 -142 -107 -205 -33 -63
-63 -122 -67 -130 -5 -8 -19 -35 -32 -60 -13 -25 -38 -72 -55 -105 -18 -33
-71 -136 -119 -230 -48 -93 -109 -210 -135 -260 -27 -49 -81 -153 -120 -230
-40 -77 -87 -167 -106 -200 -18 -33 -36 -67 -40 -75 -10 -24 -44 -93 -54 -112
-6 -10 -14 -26 -20 -35 -5 -10 -23 -45 -40 -78 -16 -33 -63 -123 -104 -200
-41 -77 -84 -160 -96 -185 -23 -48 -40 -80 -77 -145 -12 -22 -25 -47 -29 -55
-3 -8 -9 -22 -14 -30 -5 -8 -35 -67 -68 -130 -199 -388 -218 -420 -236 -420
-6 1 -26 33 -44 73 -18 40 -37 79 -42 87 -5 8 -47 89 -93 180 -47 91 -108 208
-136 260 -28 52 -53 102 -57 110 -3 8 -8 20 -10 25 -2 6 -8 18 -14 27 -18 32
-28 52 -65 128 -20 41 -40 82 -45 90 -5 8 -19 35 -30 60 -12 25 -25 52 -30 60
-5 8 -38 76 -75 150 -36 74 -70 142 -75 150 -12 21 -166 332 -174 350 -3 8
-10 22 -15 30 -5 8 -25 49 -44 90 -19 41 -60 127 -91 191 -86 177 -92 151 80
314 81 77 202 192 268 256 67 63 150 142 186 174 36 33 121 114 190 181 69 67
161 155 205 195 80 74 203 190 390 369 55 53 132 124 170 160 39 35 129 120
201 189 339 325 483 462 534 506 30 27 107 99 170 159 146 142 305 293 499
476 85 80 173 163 195 185 23 23 70 67 106 99 36 33 112 105 170 160 133 127
410 389 515 487 89 82 222 208 391 372 108 103 123 115 137 100z"/>
</g>
</svg>
