<?xml version="1.0" standalone="no"?>
<!DOCTYPE svg PUBLIC "-//W3C//DTD SVG 20010904//EN"
 "http://www.w3.org/TR/2001/REC-SVG-20010904/DTD/svg10.dtd">
<svg version="1.0" xmlns="http://www.w3.org/2000/svg"
 width="300.000000pt" height="382.000000pt" viewBox="0 0 300.000000 382.000000"
 preserveAspectRatio="xMidYMid meet">
<metadata>
Created by potrace 1.10, written by Peter Selinger 2001-2011
</metadata>
<g transform="translate(0.000000,382.000000) scale(0.050000,-0.050000)"
fill="#000000" stroke="none">
<path d="M228 7603 c-100 -47 -154 -120 -196 -265 -57 -196 -38 -6973 20
-7098 154 -333 350 -321 923 55 210 138 1056 690 1690 1103 196 128 583 381
861 562 278 182 679 443 890 580 1432 930 1496 977 1555 1142 87 247 -2 412
-341 633 -110 72 -335 219 -500 327 -165 108 -505 329 -755 492 -725 472
-1854 1209 -2795 1824 -1104 721 -1146 742 -1352 645z m786 -1005 c229 -144
520 -328 646 -408 127 -80 406 -256 622 -393 215 -136 1004 -634 1754 -1107
1034 -653 1357 -865 1338 -883 -13 -12 -357 -232 -764 -488 -407 -257 -1046
-660 -1420 -896 -374 -237 -747 -473 -830 -525 -82 -52 -267 -168 -410 -258
-143 -89 -377 -237 -520 -328 -564 -358 -874 -552 -882 -552 -4 0 -8 1378 -8
3062 0 2686 4 3061 29 3051 17 -6 217 -130 445 -275z"/>
</g>
</svg>
