<?xml version="1.0" standalone="no"?>
<!DOCTYPE svg PUBLIC "-//W3C//DTD SVG 20010904//EN"
 "http://www.w3.org/TR/2001/REC-SVG-20010904/DTD/svg10.dtd">
<svg version="1.0" xmlns="http://www.w3.org/2000/svg"
 width="342.000000pt" height="168.000000pt" viewBox="0 0 342.000000 168.000000"
 preserveAspectRatio="xMidYMid meet">
<metadata>
Created by potrace 1.10, written by Peter Selinger 2001-2011
</metadata>
<g transform="translate(0.000000,168.000000) scale(0.100000,-0.100000)"
fill="#000000" stroke="none">
<path d="M1917 1659 c-5 -18 -11 -20 -46 -14 -33 5 -42 3 -47 -9 -3 -9 -20
-31 -38 -50 -44 -47 -76 -92 -76 -105 0 -7 16 -26 37 -44 30 -26 47 -33 97
-37 60 -5 61 -5 61 -35 l0 -30 -54 3 c-88 6 -171 -39 -171 -91 0 -18 42 -57
62 -57 9 0 27 13 40 29 l23 29 60 -29 c114 -54 207 -60 245 -13 21 24 40 16
106 -45 109 -100 179 -126 386 -146 31 -3 73 -14 92 -26 34 -20 86 -79 86 -98
0 -5 7 -22 14 -38 8 -15 18 -35 21 -43 3 -8 14 -28 25 -45 11 -16 24 -39 29
-50 5 -12 48 -60 95 -108 l87 -87 3 -58 c4 -66 30 -120 70 -142 25 -14 28 -13
41 3 7 10 11 27 8 38 -3 11 0 31 7 43 10 19 9 30 -8 65 -11 22 -23 58 -27 79
-4 25 -15 43 -34 56 -48 33 -61 68 -61 167 0 57 -5 103 -15 126 -8 19 -15 45
-15 57 0 12 -12 39 -26 60 l-26 38 54 52 c29 29 62 72 72 97 10 24 22 51 27
59 4 8 19 38 33 65 44 89 110 146 243 209 20 10 23 18 23 79 l0 67 -40 0 c-28
0 -40 -4 -40 -14 0 -8 -9 -18 -21 -21 -44 -14 -134 -118 -172 -200 -21 -44
-44 -93 -52 -108 -8 -16 -15 -33 -15 -38 0 -20 -73 -104 -117 -136 -40 -29
-55 -33 -107 -33 -94 0 -233 62 -326 146 -86 77 -206 173 -260 210 -70 46
-188 102 -250 117 -42 11 -60 21 -76 45 -20 29 -22 30 -27 11z"/>
<path d="M18 793 c-17 -4 -18 -32 -18 -399 l0 -394 110 0 109 0 3 82 3 83 128
5 c126 5 129 6 153 33 24 28 24 28 24 278 0 160 -4 258 -11 271 -22 41 -65 48
-281 47 -112 -1 -211 -3 -220 -6z m271 -121 c13 -25 13 -350 0 -374 -7 -13
-19 -18 -37 -16 l-27 3 -3 190 c-1 104 0 195 2 202 8 20 54 16 65 -5z"/>
<path d="M618 789 c-17 -9 -18 -38 -18 -384 0 -205 3 -380 6 -389 5 -14 38
-16 264 -16 l258 0 6 23 c11 40 7 737 -4 758 -9 17 -22 19 -103 19 -59 0 -97
-4 -105 -12 -9 -9 -12 -101 -12 -354 0 -372 0 -374 -55 -360 l-25 6 0 354 c0
313 -2 355 -16 360 -26 10 -178 6 -196 -5z"/>
<path d="M1262 783 c-19 -9 -38 -26 -42 -39 -10 -25 -13 -704 -4 -728 5 -13
26 -16 115 -16 80 0 109 3 110 13 0 6 0 154 -1 328 -1 302 0 316 19 333 13 11
27 15 40 11 21 -6 21 -11 21 -346 l0 -339 115 0 116 0 -1 331 c-2 349 0 363
44 357 21 -3 21 -7 24 -346 l2 -343 118 3 117 3 3 362 2 362 -29 33 -29 33
-354 2 c-312 3 -357 1 -386 -14z"/>
<path d="M2178 785 c-15 -9 -32 -24 -38 -35 -6 -12 -10 -154 -10 -384 l0 -366
115 0 115 0 0 86 0 85 38 -3 37 -3 3 -83 3 -82 109 0 110 0 0 379 0 379 -27
18 c-25 17 -52 19 -228 21 -163 2 -205 0 -227 -12z m245 -108 c16 -11 17 -32
15 -202 l-3 -190 -35 0 -35 0 -3 194 c-2 149 1 196 10 203 18 11 32 10 51 -5z"/>
<path d="M2880 152 c0 -17 38 -57 46 -49 4 4 -4 19 -19 33 -15 14 -27 21 -27
16z"/>
<path d="M2778 139 c-10 -5 -18 -14 -18 -19 0 -14 28 -1 34 16 6 16 6 16 -16
3z"/>
<path d="M2807 78 c-7 -51 -3 -58 29 -58 22 0 24 4 24 44 0 31 -5 46 -16 50
-27 11 -31 7 -37 -36z"/>
<path d="M2905 20 c-15 -17 -16 -20 -3 -20 9 0 18 9 21 20 3 11 4 20 3 20 -2
0 -11 -9 -21 -20z"/>
</g>
</svg>
