<?xml version="1.0" standalone="no"?>
<!DOCTYPE svg PUBLIC "-//W3C//DTD SVG 20010904//EN"
 "http://www.w3.org/TR/2001/REC-SVG-20010904/DTD/svg10.dtd">
<svg version="1.0" xmlns="http://www.w3.org/2000/svg"
 width="72.000000pt" height="72.000000pt" viewBox="0 0 72.000000 72.000000"
 preserveAspectRatio="xMidYMid meet">
<metadata>
Created by potrace 1.10, written by Peter Selinger 2001-2011
</metadata>
<g transform="translate(0.000000,72.000000) scale(0.100000,-0.100000)"
fill="#000000" stroke="none">
<path d="M385 510 c-17 -11 -32 -31 -35 -47 -5 -25 -9 -28 -44 -26 -25 2 -51
13 -77 33 -21 17 -43 29 -49 25 -13 -8 -13 -52 0 -60 7 -4 7 -12 0 -25 -13
-25 26 -104 60 -120 24 -11 24 -12 5 -26 -10 -8 -27 -14 -37 -14 -23 0 -24
-35 -2 -44 48 -19 154 4 210 44 38 27 84 106 84 142 0 19 7 43 15 54 22 30 19
54 -8 54 -13 0 -32 7 -43 15 -26 20 -43 19 -79 -5z"/>
</g>
</svg>
