<?xml version="1.0" standalone="no"?>
<!DOCTYPE svg PUBLIC "-//W3C//DTD SVG 20010904//EN"
 "http://www.w3.org/TR/2001/REC-SVG-20010904/DTD/svg10.dtd">
<svg version="1.0" xmlns="http://www.w3.org/2000/svg"
 width="486.000000pt" height="66.000000pt" viewBox="0 0 486.000000 66.000000"
 preserveAspectRatio="xMidYMid meet">
<metadata>
Created by potrace 1.10, written by Peter Selinger 2001-2011
</metadata>
<g transform="translate(0.000000,66.000000) scale(0.100000,-0.100000)"
fill="#000000" stroke="none">
<path d="M1600 608 c-11 -12 -29 -41 -41 -65 -11 -24 -24 -43 -29 -43 -4 0
-10 -8 -14 -17 -3 -10 -14 -30 -23 -45 -10 -15 -38 -60 -62 -100 -25 -40 -48
-74 -53 -76 -4 -2 -8 -11 -8 -19 0 -8 -13 -32 -30 -53 -16 -21 -30 -45 -30
-53 0 -9 -6 -20 -12 -24 -7 -4 -23 -26 -35 -48 -22 -40 -22 -40 -87 -43 -36
-2 -66 -7 -66 -12 0 -6 71 -10 176 -10 123 0 173 3 168 11 -3 6 -32 10 -68 9
-90 -3 -89 -4 -82 26 7 26 45 86 59 92 4 2 7 10 7 17 0 8 5 17 11 21 14 8 322
10 335 1 5 -3 21 -26 34 -52 14 -26 30 -56 37 -68 19 -33 0 -47 -56 -40 -28 3
-56 1 -67 -5 -14 -9 42 -11 219 -12 163 0 236 3 232 10 -4 6 -28 10 -54 9 -48
-2 -76 13 -94 52 -4 8 -16 28 -27 44 -11 17 -24 39 -30 50 -6 11 -24 43 -40
70 -17 28 -37 64 -45 80 -9 17 -24 44 -35 60 -11 17 -24 39 -30 50 -6 11 -19
34 -30 50 -11 17 -24 40 -29 52 -18 40 -61 103 -71 103 -5 0 -18 -10 -30 -22z
m-24 -185 c9 -29 13 -36 34 -68 11 -16 23 -37 27 -45 3 -8 14 -25 24 -38 34
-45 18 -52 -116 -52 -75 0 -126 4 -130 10 -4 6 4 25 17 43 14 18 28 39 31 47
4 8 16 29 27 45 11 17 24 40 30 53 11 26 48 30 56 5z"/>
<path d="M4323 618 c-6 -7 -13 -20 -17 -28 -3 -8 -15 -28 -26 -45 -11 -16 -23
-37 -27 -45 -3 -8 -18 -31 -32 -50 -30 -41 -47 -67 -61 -95 -6 -11 -19 -33
-30 -50 -11 -16 -24 -39 -30 -50 -6 -11 -19 -33 -30 -50 -11 -16 -24 -39 -30
-50 -6 -11 -19 -33 -30 -50 -11 -16 -25 -40 -31 -52 -15 -28 -41 -37 -95 -34
-23 1 -45 -2 -49 -8 -4 -8 47 -11 170 -11 128 0 174 3 169 11 -4 8 -32 10 -81
7 -76 -5 -94 2 -72 29 14 16 33 48 45 73 4 8 16 26 26 39 18 24 21 25 171 24
164 -1 184 -5 198 -37 5 -11 21 -40 35 -64 36 -62 29 -71 -49 -65 -42 4 -67 2
-71 -6 -5 -8 59 -11 238 -11 157 0 246 4 246 10 0 6 -30 10 -70 10 l-69 0 -36
55 c-19 31 -47 77 -61 103 -14 26 -34 61 -45 77 -10 17 -23 39 -29 50 -23 42
-38 67 -49 78 -6 6 -11 17 -11 24 0 6 -12 29 -26 50 -14 21 -30 47 -35 58 -6
11 -15 29 -22 40 -47 77 -64 89 -84 63z m-34 -182 c6 -7 22 -33 35 -57 36 -70
50 -93 64 -111 8 -9 12 -24 10 -34 -3 -16 -15 -18 -110 -15 -61 1 -115 -2
-126 -8 -17 -9 -21 -7 -26 12 -3 13 0 26 7 32 7 6 17 17 21 25 8 17 19 36 57
95 14 22 28 48 32 58 8 20 20 22 36 3z"/>
<path d="M66 604 c-11 -11 -16 -35 -16 -79 0 -94 31 -97 44 -5 4 25 10 51 15
58 9 15 449 23 454 8 2 -5 -67 -78 -152 -162 -357 -349 -411 -404 -411 -414 0
-7 127 -10 390 -10 451 0 410 -12 410 119 0 62 -3 81 -14 81 -25 0 -36 -26
-42 -104 -4 -42 -10 -76 -13 -76 -374 -5 -501 -4 -505 6 -4 9 382 395 547 548
15 14 27 30 27 35 0 7 -122 11 -359 11 -314 0 -362 -2 -375 -16z"/>
<path d="M2485 610 c-10 -16 21 -23 76 -18 83 8 80 20 77 -289 -2 -149 -6
-275 -10 -279 -4 -4 -37 -6 -72 -5 -36 1 -67 -3 -71 -9 -4 -7 71 -10 240 -10
162 0 244 3 240 10 -3 5 -35 10 -70 10 -48 0 -64 4 -69 16 -12 30 -7 249 6
262 7 7 43 12 93 12 94 0 107 -9 152 -100 4 -8 26 -47 50 -86 24 -39 43 -76
43 -81 0 -5 9 -16 20 -26 17 -14 43 -17 166 -17 98 0 143 3 139 10 -4 6 -29
10 -55 9 -51 -3 -75 9 -91 46 -5 11 -18 34 -29 50 -11 17 -24 39 -30 50 -6 11
-19 34 -30 50 -47 72 -49 105 -4 105 95 0 155 130 105 228 -38 73 -31 72 -474
72 -255 0 -398 -4 -402 -10z m661 -40 c38 -29 54 -56 54 -94 0 -43 -30 -100
-63 -118 -26 -14 -229 -24 -281 -14 l-36 7 0 115 c0 104 2 115 19 122 35 13
286 -1 307 -18z"/>
</g>
</svg>
